<svg width="84" height="191" viewBox="0 0 84 191" fill="none" xmlns="http://www.w3.org/2000/svg">
<path fill-rule="evenodd" clip-rule="evenodd" d="M15.4148 139.266L3.24678 137.143C3.24678 137.143 1.52322 159.765 16.3506 184.868L17.5019 184.857L16.2485 151.024L18.6761 150.914L15.4148 139.266Z" fill="url(#paint0_linear_114_2259)"/>
<path fill-rule="evenodd" clip-rule="evenodd" d="M70.8867 138.784L83.3437 136.357C83.3437 136.357 85.5095 158.939 71.1805 184.328L70.0297 184.339L70.6175 150.492L68.1878 150.429L70.8867 138.784Z" fill="url(#paint1_linear_114_2259)"/>
<path fill-rule="evenodd" clip-rule="evenodd" d="M41.9151 7.73688C57.6414 7.58063 82.6441 45.2607 80.9976 80.5496C79.3511 115.839 63.639 167.812 63.639 167.812L43.4943 168.211L23.346 168.211C23.346 168.211 6.6131 116.554 4.27337 81.3059C1.93365 46.0581 26.2951 7.89052 41.9151 7.73688Z" fill="url(#paint2_radial_114_2259)"/>
<path fill-rule="evenodd" clip-rule="evenodd" d="M63.6387 167.812C63.6387 167.812 40.6856 165.998 23.3456 168.209C23.344 168.208 45.8685 170.215 63.6387 167.812Z" fill="#31165F"/>
<path fill-rule="evenodd" clip-rule="evenodd" d="M63.2001 23.4964C63.2001 23.4964 40.8474 16.6532 19.7393 25.7642C19.7393 25.7642 30.5029 7.95571 41.9149 7.73959C52.1823 7.54534 63.2001 23.4964 63.2001 23.4964Z" fill="url(#paint3_radial_114_2259)"/>
<path d="M19.817 25.9385C39.4453 17.2402 62.9141 23.6139 63.1489 23.679L63.2531 23.3093C63.0172 23.2437 39.4177 16.8325 19.6639 25.5876L19.817 25.9385Z" fill="#53345F"/>
<path fill-rule="evenodd" clip-rule="evenodd" d="M47.22 8.93144L35.4454 9.64209C35.4454 9.64209 41.3757 5.31839 47.22 8.93144Z" fill="#53345F"/>
<path fill-rule="evenodd" clip-rule="evenodd" d="M45.5774 8.38085C43.3822 8.05123 41.1528 8.01621 38.9484 8.27673C38.9484 8.27673 40.1883 2.66096 42.2051 2.44594C44.2219 2.23093 45.5774 8.38085 45.5774 8.38085Z" fill="url(#paint4_linear_114_2259)"/>
<path style="mix-blend-mode:multiply" opacity="0.5" fill-rule="evenodd" clip-rule="evenodd" d="M72.6206 133.475C72.6206 133.475 38.5185 122.659 12.869 130.748C16.3632 145.446 23.3442 168.207 23.3442 168.207C23.3442 168.207 38.7206 165.893 63.6374 167.811C63.6389 167.813 69.7274 150.743 72.6206 133.475Z" fill="url(#paint5_radial_114_2259)"/>
<path style="mix-blend-mode:multiply" opacity="0.5" fill-rule="evenodd" clip-rule="evenodd" d="M43.479 33.2223C57.6847 34.1887 67.9562 51.0089 68.7499 65.7634C69.5435 80.5179 56.1444 89.6651 41.7555 89.4006C27.3665 89.1361 15.3541 79.3505 16.8408 63.176C18.1847 48.5501 27.7158 32.1506 43.479 33.2223Z" fill="url(#paint6_radial_114_2259)"/>
<path fill-rule="evenodd" clip-rule="evenodd" d="M43.4562 30.8732C57.6614 31.8391 67.9335 48.6597 68.7266 63.414C69.5197 78.1684 56.1217 87.3155 41.7322 87.051C27.3427 86.7865 15.3308 77.001 16.818 60.8261C18.162 46.2004 27.693 29.801 43.4562 30.8732Z" fill="#31165F"/>
<path fill-rule="evenodd" clip-rule="evenodd" d="M43.4398 29.2345C57.6449 30.2005 67.917 47.0205 68.7101 61.7749C69.5032 76.5292 56.1052 85.6769 41.7158 85.4108C27.3263 85.1447 15.3145 75.3639 16.8017 59.1864C18.1456 44.5617 27.6766 28.1624 43.4398 29.2345Z" fill="url(#paint7_radial_114_2259)"/>
<path fill-rule="evenodd" clip-rule="evenodd" d="M42.5488 34.4866C55.2731 35.1411 61.7808 48.3692 62.4036 59.8867C63.0264 71.4043 52.5007 78.5456 41.195 78.3394C29.8893 78.1332 20.4509 70.4977 21.6199 57.8695C22.676 46.4525 29.2586 33.8024 42.5488 34.4866Z" fill="#A6345F"/>
<path fill-rule="evenodd" clip-rule="evenodd" d="M29.2547 74.3219L29.2625 74.3297L29.2781 74.3448C32.786 76.8066 36.9644 78.1334 41.2499 78.1462C52.0119 78.3399 62.9974 70.8512 62.4058 59.8902C62.2085 56.1441 61.3155 52.4676 59.7724 49.0484C56.7188 42.32 50.9907 36.9929 42.5449 36.3998C30.0638 35.5244 23.6255 47.7909 22.6189 58.6608C21.9732 65.6381 24.7295 71.0101 29.2547 74.3219Z" fill="url(#paint8_linear_114_2259)"/>
<path d="M42.0289 87.0492L42.4352 128.031L42.0521 128.035L41.6459 87.053L42.0289 87.0492Z" fill="#53345F"/>
<path d="M72.5685 133.66L72.6726 133.29C33.655 122.407 13.0029 130.49 12.7977 130.573L12.9425 130.929C13.1435 130.846 33.6957 122.818 72.5685 133.66Z" fill="#53345F"/>
<path d="M75.4727 119.954L75.681 119.633C75.5618 119.554 63.4503 111.859 42.0836 110.917L42.0664 111.301C63.3212 112.239 75.3551 119.877 75.4727 119.954Z" fill="#53345F"/>
<path fill-rule="evenodd" clip-rule="evenodd" d="M37.843 157.569L38.2372 139.877L33.389 138.697L34.0514 157.606L37.843 157.569Z" fill="#31165F"/>
<path fill-rule="evenodd" clip-rule="evenodd" d="M60.3108 168.209C60.3108 168.209 42.7947 166.695 25.6588 168.389L26.7738 176.303L59.4125 175.109L60.3108 168.209Z" fill="url(#paint9_radial_114_2259)"/>
<path opacity="0.5" fill-rule="evenodd" clip-rule="evenodd" d="M59.8563 171.698C55.548 169.656 50.819 168.661 46.0536 168.792C38.1978 169.036 26.515 174.473 26.515 174.473L25.6583 168.388C25.6583 168.388 44.3321 166.382 60.3104 168.209L59.8563 171.698Z" fill="#31165F"/>
<path d="M34.7864 41.317C32.513 43.6351 30.6336 46.3091 29.2223 49.2334L26.4739 47.6741C26.4739 47.6741 28.524 42.5993 32.4207 40.7759L34.7864 41.317Z" fill="white"/>
<path d="M58.4793 63.5073L56.2631 67.5062L58.5314 68.8179L60.1233 65.4797L58.4793 63.5073Z" fill="white"/>
<path style="mix-blend-mode:multiply" opacity="0.5" fill-rule="evenodd" clip-rule="evenodd" d="M67.8274 30.6092C67.8274 30.6092 45.4149 19.3311 16.5213 31.0723L19.7394 25.7607C19.7394 25.7607 36.4202 17.7414 63.2001 23.4929L67.8274 30.6092Z" fill="url(#paint10_radial_114_2259)"/>
<path fill-rule="evenodd" clip-rule="evenodd" d="M43.1361 113.753C43.1386 114.002 43.215 114.245 43.3555 114.451C43.4961 114.657 43.6946 114.817 43.926 114.91C44.1573 115.003 44.4111 115.026 44.6552 114.975C44.8993 114.924 45.1228 114.802 45.2975 114.624C45.4721 114.445 45.5901 114.22 45.6364 113.975C45.6828 113.73 45.6554 113.476 45.5579 113.247C45.4603 113.017 45.2969 112.822 45.0882 112.685C44.8796 112.549 44.6351 112.477 44.3858 112.479C44.22 112.481 44.0562 112.515 43.9037 112.579C43.7511 112.644 43.6129 112.738 43.4968 112.857C43.3807 112.975 43.2891 113.115 43.2272 113.269C43.1653 113.423 43.1344 113.587 43.1361 113.753V113.753Z" fill="url(#paint11_linear_114_2259)"/>
<path fill-rule="evenodd" clip-rule="evenodd" d="M43.4041 113.75C43.406 113.946 43.4661 114.138 43.5768 114.3C43.6875 114.462 43.8438 114.588 44.026 114.661C44.2081 114.734 44.408 114.752 44.6003 114.712C44.7925 114.672 44.9686 114.575 45.1061 114.435C45.2436 114.295 45.3365 114.117 45.3729 113.925C45.4093 113.732 45.3877 113.532 45.3107 113.352C45.2338 113.171 45.105 113.017 44.9406 112.91C44.7762 112.802 44.5836 112.746 44.3872 112.748C44.1239 112.751 43.8725 112.858 43.6882 113.046C43.5038 113.233 43.4016 113.487 43.4041 113.75Z" fill="url(#paint12_radial_114_2259)"/>
<path fill-rule="evenodd" clip-rule="evenodd" d="M43.0746 107.532C43.0771 107.781 43.1534 108.024 43.294 108.23C43.4346 108.436 43.6331 108.596 43.8645 108.689C44.0958 108.783 44.3495 108.805 44.5936 108.754C44.8378 108.703 45.0613 108.581 45.2359 108.403C45.4106 108.225 45.5286 107.999 45.5749 107.754C45.6213 107.509 45.5939 107.255 45.4963 107.026C45.3988 106.796 45.2353 106.601 45.0267 106.464C44.8181 106.327 44.5736 106.256 44.3243 106.258C44.1585 106.259 43.9947 106.293 43.8422 106.358C43.6896 106.423 43.5514 106.517 43.4353 106.636C43.3192 106.754 43.2276 106.894 43.1657 107.048C43.1038 107.202 43.0728 107.366 43.0746 107.532Z" fill="url(#paint13_linear_114_2259)"/>
<path fill-rule="evenodd" clip-rule="evenodd" d="M43.3425 107.53C43.3444 107.726 43.4044 107.918 43.5151 108.08C43.6258 108.242 43.7821 108.368 43.9643 108.441C44.1465 108.515 44.3464 108.532 44.5386 108.492C44.7309 108.452 44.9069 108.356 45.0444 108.216C45.1819 108.075 45.2748 107.898 45.3112 107.705C45.3477 107.512 45.326 107.312 45.2491 107.132C45.1721 106.951 45.0433 106.797 44.8789 106.69C44.7145 106.582 44.522 106.526 44.3256 106.528C44.0623 106.531 43.8109 106.638 43.6265 106.825C43.4422 107.013 43.34 107.267 43.3425 107.53V107.53Z" fill="url(#paint14_radial_114_2259)"/>
<path fill-rule="evenodd" clip-rule="evenodd" d="M63.4213 64.9257C63.4237 65.1751 63.4999 65.4181 63.6405 65.6242C63.781 65.8302 63.9795 65.99 64.2108 66.0833C64.4421 66.1765 64.6959 66.1991 64.94 66.1482C65.1842 66.0972 65.4078 65.975 65.5825 65.797C65.7572 65.619 65.8752 65.3932 65.9216 65.1481C65.968 64.9031 65.9407 64.6498 65.8431 64.4202C65.7455 64.1907 65.5821 63.9953 65.3735 63.8586C65.1648 63.7219 64.9203 63.6502 64.6709 63.6524C64.5053 63.6539 64.3415 63.6881 64.1891 63.7529C64.0366 63.8177 63.8984 63.9119 63.7823 64.0301C63.6663 64.1484 63.5746 64.2883 63.5127 64.442C63.4507 64.5956 63.4197 64.76 63.4213 64.9257V64.9257Z" fill="#31165F"/>
<path fill-rule="evenodd" clip-rule="evenodd" d="M63.6909 64.9245C63.6928 65.121 63.7528 65.3126 63.8635 65.475C63.9742 65.6373 64.1305 65.7632 64.3127 65.8366C64.4949 65.9101 64.6948 65.9278 64.8871 65.8876C65.0793 65.8474 65.2554 65.7511 65.3929 65.6108C65.5304 65.4704 65.6233 65.2925 65.6597 65.0993C65.6962 64.9062 65.6745 64.7066 65.5976 64.5258C65.5206 64.3449 65.3918 64.191 65.2274 64.0834C65.063 63.9759 64.8704 63.9195 64.674 63.9215C64.4107 63.9241 64.1592 64.0312 63.9749 64.2193C63.7905 64.4074 63.6884 64.6611 63.6909 64.9245V64.9245Z" fill="url(#paint15_radial_114_2259)"/>
<path fill-rule="evenodd" clip-rule="evenodd" d="M61.0352 47.1007C61.0377 47.3502 61.114 47.5932 61.2546 47.7993C61.3952 48.0053 61.5937 48.165 61.8251 48.2582C62.0564 48.3514 62.3102 48.3739 62.5543 48.3229C62.7984 48.2719 63.0219 48.1496 63.1965 47.9716C63.3712 47.7935 63.4892 47.5677 63.5355 47.3226C63.5819 47.0775 63.5545 46.8241 63.4569 46.5946C63.3594 46.365 63.1959 46.1696 62.9873 46.0329C62.7787 45.8962 62.5342 45.8245 62.2849 45.8268C62.1191 45.8283 61.9554 45.8624 61.8029 45.9273C61.6503 45.9921 61.5121 46.0864 61.3961 46.2047C61.28 46.323 61.1884 46.4631 61.1265 46.6168C61.0645 46.7705 61.0335 46.935 61.0352 47.1007V47.1007Z" fill="#31165F"/>
<path fill-rule="evenodd" clip-rule="evenodd" d="M61.3025 47.0966C61.3042 47.293 61.3642 47.4845 61.4749 47.6468C61.5855 47.8092 61.7418 47.935 61.924 48.0085C62.1062 48.0819 62.3061 48.0997 62.4984 48.0596C62.6908 48.0194 62.8668 47.9231 63.0044 47.7829C63.142 47.6426 63.2348 47.4647 63.2712 47.2717C63.3076 47.0786 63.286 46.8792 63.2089 46.6984C63.1319 46.5177 63.003 46.3639 62.8386 46.2565C62.6741 46.149 62.4815 46.0928 62.285 46.0948C62.0219 46.0976 61.7707 46.2046 61.5865 46.3925C61.4022 46.5803 61.3001 46.8335 61.3025 47.0966V47.0966Z" fill="url(#paint16_radial_114_2259)"/>
<path fill-rule="evenodd" clip-rule="evenodd" d="M51.7577 79.1378C51.7602 79.3875 51.8366 79.6307 51.9771 79.8369C52.1177 80.0431 52.3163 80.2029 52.5476 80.2962C52.7789 80.3895 53.0327 80.412 53.2768 80.361C53.5209 80.3099 53.7444 80.1875 53.9191 80.0094C54.0937 79.8312 54.2117 79.6051 54.258 79.3599C54.3044 79.1146 54.277 78.861 54.1795 78.6313C54.0819 78.4016 53.9185 78.206 53.7099 78.0692C53.5012 77.9324 53.2568 77.8606 53.0074 77.8629C52.8417 77.8645 52.6779 77.8987 52.5255 77.9636C52.373 78.0285 52.2348 78.1229 52.1187 78.2413C52.0027 78.3597 51.9111 78.4998 51.8491 78.6536C51.7872 78.8075 51.7561 78.972 51.7577 79.1378V79.1378Z" fill="#31165F"/>
<path fill-rule="evenodd" clip-rule="evenodd" d="M52.0265 79.1364C52.0284 79.3329 52.0886 79.5245 52.1993 79.6867C52.3101 79.849 52.4664 79.9748 52.6486 80.0482C52.8308 80.1216 53.0306 80.1393 53.2228 80.099C53.415 80.0587 53.591 79.9623 53.7285 79.822C53.8659 79.6817 53.9587 79.5037 53.9951 79.3106C54.0315 79.1175 54.0099 78.9179 53.9329 78.7371C53.8559 78.5563 53.7271 78.4024 53.5628 78.2948C53.3984 78.1873 53.2058 78.1309 53.0095 78.1329C52.7462 78.1357 52.4947 78.2429 52.3104 78.4311C52.1261 78.6193 52.0239 78.873 52.0265 79.1364V79.1364Z" fill="url(#paint17_radial_114_2259)"/>
<path fill-rule="evenodd" clip-rule="evenodd" d="M32.2428 80.8478C32.2453 81.0972 32.3216 81.3403 32.4622 81.5463C32.6028 81.7524 32.8013 81.9121 33.0326 82.0053C33.2639 82.0985 33.5177 82.121 33.7618 82.07C34.0059 82.0189 34.2294 81.8967 34.404 81.7186C34.5787 81.5406 34.6966 81.3147 34.743 81.0696C34.7893 80.8246 34.762 80.5712 34.6644 80.3417C34.5669 80.1121 34.4034 79.9167 34.1948 79.78C33.9862 79.6433 33.7418 79.5716 33.4924 79.5738C33.3267 79.5753 33.1629 79.6094 33.0103 79.6742C32.8578 79.739 32.7195 79.8333 32.6035 79.9516C32.4874 80.07 32.3958 80.21 32.3339 80.3638C32.272 80.5176 32.2411 80.682 32.2428 80.8478V80.8478Z" fill="#31165F"/>
<path fill-rule="evenodd" clip-rule="evenodd" d="M32.5107 80.8442C32.5127 81.0405 32.5729 81.2317 32.6836 81.3938C32.7943 81.5559 32.9507 81.6815 33.1329 81.7548C33.3151 81.8281 33.5149 81.8458 33.7071 81.8056C33.8994 81.7654 34.0753 81.6691 34.2128 81.5289C34.3503 81.3887 34.4431 81.211 34.4795 81.0181C34.5159 80.8252 34.4942 80.6259 34.4173 80.4453C34.3403 80.2647 34.2115 80.111 34.0471 80.0036C33.8827 79.8962 33.6902 79.8399 33.4938 79.8419C33.3634 79.8432 33.2345 79.8701 33.1145 79.9212C32.9946 79.9723 32.8858 80.0465 32.7945 80.1396C32.7032 80.2326 32.6312 80.3428 32.5825 80.4637C32.5338 80.5846 32.5094 80.7139 32.5107 80.8442V80.8442Z" fill="url(#paint18_radial_114_2259)"/>
<path fill-rule="evenodd" clip-rule="evenodd" d="M18.9072 69.2084C18.9096 69.4578 18.9859 69.7009 19.1264 69.9069C19.2669 70.113 19.4654 70.2727 19.6967 70.366C19.928 70.4593 20.1818 70.4818 20.4259 70.4309C20.67 70.3799 20.8936 70.2577 21.0683 70.0797C21.243 69.9017 21.361 69.6759 21.4074 69.4309C21.4538 69.1858 21.4265 68.9325 21.3289 68.703C21.2314 68.4734 21.0679 68.278 20.8593 68.1413C20.6507 68.0046 20.4062 67.9329 20.1568 67.9352C19.9912 67.9367 19.8274 67.9708 19.675 68.0356C19.5225 68.1004 19.3843 68.1946 19.2682 68.3128C19.1522 68.4311 19.0606 68.571 18.9986 68.7247C18.9367 68.8783 18.9056 69.0427 18.9072 69.2084V69.2084Z" fill="#31165F"/>
<path fill-rule="evenodd" clip-rule="evenodd" d="M19.1728 69.2048C19.1748 69.4013 19.235 69.5928 19.3457 69.7551C19.4564 69.9174 19.6128 70.0432 19.795 70.1166C19.9772 70.19 20.177 70.2076 20.3693 70.1674C20.5615 70.1271 20.7375 70.0307 20.8749 69.8903C21.0124 69.75 21.1052 69.572 21.1416 69.3789C21.178 69.1858 21.1563 68.9862 21.0793 68.8055C21.0024 68.6247 20.8736 68.4707 20.7092 68.3632C20.5448 68.2557 20.3523 68.1993 20.1559 68.2013C20.0255 68.2026 19.8966 68.2295 19.7766 68.2807C19.6567 68.3318 19.5479 68.4061 19.4566 68.4993C19.3654 68.5925 19.2933 68.7027 19.2446 68.8238C19.1959 68.9449 19.1715 69.0743 19.1728 69.2048V69.2048Z" fill="url(#paint19_radial_114_2259)"/>
<path fill-rule="evenodd" clip-rule="evenodd" d="M20.7097 46.8422C20.7122 47.0916 20.7886 47.3346 20.9291 47.5406C21.0697 47.7466 21.2682 47.9062 21.4995 47.9994C21.7308 48.0926 21.9846 48.1151 22.2287 48.0641C22.4728 48.0131 22.6963 47.8909 22.871 47.7128C23.0456 47.5348 23.1636 47.309 23.2099 47.064C23.2563 46.8189 23.2289 46.5656 23.1314 46.3361C23.0338 46.1066 22.8704 45.9112 22.6617 45.7746C22.4531 45.6379 22.2087 45.5662 21.9593 45.5685C21.7936 45.57 21.6298 45.6041 21.4773 45.6689C21.3248 45.7338 21.1866 45.828 21.0705 45.9463C20.9545 46.0646 20.8629 46.2046 20.801 46.3583C20.7391 46.5121 20.708 46.6765 20.7097 46.8422V46.8422Z" fill="#31165F"/>
<path fill-rule="evenodd" clip-rule="evenodd" d="M20.9778 46.8383C20.9797 47.0346 21.0399 47.2259 21.1506 47.388C21.2614 47.5501 21.4177 47.6757 21.5999 47.749C21.7821 47.8223 21.9819 47.8399 22.1742 47.7997C22.3664 47.7595 22.5424 47.6632 22.6799 47.523C22.8173 47.3829 22.9101 47.2051 22.9465 47.0122C22.9829 46.8194 22.9613 46.62 22.8843 46.4395C22.8073 46.2589 22.6785 46.1052 22.5141 45.9978C22.3498 45.8904 22.1572 45.8341 21.9608 45.836C21.8304 45.8373 21.7015 45.8643 21.5816 45.9153C21.4616 45.9664 21.3528 46.0406 21.2615 46.1337C21.1703 46.2268 21.0982 46.3369 21.0495 46.4578C21.0008 46.5787 20.9764 46.708 20.9778 46.8383V46.8383Z" fill="url(#paint20_radial_114_2259)"/>
<path fill-rule="evenodd" clip-rule="evenodd" d="M30.5333 35.2206C30.5357 35.47 30.612 35.7131 30.7525 35.9191C30.893 36.1252 31.0915 36.2849 31.3228 36.3782C31.5541 36.4714 31.8079 36.494 32.0521 36.4431C32.2962 36.3921 32.5198 36.2699 32.6945 36.0919C32.8692 35.9139 32.9872 35.6881 33.0336 35.4431C33.08 35.198 33.0527 34.9447 32.9551 34.7152C32.8576 34.4856 32.6941 34.2902 32.4855 34.1535C32.2768 34.0168 32.0324 33.9451 31.783 33.9474C31.6173 33.9489 31.4536 33.983 31.3011 34.0478C31.1486 34.1126 31.0104 34.2068 30.8943 34.325C30.7783 34.4433 30.6867 34.5832 30.6247 34.7369C30.5628 34.8905 30.5317 35.0549 30.5333 35.2206Z" fill="#31165F"/>
<path fill-rule="evenodd" clip-rule="evenodd" d="M30.8015 35.2173C30.8035 35.4135 30.8636 35.6048 30.9744 35.7669C31.0851 35.929 31.2415 36.0546 31.4237 36.1279C31.6058 36.2012 31.8057 36.2188 31.9979 36.1786C32.1901 36.1384 32.3661 36.0421 32.5036 35.902C32.6411 35.7618 32.7339 35.584 32.7703 35.3911C32.8066 35.1983 32.785 34.999 32.708 34.8184C32.631 34.6378 32.5022 34.4841 32.3379 34.3767C32.1735 34.2693 31.9809 34.213 31.7846 34.2149C31.6542 34.2162 31.5253 34.2432 31.4053 34.2943C31.2853 34.3453 31.1766 34.4195 31.0853 34.5126C30.994 34.6057 30.922 34.7158 30.8733 34.8367C30.8246 34.9576 30.8002 35.0869 30.8015 35.2173V35.2173Z" fill="url(#paint21_radial_114_2259)"/>
<path fill-rule="evenodd" clip-rule="evenodd" d="M47.2486 33.2509C47.2511 33.5002 47.3275 33.7433 47.4681 33.9493C47.6087 34.1553 47.8072 34.3149 48.0385 34.4081C48.2699 34.5013 48.5236 34.5238 48.7677 34.4728C49.0118 34.4218 49.2354 34.2995 49.41 34.1215C49.5847 33.9435 49.7026 33.7177 49.749 33.4727C49.7953 33.2276 49.768 32.9743 49.6704 32.7448C49.5728 32.5153 49.4094 32.3199 49.2008 32.1832C48.9921 32.0466 48.7477 31.9749 48.4983 31.9771C48.3326 31.9787 48.1688 32.0128 48.0163 32.0776C47.8638 32.1425 47.7256 32.2367 47.6095 32.355C47.4935 32.4733 47.4019 32.6133 47.3399 32.767C47.278 32.9208 47.247 33.0852 47.2486 33.2509V33.2509Z" fill="#31165F"/>
<path fill-rule="evenodd" clip-rule="evenodd" d="M47.5168 33.247C47.5188 33.4433 47.579 33.6346 47.6897 33.7967C47.8004 33.9588 47.9568 34.0844 48.139 34.1577C48.3212 34.231 48.521 34.2486 48.7132 34.2084C48.9054 34.1682 49.0815 34.0719 49.2189 33.9317C49.3564 33.7916 49.4492 33.6138 49.4856 33.4209C49.522 33.2281 49.5003 33.0287 49.4233 32.8482C49.3464 32.6676 49.2176 32.5139 49.0532 32.4065C48.8888 32.299 48.6963 32.2428 48.4999 32.2447C48.3695 32.246 48.2406 32.273 48.1206 32.324C48.0007 32.3751 47.8919 32.4493 47.8006 32.5424C47.7093 32.6355 47.6373 32.7456 47.5886 32.8665C47.5399 32.9874 47.5155 33.1167 47.5168 33.247Z" fill="url(#paint22_radial_114_2259)"/>
<path fill-rule="evenodd" clip-rule="evenodd" d="M70.0295 184.34L69.1015 184.35L69.6967 150.468L70.6179 150.492L70.0295 184.34Z" fill="#6F2561"/>
<path fill-rule="evenodd" clip-rule="evenodd" d="M16.2486 151.024L17.1693 150.982L18.1275 184.848L17.5025 184.854L16.2486 151.024Z" fill="#6F2561"/>
<path fill-rule="evenodd" clip-rule="evenodd" d="M34.3309 131.521L31.0108 131.553L34.8538 184.686L37.1658 184.663L34.3309 131.521Z" fill="url(#paint23_linear_114_2259)"/>
<path fill-rule="evenodd" clip-rule="evenodd" d="M34.3312 131.52L36.7589 143.266L37.1657 184.664L34.3312 131.52Z" fill="#FF4C61"/>
<path opacity="0.5" fill-rule="evenodd" clip-rule="evenodd" d="M31.1292 133.188L23.3443 168.208L31.3667 167.69L31.5521 176.126L34.2339 176.1L31.1292 133.188Z" fill="#31165F"/>
<path d="M70.4572 40.7401C70.4572 40.7401 70.7483 37.0788 68.4113 34.8481L66.5221 34.9591C67.4184 36.9404 68.4184 38.8733 69.5178 40.7495L70.4572 40.7401Z" fill="white"/>
<g style="mix-blend-mode:soft-light">
<path d="M12.781 121.775L9.15456 105.997L8.18448 106.006L11.638 121.785L12.781 121.775Z" fill="white"/>
</g>
<path fill-rule="evenodd" clip-rule="evenodd" d="M8.06274 51.0637C8.06274 51.0637 2.18409 49.9063 6.52812 56.748L8.06274 51.0637Z" fill="url(#paint24_linear_114_2259)"/>
<path fill-rule="evenodd" clip-rule="evenodd" d="M76.3787 49.6069C76.3787 49.6069 81.8327 51.1633 78.0033 55.0273L76.3787 49.6069Z" fill="url(#paint25_linear_114_2259)"/>
<g style="mix-blend-mode:soft-light" opacity="0.5">
<path fill-rule="evenodd" clip-rule="evenodd" d="M57.9427 167.291C57.9427 167.291 72.6274 120.302 78.2096 85.2798L79.6963 85.9984C79.6963 85.9984 73.1054 139.711 62.8308 167.752L57.9427 167.291Z" fill="white"/>
</g>
<g style="mix-blend-mode:soft-light">
<path fill-rule="evenodd" clip-rule="evenodd" d="M8.5862 102.414L6.74427 92.6821L5.82253 92.691L7.66445 102.423L8.5862 102.414Z" fill="white"/>
</g>
<g style="mix-blend-mode:soft-light">
<path fill-rule="evenodd" clip-rule="evenodd" d="M69.8449 117.635C69.8449 117.635 59.7612 113.252 50.1848 112.423C50.1848 112.423 59.7363 114.461 69.8449 117.635Z" fill="white"/>
</g>
<g style="mix-blend-mode:soft-light">
<path fill-rule="evenodd" clip-rule="evenodd" d="M41.4122 90.8726L41.5226 126.801C41.5226 126.801 40.7718 113.775 41.4122 90.8726Z" fill="white"/>
</g>
<g style="mix-blend-mode:soft-light">
<path fill-rule="evenodd" clip-rule="evenodd" d="M65.3422 132.062C65.3422 132.062 41.3548 125.271 18.471 130.001C18.471 130.001 35.4298 125.666 65.3422 132.062Z" fill="white"/>
</g>
<path fill-rule="evenodd" clip-rule="evenodd" d="M59.0726 37.7776C59.0726 37.7776 55.827 39.1244 53.8591 33.0527C55.7826 34.4097 57.5333 35.9964 59.0726 37.7776Z" fill="white"/>
<g style="mix-blend-mode:soft-light">
<path fill-rule="evenodd" clip-rule="evenodd" d="M38.8577 85.23C38.8577 85.23 31.0273 84.8972 21.6826 76.5025C21.6826 76.5025 27.316 84.1849 38.8577 85.23Z" fill="white"/>
</g>
<g style="mix-blend-mode:soft-light">
<path fill-rule="evenodd" clip-rule="evenodd" d="M41.7534 78.3455C41.7534 78.3455 34.9552 82.0848 30.217 75.4009C30.217 75.4009 33.8773 78.6069 41.7534 78.3455Z" fill="white"/>
</g>
<g style="mix-blend-mode:soft-light" opacity="0.36">
<g style="mix-blend-mode:soft-light" opacity="0.36">
<path fill-rule="evenodd" clip-rule="evenodd" d="M43.2346 93.7178C43.6439 93.9891 44.425 94.3682 44.3016 94.9853C44.2118 95.2613 44.1075 95.5323 43.9892 95.7972C43.9135 96.0416 43.8655 96.2937 43.846 96.5487C43.8069 96.967 43.6513 97.366 43.3967 97.7002C43.2108 97.9043 43.0114 97.6955 42.8833 97.507C42.7243 97.3123 42.6207 97.0785 42.5833 96.83C42.5758 96.5028 42.5344 96.1773 42.4599 95.8587C42.426 95.7358 42.3302 95.6254 42.3005 95.4942C42.2701 95.3183 42.2612 95.1395 42.274 94.9615C42.2836 94.6796 42.3815 94.408 42.5539 94.1848C42.7263 93.9617 42.9644 93.7983 43.2346 93.7178V93.7178Z" fill="white"/>
</g>
<g style="mix-blend-mode:soft-light" opacity="0.36">
<path fill-rule="evenodd" clip-rule="evenodd" d="M44.9344 98.8435C44.9619 98.7725 44.9675 98.6948 44.9503 98.6205C44.9331 98.5463 44.894 98.479 44.838 98.4273C44.2339 98.4465 44.0324 99.6437 44.6042 99.8705C45.2609 100.131 45.3333 99.2316 45.1281 98.8429L44.9344 98.8435Z" fill="white"/>
</g>
<g style="mix-blend-mode:soft-light" opacity="0.36">
<path fill-rule="evenodd" clip-rule="evenodd" d="M56.1654 106.398C55.8472 106.248 55.5827 106.041 55.2333 106.125C54.9454 106.2 54.6897 106.367 54.5043 106.599C54.2867 106.894 54.1355 107.233 54.0612 107.592C53.9853 107.753 53.9568 107.932 53.979 108.108C54.1748 108.82 54.9928 109.314 55.6412 109.514C56.001 109.649 56.3753 109.741 56.7565 109.789C57.0231 109.808 57.295 109.845 57.559 109.888C57.7706 109.957 57.995 109.979 58.2161 109.952C58.4022 109.884 58.5755 109.784 58.7285 109.659C58.9399 109.505 59.1108 109.302 59.2266 109.068C59.3424 108.834 59.3997 108.576 59.3934 108.314C59.3486 107.386 58.2332 106.656 57.4745 106.284C56.8522 105.981 55.8659 105.607 56.1654 106.398Z" fill="white"/>
</g>
<g style="mix-blend-mode:soft-light" opacity="0.36">
<path fill-rule="evenodd" clip-rule="evenodd" d="M53.2424 105.164C53.3341 105.428 53.4127 105.508 53.2003 105.655C53.12 105.703 53.0302 105.733 52.9372 105.742C52.8442 105.751 52.7503 105.739 52.6624 105.707C52.3359 105.603 51.9245 105.116 52.163 104.781C52.2832 104.612 52.5686 104.309 52.7706 104.287C52.9939 104.309 53.2025 104.409 53.3597 104.569C53.5169 104.729 53.6129 104.939 53.6309 105.162L53.2424 105.164Z" fill="white"/>
</g>
<g style="mix-blend-mode:soft-light" opacity="0.36">
<path fill-rule="evenodd" clip-rule="evenodd" d="M41.2065 114.352C41.2483 114.489 41.2659 114.631 41.2586 114.774C41.2612 115.134 41.2659 115.495 41.2674 115.855C41.2706 116.532 41.3779 117.209 41.3873 117.892C41.3778 118.385 41.3301 118.877 41.2447 119.363C41.2093 119.613 41.1609 119.878 41.1062 120.122C41.0473 120.104 41.0359 119.982 41.0099 119.926C40.9239 119.738 40.8713 119.529 40.7714 119.353C40.5454 118.95 40.3183 118.528 40.1236 118.108C40.0977 118.025 40.0627 117.946 40.0194 117.87C39.9523 117.784 39.8533 117.7 39.7804 117.618C39.6444 117.472 39.5323 117.306 39.4482 117.125C39.2908 116.679 39.2318 116.203 39.2753 115.732C39.2815 115.576 39.3211 115.428 39.3232 115.271C39.3224 115.104 39.3314 114.938 39.3502 114.772C39.4163 114.417 39.5494 114.078 39.7423 113.773C39.9474 113.408 40.1801 112.779 40.6436 112.672C40.869 112.62 40.956 112.868 40.9919 113.053C41.0383 113.285 41.0398 113.521 41.0753 113.754C41.1242 114.059 41.2346 114.428 41.2065 114.352Z" fill="white"/>
</g>
<g style="mix-blend-mode:soft-light" opacity="0.36">
<path fill-rule="evenodd" clip-rule="evenodd" d="M40.6901 111.156C40.586 110.985 40.4454 110.673 40.1876 110.731C39.9299 110.789 39.9315 111.147 39.9622 111.347C40.0351 111.815 40.6333 111.319 40.5917 111.012L40.6901 111.156Z" fill="white"/>
</g>
<g style="mix-blend-mode:soft-light" opacity="0.36">
<path fill-rule="evenodd" clip-rule="evenodd" d="M36.1116 114.158C36.2156 114.324 36.2611 114.519 36.2408 114.713C36.2168 114.84 36.1465 114.954 36.0434 115.032C35.9403 115.11 35.8118 115.147 35.683 115.136C35.2524 115.157 34.954 115.05 34.8633 114.607C34.8518 114.446 34.8745 114.285 34.9299 114.134C34.9853 113.982 35.0721 113.844 35.1846 113.729C35.2814 113.64 35.4059 113.587 35.5372 113.579C35.8028 113.557 35.9303 113.763 36.0611 113.965L36.1116 114.158Z" fill="white"/>
</g>
<g style="mix-blend-mode:soft-light" opacity="0.36">
<path fill-rule="evenodd" clip-rule="evenodd" d="M26.5439 127.786C25.8996 127.471 25.2207 127.231 24.5209 127.073C23.8983 127.004 23.2726 126.968 22.6462 126.966C21.7815 126.842 20.9271 126.654 20.0899 126.405C19.3589 126.192 18.5866 126.165 17.8424 126.325C17.5385 126.395 17.2521 126.526 17.0012 126.712C16.7503 126.897 16.5404 127.132 16.3844 127.402C16.2243 127.745 16.1224 128.113 16.0829 128.489C16.0611 128.668 16.0512 128.832 16.0309 129.007C16.0043 129.11 15.9886 129.216 15.9841 129.322C15.994 129.488 16.0559 129.492 16.2147 129.489C16.4895 129.502 16.7617 129.432 16.9958 129.287C17.4171 129.059 17.8755 128.907 18.3497 128.839C18.8017 128.753 19.2386 128.64 19.6963 128.578C20.1457 128.52 20.5946 128.463 21.0429 128.396C21.4288 128.339 21.8131 128.27 22.1989 128.211C22.5848 128.153 22.9676 128.151 23.3513 128.118C23.6711 128.091 23.9918 128.12 24.3111 128.086C24.5083 128.061 24.7069 128.047 24.9057 128.043C25.0615 128.043 25.217 128.029 25.3702 128.001C25.5202 127.989 25.6707 127.984 25.8212 127.988C26.0687 127.947 26.3111 127.88 26.5439 127.786V127.786Z" fill="white"/>
</g>
<g style="mix-blend-mode:soft-light" opacity="0.36">
<path fill-rule="evenodd" clip-rule="evenodd" d="M22.3967 125.014C22.4972 125.096 22.6269 125.166 22.6545 125.291C22.6618 125.357 22.6585 125.425 22.6446 125.49C22.5826 125.779 22.1051 125.798 21.8703 125.803C21.1872 125.832 20.5183 125.601 19.9988 125.157C19.8258 124.999 19.691 124.804 19.6044 124.586C19.5178 124.369 19.4817 124.134 19.4989 123.901C19.5979 123.616 19.7736 123.364 20.0067 123.174C20.2397 122.983 20.521 122.86 20.8194 122.819C21.0959 122.725 21.3908 122.699 21.6795 122.743C21.9682 122.786 22.2422 122.898 22.4789 123.069C22.6346 123.209 22.7377 123.397 22.7711 123.604C22.7646 123.763 22.7497 123.922 22.7263 124.079C22.7263 124.294 22.8372 124.479 22.7352 124.691C22.6605 124.833 22.5417 124.946 22.3967 125.014V125.014Z" fill="white"/>
</g>
<g style="mix-blend-mode:soft-light" opacity="0.36">
<path fill-rule="evenodd" clip-rule="evenodd" d="M18.5147 125.101C18.5366 125.043 18.5402 124.979 18.5253 124.919C18.5103 124.859 18.4774 124.805 18.4308 124.763C18.3949 124.704 18.3401 124.659 18.2752 124.634C18.2103 124.609 18.139 124.607 18.0726 124.627C18.0134 124.643 17.9582 124.671 17.9109 124.71C17.8635 124.749 17.825 124.797 17.7979 124.852C17.7708 124.907 17.7557 124.967 17.7537 125.029C17.7517 125.09 17.7628 125.151 17.7862 125.207C17.8327 125.277 17.8953 125.336 17.9688 125.377C18.0424 125.418 18.1247 125.441 18.209 125.445C18.2999 125.448 18.3892 125.42 18.4624 125.366C18.5356 125.313 18.5884 125.235 18.6121 125.148L18.5147 125.101Z" fill="white"/>
</g>
<g style="mix-blend-mode:soft-light" opacity="0.36">
<path fill-rule="evenodd" clip-rule="evenodd" d="M13.3802 111.084C13.593 111.144 13.7739 111.285 13.8847 111.477C13.9236 111.523 13.9488 111.579 13.9575 111.639C13.9661 111.698 13.9579 111.759 13.9337 111.815C13.7434 112.173 13.4309 112.45 13.0532 112.597C12.9266 112.641 12.7925 112.659 12.6589 112.65C12.5253 112.641 12.3948 112.605 12.2752 112.545C12.0796 112.402 11.9074 112.23 11.7649 112.034C11.6283 111.879 11.4999 111.717 11.3801 111.549C11.2538 111.428 11.1695 111.27 11.1393 111.098C11.1092 110.925 11.1347 110.748 11.2123 110.591C11.3145 110.432 11.4547 110.301 11.6202 110.21C11.7856 110.119 11.9713 110.071 12.1601 110.07C12.4145 110.092 12.6599 110.174 12.8755 110.311C13.1098 110.437 13.3208 110.516 13.3802 111.084Z" fill="white"/>
</g>
<g style="mix-blend-mode:soft-light" opacity="0.36">
<path fill-rule="evenodd" clip-rule="evenodd" d="M14.7047 112.526C14.5114 112.542 14.3228 112.595 14.1495 112.683C14.1563 112.771 14.0454 112.82 14.0839 112.921C14.136 113.067 14.3787 113.021 14.4917 113.015C14.6385 113.007 14.7771 112.944 14.8808 112.84C14.9167 112.802 15.0761 112.631 14.9479 112.62L14.7047 112.526Z" fill="white"/>
</g>
<g style="mix-blend-mode:soft-light" opacity="0.36">
<path fill-rule="evenodd" clip-rule="evenodd" d="M32.3245 123.704C32.4484 123.927 32.5849 124.17 32.3766 124.414C32.2633 124.507 32.1247 124.564 31.9786 124.577C31.8326 124.59 31.686 124.559 31.558 124.488C31.4289 124.43 31.2809 124.367 31.2606 124.22C31.2403 124.073 31.2643 123.904 31.2606 123.751C31.2486 123.387 30.8794 123.131 31.2085 122.778C31.2896 122.698 31.3869 122.636 31.4941 122.597C31.6012 122.558 31.7155 122.542 31.8292 122.551C32.1979 122.619 32.3859 123.002 32.5182 123.315L32.3245 123.704Z" fill="white"/>
</g>
<g style="mix-blend-mode:soft-light" opacity="0.36">
<path fill-rule="evenodd" clip-rule="evenodd" d="M61.8482 136.85C62.2597 136.939 62.6383 137.141 62.9418 137.432L62.9304 137.595C62.9875 137.729 63.0157 137.875 63.0131 138.021C63.0105 138.167 62.9772 138.311 62.9153 138.443C62.4899 139.276 61.627 139.183 60.8428 139.187C60.0039 139.193 58.9364 139.296 59.3103 138.13C59.481 137.597 59.7164 136.724 60.2048 136.391C60.4652 136.212 60.5969 136.293 60.851 136.384C61.2102 136.476 61.5488 136.635 61.8493 136.852L61.8482 136.85Z" fill="white"/>
</g>
<g style="mix-blend-mode:soft-light" opacity="0.36">
<path fill-rule="evenodd" clip-rule="evenodd" d="M52.2584 138.254C52.1277 138.027 51.933 137.59 51.6049 137.556C51.3383 137.528 51.2472 137.685 51.0545 137.826C50.6322 138.135 50.2328 138.537 50.6593 139.078C50.7812 139.205 50.9312 139.301 51.0971 139.36C51.2631 139.418 51.4404 139.437 51.6148 139.414C51.8924 139.362 52.3569 139.018 52.2626 138.689L52.2584 138.254Z" fill="white"/>
</g>
<g style="mix-blend-mode:soft-light" opacity="0.36">
<path fill-rule="evenodd" clip-rule="evenodd" d="M11.3786 65.3143C11.6942 65.9479 11.7233 65.9859 11.5495 66.631C11.4761 67.1429 11.2776 67.6288 10.9715 68.0457C10.4956 68.5507 9.83592 68.4357 9.23139 68.5711C9.03974 68.6481 8.83097 68.6725 8.62672 68.6418C8.42247 68.611 8.23011 68.5262 8.06965 68.3962C7.64527 68.055 7.28747 67.6384 7.01414 67.1675C6.62436 66.3924 6.4074 65.542 6.37824 64.6749C6.34908 63.8078 6.50843 62.9448 6.84527 62.1453C7.26649 61.1716 7.89908 60.0558 8.99412 59.7361C9.45047 59.5921 9.93745 59.575 10.4028 59.6866C10.8681 59.7982 11.2943 60.0343 11.6357 60.3697C11.9489 60.7326 12.1716 61.1646 12.2855 61.6303C12.3993 62.0959 12.4012 62.5819 12.2909 63.0484C12.2305 63.2686 12.1716 63.4884 12.1144 63.7091C12.0821 63.9934 12.0784 64.2801 12.1035 64.5651C12.0811 64.8691 11.9129 65.1461 11.3786 65.3143Z" fill="white"/>
</g>
<g style="mix-blend-mode:soft-light" opacity="0.36">
<path fill-rule="evenodd" clip-rule="evenodd" d="M13.1485 67.7715C12.5445 68.2618 12.6325 68.1796 12.5471 68.7948C12.5096 69.0654 12.4013 69.1258 12.4633 69.3808C12.5319 69.553 12.6505 69.7008 12.8038 69.8052C12.9571 69.9095 13.1381 69.9656 13.3236 69.9663C13.5839 69.9402 13.9754 69.4458 14.079 69.2496C14.1453 69.1317 14.1756 68.997 14.1664 68.8621C14.1571 68.7272 14.1087 68.598 14.0269 68.4902L13.1485 67.7715Z" fill="white"/>
</g>
<g style="mix-blend-mode:soft-light" opacity="0.36">
<path fill-rule="evenodd" clip-rule="evenodd" d="M74.4043 67.0249C74.5392 67.5538 74.7168 68.179 74.1378 68.5448C73.7415 68.7939 73.1255 68.5511 72.774 68.2843C72.1968 67.7674 71.7992 67.0799 71.6388 66.3216C71.544 65.6479 72.3459 64.9231 72.9645 64.8402C74.2189 64.6719 74.9099 66.6601 74.9922 67.6017L74.4043 67.0249Z" fill="white"/>
</g>
<g style="mix-blend-mode:soft-light" opacity="0.36">
<path fill-rule="evenodd" clip-rule="evenodd" d="M75.3343 72.8355C75.4041 72.6855 75.7024 72.254 75.6499 72.0674C75.6249 71.9799 75.5217 71.9632 75.4796 71.8975C75.4199 71.7694 75.3324 71.6562 75.2237 71.5661C75.1149 71.476 74.9874 71.4112 74.8505 71.3764C74.5719 71.3154 74.281 71.3489 74.0235 71.4716C73.7659 71.5942 73.5565 71.7991 73.428 72.0539C73.3203 72.2079 73.2713 72.3953 73.2898 72.5823C73.3084 72.7693 73.3933 72.9435 73.5291 73.0732C73.7071 73.2562 73.9483 73.3642 74.2033 73.375C74.4582 73.3859 74.7077 73.2988 74.9006 73.1316L75.3343 72.8355Z" fill="white"/>
</g>
<g style="mix-blend-mode:soft-light" opacity="0.36">
<path fill-rule="evenodd" clip-rule="evenodd" d="M20.2703 140.897C20.648 141.799 20.7227 142.799 20.4834 143.747C20.3693 144.367 20.2902 145.185 19.6305 145.466C18.0835 146.126 16.8545 142.8 16.5494 141.737C16.2802 140.814 16.2102 139.844 16.3441 138.892C16.4362 138.333 16.8647 137.215 17.4052 136.924C18.104 136.549 18.9017 136.992 19.335 137.543C20.3332 138.814 20.0964 140.459 20.5713 141.912L20.2703 140.897Z" fill="white"/>
</g>
<g style="mix-blend-mode:soft-light" opacity="0.36">
<path fill-rule="evenodd" clip-rule="evenodd" d="M21.0689 140.672C21.4501 140.694 21.826 140.773 22.1842 140.906C22.3581 141.019 22.6325 141.19 22.683 141.395C22.6973 141.538 22.6754 141.681 22.6196 141.813C22.5637 141.945 22.4756 142.061 22.3633 142.15C22.2937 142.223 22.2068 142.277 22.1106 142.308C22.0145 142.339 21.9121 142.345 21.813 142.325C21.6719 142.273 21.5526 142.074 21.4636 141.957C21.3074 141.737 21.1769 141.499 21.0746 141.25C21.0097 141.137 20.9585 141.017 20.922 140.892C20.8825 140.689 21.0168 140.617 21.0668 140.454L21.0689 140.672Z" fill="white"/>
</g>
<g style="mix-blend-mode:soft-light" opacity="0.36">
<path fill-rule="evenodd" clip-rule="evenodd" d="M22.0212 148.809C21.8476 148.892 21.674 148.975 21.5004 149.059C21.5374 149.263 21.4619 149.505 21.6645 149.637C21.8739 149.722 22.106 149.734 22.3227 149.669C22.4296 149.637 22.523 149.571 22.5882 149.48C22.6534 149.389 22.6867 149.279 22.6831 149.167C22.6695 148.89 22.4227 148.779 22.168 148.734L22.0212 148.809Z" fill="white"/>
</g>
<g style="mix-blend-mode:soft-light" opacity="0.36">
<path fill-rule="evenodd" clip-rule="evenodd" d="M46.283 159.558C46.3409 159.663 46.3635 159.784 46.3476 159.902C46.3316 160.021 46.278 160.132 46.1946 160.217C46.0645 160.367 45.8827 160.463 45.6854 160.484C45.4881 160.506 45.2899 160.453 45.1302 160.335C44.8568 160.132 44.6368 159.867 44.489 159.56C44.3413 159.254 44.2701 158.916 44.2818 158.576C44.3604 158.188 44.8546 157.734 45.2483 157.963C45.474 158.082 45.6839 158.228 45.8732 158.399C46.1257 158.706 46.2692 159.088 46.2815 159.485L46.283 159.558Z" fill="white"/>
</g>
<g style="mix-blend-mode:soft-light" opacity="0.36">
<path fill-rule="evenodd" clip-rule="evenodd" d="M25.741 31.2675C25.9238 31.4357 26.017 31.4898 26.0638 31.7235C26.143 31.9777 26.1183 32.2528 25.9951 32.4888C25.5916 32.9715 25.034 33.3004 24.4163 33.4202C24.1997 33.4848 23.9709 33.4976 23.7484 33.4577C23.526 33.4177 23.3159 33.3261 23.1353 33.1902C22.9126 33.047 22.723 32.8578 22.5793 32.6354C22.4356 32.4131 22.3411 32.1625 22.3021 31.9007C22.2352 31.6469 22.2494 31.3786 22.3428 31.1333C22.4362 30.888 22.604 30.6781 22.8228 30.533C23.2468 30.2022 23.7361 29.965 24.2584 29.837C24.4595 29.7983 24.667 29.8086 24.8633 29.8672C25.0595 29.9257 25.2388 30.0307 25.3858 30.1732C25.6993 30.432 26.1107 30.8984 25.741 31.2675Z" fill="white"/>
</g>
<g style="mix-blend-mode:soft-light" opacity="0.36">
<path fill-rule="evenodd" clip-rule="evenodd" d="M21.6852 33.1297C21.6726 32.979 21.7034 32.8019 21.5336 32.7608C21.397 32.7592 21.2614 32.785 21.135 32.8366C21.0085 32.8882 20.8937 32.9645 20.7973 33.0612C20.66 33.2218 20.586 33.4268 20.589 33.6379C20.6339 33.7767 20.7287 33.8941 20.8551 33.9673C20.9374 34.0333 21.0381 34.0725 21.1434 34.0794C21.2488 34.0864 21.3538 34.0608 21.4441 34.0063C21.5722 33.9257 21.8877 33.7558 21.8336 33.5641L21.6852 33.1297Z" fill="white"/>
</g>
<g style="mix-blend-mode:soft-light" opacity="0.36">
<path fill-rule="evenodd" clip-rule="evenodd" d="M33.9357 13.7263C33.9669 13.9538 33.918 14.1851 33.7972 14.3805C33.5795 14.7326 33.2856 15.0314 32.9371 15.2549C32.4919 15.572 31.9564 15.7374 31.4099 15.7265C31.211 15.685 31.0287 15.5863 30.8853 15.4425C30.7419 15.2987 30.6437 15.1161 30.6028 14.9172C30.5495 14.4249 30.6702 13.9295 30.9438 13.5167C31.1974 13.1551 31.5346 12.8601 31.9268 12.6567C32.319 12.4534 32.7545 12.3477 33.1963 12.3487C34.1924 12.4225 34.2429 13.9022 33.9357 13.7263Z" fill="white"/>
</g>
<g style="mix-blend-mode:soft-light" opacity="0.36">
<path fill-rule="evenodd" clip-rule="evenodd" d="M29.678 17.2608C29.785 17.1631 29.8614 17.0363 29.8977 16.8959C29.7524 16.8318 29.7045 16.6696 29.5478 16.6138C29.4678 16.592 29.3842 16.5863 29.3019 16.5972C29.2197 16.608 29.1404 16.6351 29.0688 16.6769C28.9712 16.7251 28.8883 16.7986 28.8288 16.8897C28.7692 16.9809 28.7352 17.0864 28.7303 17.1952C28.7199 17.4522 28.8178 17.5038 29.0271 17.6122C29.1787 17.6894 29.2109 17.7222 29.3744 17.6326C29.4835 17.5674 29.5857 17.4914 29.6796 17.4058L29.678 17.2608Z" fill="white"/>
</g>
</g>
<path fill-rule="evenodd" clip-rule="evenodd" d="M63.2225 131.086C63.2304 131.891 63.7089 132.538 64.2916 132.533C64.8742 132.527 65.3402 131.87 65.3329 131.065C65.3255 130.26 64.8465 129.612 64.2638 129.618C63.6812 129.624 63.2152 130.281 63.2225 131.086Z" fill="url(#paint26_linear_114_2259)"/>
<path fill-rule="evenodd" clip-rule="evenodd" d="M63.447 131.084C63.4533 131.718 63.8298 132.229 64.2886 132.223C64.7474 132.217 65.1144 131.703 65.1082 131.068C65.1019 130.433 64.7249 129.923 64.2661 129.929C63.8073 129.936 63.4408 130.451 63.447 131.084Z" fill="white"/>
<path fill-rule="evenodd" clip-rule="evenodd" d="M21.1111 128.471C21.1629 128.69 21.2753 128.89 21.4356 129.047C21.5958 129.205 21.7973 129.314 22.0168 129.362C22.2363 129.411 22.465 129.396 22.6765 129.32C22.8879 129.243 23.0736 129.109 23.2122 128.932C23.3507 128.755 23.4364 128.542 23.4596 128.319C23.4827 128.095 23.4422 127.869 23.3428 127.668C23.2434 127.466 23.0891 127.296 22.8977 127.178C22.7062 127.061 22.4855 126.999 22.2608 127.002C21.9154 127.048 21.602 127.228 21.3872 127.502C21.1724 127.777 21.0733 128.124 21.1111 128.471V128.471Z" fill="url(#paint27_linear_114_2259)"/>
<path fill-rule="evenodd" clip-rule="evenodd" d="M21.3587 128.467C21.3999 128.639 21.4886 128.795 21.6146 128.918C21.7406 129.041 21.8987 129.126 22.0709 129.164C22.2431 129.201 22.4223 129.189 22.5881 129.129C22.7538 129.07 22.8994 128.964 23.008 128.826C23.1166 128.687 23.1839 128.521 23.2022 128.345C23.2205 128.17 23.189 127.994 23.1113 127.835C23.0337 127.677 22.913 127.544 22.7632 127.452C22.6133 127.359 22.4404 127.31 22.2642 127.312C21.9922 127.348 21.7452 127.489 21.576 127.705C21.4068 127.921 21.3288 128.195 21.3587 128.467Z" fill="white"/>
<path fill-rule="evenodd" clip-rule="evenodd" d="M40.7841 128.048C40.7868 128.336 40.8749 128.617 41.0375 128.856C41.2 129.094 41.4295 129.279 41.697 129.386C41.9645 129.494 42.258 129.52 42.5404 129.461C42.8227 129.402 43.0812 129.261 43.2831 129.055C43.485 128.849 43.6213 128.588 43.6748 128.304C43.7282 128.021 43.6964 127.728 43.5833 127.463C43.4703 127.197 43.281 126.971 43.0396 126.814C42.7982 126.656 42.5153 126.573 42.2269 126.576C41.8405 126.58 41.4715 126.738 41.2009 127.013C40.9304 127.289 40.7804 127.661 40.7841 128.048V128.048Z" fill="url(#paint28_linear_114_2259)"/>
<path fill-rule="evenodd" clip-rule="evenodd" d="M41.0939 128.045C41.0964 128.272 41.1661 128.492 41.2939 128.679C41.4218 128.866 41.6021 129.01 41.8122 129.095C42.0223 129.179 42.2526 129.199 42.4742 129.153C42.6958 129.106 42.8987 128.995 43.0572 128.834C43.2157 128.672 43.3228 128.467 43.3649 128.245C43.407 128.023 43.3822 127.793 43.2937 127.585C43.2051 127.376 43.0569 127.199 42.8676 127.075C42.6782 126.951 42.4564 126.885 42.23 126.887C42.0792 126.889 41.9302 126.919 41.7914 126.978C41.6527 127.037 41.5269 127.123 41.4214 127.231C41.3158 127.338 41.2326 127.466 41.1764 127.605C41.1202 127.745 41.0921 127.895 41.0939 128.045Z" fill="white"/>
<path style="mix-blend-mode:screen" d="M0.433278 50.6259C-0.0377982 51.8784 -0.126915 53.2425 0.177239 54.5457C0.481393 55.8489 1.16515 57.0326 2.14202 57.9471C3.11889 58.8617 4.34498 59.4661 5.66531 59.6838C6.98564 59.9015 8.34087 59.7228 9.55964 59.1702C10.7784 58.6177 11.806 57.7162 12.5124 56.5797C13.2188 55.4431 13.5724 54.1226 13.5283 52.7852C13.4843 51.4477 13.0446 50.1533 12.265 49.0657C11.4854 47.9781 10.4007 47.1461 9.14828 46.675C8.31663 46.3621 7.43152 46.2161 6.54346 46.2454C5.65539 46.2746 4.78179 46.4785 3.97252 46.8454C3.16325 47.2122 2.43417 47.735 1.8269 48.3836C1.21964 49.0323 0.746077 49.7942 0.433278 50.6259V50.6259Z" fill="url(#paint29_radial_114_2259)"/>
<path style="mix-blend-mode:screen" d="M36.0913 4.38408C35.6201 5.63677 35.5309 7.00107 35.835 8.30445C36.1391 9.60784 36.8229 10.7918 37.7998 11.7065C38.7768 12.6213 40.0031 13.2257 41.3236 13.4435C42.644 13.6613 43.9994 13.4825 45.2184 12.9299C46.4373 12.3773 47.4649 11.4756 48.1714 10.3389C48.8779 9.2022 49.2315 7.88151 49.1874 6.54383C49.1433 5.20616 48.7035 3.9116 47.9238 2.82387C47.144 1.73615 46.0591 0.904101 44.8064 0.432961C43.9748 0.120019 43.0897 -0.0260275 42.2016 0.0031786C41.3135 0.0323847 40.4398 0.236275 39.6305 0.603181C38.8212 0.970087 38.0921 1.49284 37.4848 2.14157C36.8776 2.7903 36.4041 3.55231 36.0913 4.38408V4.38408Z" fill="url(#paint30_radial_114_2259)"/>
<path style="mix-blend-mode:screen" d="M74.6078 50.5693C74.3643 51.2165 74.3183 51.9215 74.4754 52.595C74.6326 53.2684 74.986 53.8802 75.4909 54.3528C75.9957 54.8254 76.6294 55.1378 77.3118 55.2503C77.9942 55.3628 78.6946 55.2704 79.3245 54.9849C79.9544 54.6993 80.4855 54.2334 80.8506 53.6461C81.2156 53.0587 81.3983 52.3763 81.3755 51.6851C81.3528 50.9939 81.1255 50.325 80.7226 49.763C80.3196 49.2009 79.759 48.771 79.1117 48.5275C78.2437 48.2011 77.2815 48.2328 76.4369 48.6157C75.5922 48.9986 74.9343 49.7013 74.6078 50.5693V50.5693Z" fill="url(#paint31_radial_114_2259)"/>
<path style="mix-blend-mode:screen" d="M19.8942 127.302C19.6667 127.906 19.6237 128.565 19.7706 129.194C19.9176 129.824 20.2479 130.395 20.7197 130.837C21.1916 131.278 21.7839 131.57 22.4216 131.675C23.0594 131.78 23.714 131.694 24.3027 131.427C24.8913 131.16 25.3876 130.725 25.7289 130.176C26.0701 129.628 26.2408 128.99 26.2195 128.344C26.1983 127.698 25.9859 127.073 25.6093 126.548C25.2327 126.023 24.7088 125.621 24.1038 125.394C23.7021 125.243 23.2746 125.172 22.8456 125.186C22.4166 125.2 21.9947 125.299 21.6038 125.476C21.2129 125.653 20.8607 125.906 20.5673 126.219C20.274 126.532 20.0453 126.9 19.8942 127.302V127.302Z" fill="url(#paint32_radial_114_2259)"/>
<path style="mix-blend-mode:screen" d="M61.8966 129.918C61.669 130.523 61.6259 131.182 61.7727 131.811C61.9196 132.441 62.2498 133.013 62.7216 133.455C63.1934 133.897 63.7857 134.189 64.4234 134.294C65.0612 134.399 65.7158 134.313 66.3045 134.046C66.8933 133.779 67.3896 133.344 67.7309 132.795C68.0722 132.246 68.243 131.608 68.2218 130.962C68.2005 130.315 67.9882 129.69 67.6116 129.165C67.2351 128.639 66.7112 128.237 66.1062 128.01C65.295 127.704 64.3957 127.734 63.6063 128.092C62.8168 128.45 62.2018 129.107 61.8966 129.918Z" fill="url(#paint33_radial_114_2259)"/>
<path style="mix-blend-mode:screen" d="M22.4511 176.343C22.3783 168.795 31.3055 162.589 42.3906 162.482C53.4758 162.375 62.5212 168.408 62.594 175.956C62.6669 183.504 53.7397 189.71 42.6545 189.817C31.5694 189.924 22.524 183.891 22.4511 176.343Z" fill="url(#paint34_radial_114_2259)"/>
<defs>
<linearGradient id="paint0_linear_114_2259" x1="178.446" y1="-167.674" x2="178.446" y2="-215.494" gradientUnits="userSpaceOnUse">
<stop stop-color="#A43440"/>
<stop offset="1" stop-color="#C73634"/>
</linearGradient>
<linearGradient id="paint1_linear_114_2259" x1="243.334" y1="-167.66" x2="243.334" y2="-215.498" gradientUnits="userSpaceOnUse">
<stop stop-color="#A43440"/>
<stop offset="1" stop-color="#C73634"/>
</linearGradient>
<radialGradient id="paint2_radial_114_2259" cx="0" cy="0" r="1" gradientUnits="userSpaceOnUse" gradientTransform="translate(-29.7989 88.0005) rotate(89.1907) scale(92.18 168.533)">
<stop stop-color="#F4BAB3"/>
<stop offset="0.765" stop-color="#8D6FC7"/>
<stop offset="0.964" stop-color="#B695E5"/>
</radialGradient>
<radialGradient id="paint3_radial_114_2259" cx="0" cy="0" r="1" gradientUnits="userSpaceOnUse" gradientTransform="translate(341.416 -2.36357) rotate(178.62) scale(14.4332 13.0919)">
<stop offset="0.022" stop-color="#AB5E75"/>
<stop offset="0.252" stop-color="#9E577B"/>
<stop offset="0.668" stop-color="#7E448C"/>
<stop offset="0.994" stop-color="#61349C"/>
</radialGradient>
<linearGradient id="paint4_linear_114_2259" x1="211.123" y1="-343.75" x2="211.123" y2="-349.72" gradientUnits="userSpaceOnUse">
<stop stop-color="#FFFF18"/>
<stop offset="1" stop-color="#FF7400"/>
</linearGradient>
<radialGradient id="paint5_radial_114_2259" cx="0" cy="0" r="1" gradientUnits="userSpaceOnUse" gradientTransform="translate(211.613 401.246) rotate(179.154) scale(25.4874 46.9282)">
<stop offset="0.022" stop-color="#8881BC"/>
<stop offset="0.287" stop-color="#8274B7"/>
<stop offset="0.766" stop-color="#7454AA"/>
<stop offset="0.994" stop-color="#6D43A3"/>
</radialGradient>
<radialGradient id="paint6_radial_114_2259" cx="0" cy="0" r="1" gradientUnits="userSpaceOnUse" gradientTransform="translate(4.40924 66.3859) rotate(179.469) scale(27.1054 27.1063)">
<stop offset="0.022" stop-color="#8881BC"/>
<stop offset="0.287" stop-color="#8274B7"/>
<stop offset="0.766" stop-color="#7454AA"/>
<stop offset="0.994" stop-color="#6D43A3"/>
</radialGradient>
<radialGradient id="paint7_radial_114_2259" cx="0" cy="0" r="1" gradientUnits="userSpaceOnUse" gradientTransform="translate(6.15768 179.458) rotate(179.469) scale(33.6283 56.4959)">
<stop offset="0.022" stop-color="#725EB0"/>
<stop offset="0.383" stop-color="#6D51AA"/>
<stop offset="0.994" stop-color="#61349C"/>
</radialGradient>
<linearGradient id="paint8_linear_114_2259" x1="99.8064" y1="85.7675" x2="103.636" y2="36.6824" gradientUnits="userSpaceOnUse">
<stop stop-color="#FFFF29"/>
<stop offset="1" stop-color="#FF7E59"/>
</linearGradient>
<radialGradient id="paint9_radial_114_2259" cx="0" cy="0" r="1" gradientUnits="userSpaceOnUse" gradientTransform="translate(427.024 559.623) rotate(177.728) scale(10.0326 18.409)">
<stop offset="0.022" stop-color="#725EB0"/>
<stop offset="0.383" stop-color="#6D51AA"/>
<stop offset="0.994" stop-color="#61349C"/>
</radialGradient>
<radialGradient id="paint10_radial_114_2259" cx="0" cy="0" r="1" gradientUnits="userSpaceOnUse" gradientTransform="translate(456.917 31.2491) rotate(176.955) scale(18.4491 18.4192)">
<stop offset="0.022" stop-color="#8881BC"/>
<stop offset="0.287" stop-color="#8274B7"/>
<stop offset="0.766" stop-color="#7454AA"/>
<stop offset="0.994" stop-color="#6D43A3"/>
</radialGradient>
<linearGradient id="paint11_linear_114_2259" x1="212.231" y1="-237.287" x2="212.231" y2="-239.809" gradientUnits="userSpaceOnUse">
<stop stop-color="#8DC7FF"/>
<stop offset="0.316" stop-color="#5C4D86"/>
</linearGradient>
<radialGradient id="paint12_radial_114_2259" cx="0" cy="0" r="1" gradientUnits="userSpaceOnUse" gradientTransform="translate(47.8636 118.74) rotate(179.425) scale(0.993057 0.992446)">
<stop offset="0.022" stop-color="#8881BC"/>
<stop offset="0.288" stop-color="#8274B7"/>
<stop offset="0.77" stop-color="#7454AA"/>
<stop offset="1" stop-color="#6D43A3"/>
</radialGradient>
<linearGradient id="paint13_linear_114_2259" x1="212.23" y1="-243.57" x2="212.23" y2="-246.093" gradientUnits="userSpaceOnUse">
<stop stop-color="#8DC7FF"/>
<stop offset="0.316" stop-color="#5C4D86"/>
</linearGradient>
<radialGradient id="paint14_radial_114_2259" cx="0" cy="0" r="1" gradientUnits="userSpaceOnUse" gradientTransform="translate(47.7611 112.522) rotate(179.425) scale(0.993057 0.99269)">
<stop offset="0.022" stop-color="#8881BC"/>
<stop offset="0.288" stop-color="#8274B7"/>
<stop offset="0.77" stop-color="#7454AA"/>
<stop offset="1" stop-color="#6D43A3"/>
</radialGradient>
<radialGradient id="paint15_radial_114_2259" cx="0" cy="0" r="1" gradientUnits="userSpaceOnUse" gradientTransform="translate(67.6826 69.719) rotate(179.425) scale(0.993118 0.993667)">
<stop stop-color="#F4BAB3"/>
<stop offset="1" stop-color="#8D6FC7"/>
</radialGradient>
<radialGradient id="paint16_radial_114_2259" cx="0" cy="0" r="1" gradientUnits="userSpaceOnUse" gradientTransform="translate(65.1048 51.9125) rotate(179.425) scale(0.993057 0.992934)">
<stop stop-color="#F4BAB3"/>
<stop offset="1" stop-color="#8D6FC7"/>
</radialGradient>
<radialGradient id="paint17_radial_114_2259" cx="0" cy="0" r="1" gradientUnits="userSpaceOnUse" gradientTransform="translate(56.1483 84.0466) rotate(179.425) scale(0.992996 0.993667)">
<stop stop-color="#F4BAB3"/>
<stop offset="1" stop-color="#8D6FC7"/>
</radialGradient>
<radialGradient id="paint18_radial_114_2259" cx="0" cy="0" r="1" gradientUnits="userSpaceOnUse" gradientTransform="translate(36.6411 85.9439) rotate(179.425) scale(0.993057 0.992446)">
<stop stop-color="#F4BAB3"/>
<stop offset="1" stop-color="#8D6FC7"/>
</radialGradient>
<radialGradient id="paint19_radial_114_2259" cx="0" cy="0" r="1" gradientUnits="userSpaceOnUse" gradientTransform="translate(23.1863 74.4442) rotate(179.425) scale(0.993057 0.993667)">
<stop stop-color="#F4BAB3"/>
<stop offset="1" stop-color="#8D6FC7"/>
</radialGradient>
<radialGradient id="paint20_radial_114_2259" cx="0" cy="0" r="1" gradientUnits="userSpaceOnUse" gradientTransform="translate(24.7676 52.0538) rotate(179.425) scale(0.993057 0.992446)">
<stop stop-color="#F4BAB3"/>
<stop offset="1" stop-color="#8D6FC7"/>
</radialGradient>
<radialGradient id="paint21_radial_114_2259" cx="0" cy="0" r="1" gradientUnits="userSpaceOnUse" gradientTransform="translate(34.4746 40.3351) rotate(179.425) scale(0.993057 0.992446)">
<stop stop-color="#F4BAB3"/>
<stop offset="1" stop-color="#8D6FC7"/>
</radialGradient>
<radialGradient id="paint22_radial_114_2259" cx="0" cy="0" r="1" gradientUnits="userSpaceOnUse" gradientTransform="translate(51.1697 38.1978) rotate(179.425) scale(0.993057 0.992446)">
<stop stop-color="#F4BAB3"/>
<stop offset="1" stop-color="#8D6FC7"/>
</radialGradient>
<linearGradient id="paint23_linear_114_2259" x1="201.49" y1="-167.639" x2="201.49" y2="-220.804" gradientUnits="userSpaceOnUse">
<stop stop-color="#A43411"/>
<stop offset="1" stop-color="#C73634"/>
</linearGradient>
<linearGradient id="paint24_linear_114_2259" x1="176.505" y1="-298.821" x2="173.351" y2="-298.821" gradientUnits="userSpaceOnUse">
<stop stop-color="#FFFF18"/>
<stop offset="1" stop-color="#FF7400"/>
</linearGradient>
<linearGradient id="paint25_linear_114_2259" x1="247.782" y1="-299.56" x2="244.821" y2="-299.56" gradientUnits="userSpaceOnUse">
<stop stop-color="#FFFF18"/>
<stop offset="1" stop-color="#FF7400"/>
</linearGradient>
<linearGradient id="paint26_linear_114_2259" x1="231.984" y1="-219.551" x2="231.984" y2="-222.469" gradientUnits="userSpaceOnUse">
<stop stop-color="#8DC7FF"/>
<stop offset="0.316" stop-color="#5C4D86"/>
</linearGradient>
<linearGradient id="paint27_linear_114_2259" x1="192.427" y1="-159.458" x2="192.427" y2="-161.847" gradientUnits="userSpaceOnUse">
<stop stop-color="#8DC7FF"/>
<stop offset="0.316" stop-color="#5C4D86"/>
</linearGradient>
<linearGradient id="paint28_linear_114_2259" x1="209.96" y1="-222.916" x2="209.96" y2="-225.832" gradientUnits="userSpaceOnUse">
<stop stop-color="#8DC7FF"/>
<stop offset="0.316" stop-color="#5C4D86"/>
</linearGradient>
<radialGradient id="paint29_radial_114_2259" cx="0" cy="0" r="1" gradientUnits="userSpaceOnUse" gradientTransform="translate(-40.0946 -152.262) rotate(-159.384) scale(6.76594 6.76608)">
<stop stop-color="#FF9A00"/>
<stop offset="0.091" stop-color="#D58100"/>
<stop offset="0.227" stop-color="#9D5F00"/>
<stop offset="0.365" stop-color="#6D4200"/>
<stop offset="0.5" stop-color="#462A00"/>
<stop offset="0.633" stop-color="#271700"/>
<stop offset="0.762" stop-color="#110A00"/>
<stop offset="0.886" stop-color="#040200"/>
<stop offset="1"/>
</radialGradient>
<radialGradient id="paint30_radial_114_2259" cx="0" cy="0" r="1" gradientUnits="userSpaceOnUse" gradientTransform="translate(9.61403 -182.649) rotate(-159.383) scale(6.76658 6.76703)">
<stop stop-color="#FF9A00"/>
<stop offset="0.091" stop-color="#D58100"/>
<stop offset="0.227" stop-color="#9D5F00"/>
<stop offset="0.365" stop-color="#6D4200"/>
<stop offset="0.5" stop-color="#462A00"/>
<stop offset="0.633" stop-color="#271700"/>
<stop offset="0.762" stop-color="#110A00"/>
<stop offset="0.886" stop-color="#040200"/>
<stop offset="1"/>
</radialGradient>
<radialGradient id="paint31_radial_114_2259" cx="0" cy="0" r="1" gradientUnits="userSpaceOnUse" gradientTransform="translate(20.6789 -127.651) rotate(-159.391) scale(3.49674 3.4966)">
<stop stop-color="#FF9A00"/>
<stop offset="0.091" stop-color="#D58100"/>
<stop offset="0.227" stop-color="#9D5F00"/>
<stop offset="0.365" stop-color="#6D4200"/>
<stop offset="0.5" stop-color="#462A00"/>
<stop offset="0.633" stop-color="#271700"/>
<stop offset="0.762" stop-color="#110A00"/>
<stop offset="0.886" stop-color="#040200"/>
<stop offset="1"/>
</radialGradient>
<radialGradient id="paint32_radial_114_2259" cx="0" cy="0" r="1" gradientUnits="userSpaceOnUse" gradientTransform="translate(-58.788 -76.2853) rotate(-159.396) scale(3.26799 3.26721)">
<stop stop-color="#003CEE"/>
<stop offset="0.056" stop-color="#0035D5"/>
<stop offset="0.198" stop-color="#00279D"/>
<stop offset="0.341" stop-color="#001B6D"/>
<stop offset="0.481" stop-color="#001146"/>
<stop offset="0.619" stop-color="#000927"/>
<stop offset="0.753" stop-color="#000411"/>
<stop offset="0.882" stop-color="#000104"/>
<stop offset="1"/>
</radialGradient>
<radialGradient id="paint33_radial_114_2259" cx="0" cy="0" r="1" gradientUnits="userSpaceOnUse" gradientTransform="translate(-20.779 -58.7863) rotate(-159.388) scale(3.26817 3.2685)">
<stop stop-color="#003CEE"/>
<stop offset="0.056" stop-color="#0035D5"/>
<stop offset="0.198" stop-color="#00279D"/>
<stop offset="0.341" stop-color="#001B6D"/>
<stop offset="0.481" stop-color="#001146"/>
<stop offset="0.619" stop-color="#000927"/>
<stop offset="0.753" stop-color="#000411"/>
<stop offset="0.882" stop-color="#000104"/>
<stop offset="1"/>
</radialGradient>
<radialGradient id="paint34_radial_114_2259" cx="0" cy="0" r="1" gradientUnits="userSpaceOnUse" gradientTransform="translate(125.739 297.108) rotate(89.4469) scale(13.6529 20.0507)">
<stop stop-color="#2C6AFF"/>
<stop offset="0.091" stop-color="#2458D5"/>
<stop offset="0.227" stop-color="#1B419D"/>
<stop offset="0.365" stop-color="#122D6D"/>
<stop offset="0.5" stop-color="#0C1D46"/>
<stop offset="0.633" stop-color="#061027"/>
<stop offset="0.762" stop-color="#030711"/>
<stop offset="0.886" stop-color="#000104"/>
<stop offset="1"/>
</radialGradient>
</defs>
</svg>
