<svg width="289" height="332" viewBox="0 0 289 332" fill="none" xmlns="http://www.w3.org/2000/svg">
<path fill-rule="evenodd" clip-rule="evenodd" d="M53.7554 70.9505C53.7554 70.9505 91.9432 5.09297 138.662 2.57839C187.142 -0.0322678 229.932 73.5164 229.932 73.5164L53.7554 70.9505Z" fill="url(#paint0_linear_114_1872)"/>
<path fill-rule="evenodd" clip-rule="evenodd" d="M288.506 98.5843C287.769 101.036 234.66 123.829 144.287 123.829C60.8124 123.829 -0.762169 102.375 0.066866 98.5843C0.647922 95.9308 64.6364 86.9819 144.287 86.9819C223.937 86.9819 289.057 96.7506 288.506 98.5843Z" fill="url(#paint1_radial_114_1872)"/>
<path fill-rule="evenodd" clip-rule="evenodd" d="M0.0667725 98.5837C0.0667725 98.5837 41.9761 58.1182 138.662 58.1182C235.348 58.1182 288.506 98.5837 288.506 98.5837C288.506 98.5837 248.839 89.3975 138.662 89.3975C50.6819 89.3975 0.0667725 98.5837 0.0667725 98.5837Z" fill="url(#paint2_radial_114_1872)"/>
<path d="M259.903 109.722L259.294 109.535C259.83 107.796 256.677 106.367 253.937 105.478C235.352 99.4462 176.319 97.3928 129.332 98.027C70.5503 98.8286 29.6742 103.418 27.6163 109.451L27.0123 109.244C29.6559 101.494 81.5968 98.0398 129.324 97.3892C176.357 96.7487 235.48 98.8158 254.137 104.872C258.576 106.314 260.463 107.901 259.903 109.722Z" fill="#3C107B"/>
<path fill-rule="evenodd" clip-rule="evenodd" d="M85.2662 120.279C85.2662 120.279 134.356 113.822 199.922 120.806C199.92 120.806 141.221 127.229 85.2662 120.279Z" fill="#31165F"/>
<path fill-rule="evenodd" clip-rule="evenodd" d="M91.0767 120.805C91.0767 120.805 137.243 114.924 193.896 121.44C193.899 121.44 140.684 127.515 91.0767 120.805Z" fill="#0054B5"/>
<path fill-rule="evenodd" clip-rule="evenodd" d="M101.807 119.646C101.807 119.646 155.08 123.968 181.443 119.875C181.443 119.875 132.953 116.94 101.807 119.646Z" fill="#31C7FF"/>
<path fill-rule="evenodd" clip-rule="evenodd" d="M154.018 108.308C154.018 109.466 149.658 110.405 144.278 110.405C138.897 110.405 134.542 109.466 134.542 108.308C134.548 108.217 134.573 108.128 134.616 108.047C134.659 107.966 134.718 107.895 134.79 107.838C135.773 106.903 139.649 106.208 144.278 106.208C148.304 106.208 151.763 106.734 153.245 107.489C153.742 107.739 154.018 108.019 154.018 108.308Z" fill="url(#paint3_linear_114_1872)"/>
<path fill-rule="evenodd" clip-rule="evenodd" d="M153.25 107.507C153.25 108.498 149.081 109.304 143.94 109.304C139.389 109.304 135.598 108.671 134.79 107.84C135.773 106.905 139.649 106.209 144.278 106.209C148.304 106.209 151.763 106.735 153.245 107.49C153.248 107.495 153.25 107.501 153.25 107.507V107.507Z" fill="white"/>
<path fill-rule="evenodd" clip-rule="evenodd" d="M199.828 109.457C199.828 110.522 197.043 111.389 193.606 111.389C190.769 111.389 188.374 110.797 187.626 109.99H187.622C187.477 109.85 187.391 109.659 187.384 109.457C187.387 109.299 187.444 109.147 187.544 109.024C188.17 108.162 190.645 107.521 193.606 107.521C195.16 107.491 196.709 107.703 198.198 108.15C198.602 108.274 198.985 108.459 199.333 108.699C199.47 108.777 199.586 108.887 199.672 109.019C199.758 109.151 199.811 109.301 199.828 109.457Z" fill="url(#paint4_linear_114_1872)"/>
<path fill-rule="evenodd" clip-rule="evenodd" d="M198.45 108.694C198.45 109.759 195.664 110.622 192.223 110.622C190.667 110.653 189.116 110.439 187.626 109.99H187.622C187.477 109.85 187.391 109.659 187.384 109.457C187.387 109.299 187.444 109.147 187.544 109.024C188.17 108.162 190.645 107.521 193.606 107.521C195.16 107.491 196.709 107.703 198.198 108.15C198.35 108.291 198.441 108.487 198.45 108.694V108.694Z" fill="white"/>
<path fill-rule="evenodd" clip-rule="evenodd" d="M230.445 115.035C230.445 115.716 228.188 116.271 225.402 116.271C223.102 116.271 221.162 115.892 220.553 115.376C220.497 115.337 220.451 115.286 220.418 115.227C220.384 115.168 220.364 115.102 220.359 115.035C220.365 114.93 220.412 114.831 220.489 114.76C220.997 114.211 223.003 113.798 225.402 113.798C226.655 113.779 227.905 113.914 229.124 114.2C229.445 114.277 229.754 114.395 230.044 114.552C230.304 114.7 230.445 114.864 230.445 115.035Z" fill="url(#paint5_linear_114_1872)"/>
<path fill-rule="evenodd" clip-rule="evenodd" d="M229.327 114.547C229.327 115.228 227.069 115.781 224.28 115.781C223.026 115.801 221.775 115.665 220.554 115.376V115.376C220.499 115.337 220.453 115.286 220.419 115.227C220.386 115.168 220.366 115.102 220.361 115.035C220.367 114.93 220.414 114.831 220.491 114.76C220.999 114.211 223.005 113.798 225.404 113.798C226.657 113.779 227.906 113.914 229.126 114.2C229.183 114.24 229.23 114.291 229.265 114.351C229.3 114.411 229.321 114.478 229.327 114.547V114.547Z" fill="white"/>
<path fill-rule="evenodd" clip-rule="evenodd" d="M93.4211 109.306C93.4211 110.371 96.2074 111.238 99.6434 111.238C102.48 111.238 104.876 110.646 105.623 109.838H105.626C105.771 109.698 105.856 109.507 105.864 109.306C105.861 109.147 105.804 108.995 105.704 108.872C105.078 108.01 102.602 107.37 99.6415 107.37C98.0877 107.34 96.5388 107.552 95.0499 107.997C94.6456 108.122 94.2624 108.307 93.9133 108.546C93.7773 108.625 93.6619 108.735 93.5763 108.867C93.4908 108.999 93.4376 109.149 93.4211 109.306V109.306Z" fill="url(#paint6_linear_114_1872)"/>
<path fill-rule="evenodd" clip-rule="evenodd" d="M94.8 108.543C94.8 109.608 97.5863 110.471 101.028 110.471C102.584 110.501 104.134 110.288 105.624 109.839H105.626C105.771 109.698 105.856 109.508 105.864 109.306C105.861 109.147 105.804 108.995 105.704 108.872C105.078 108.01 102.602 107.37 99.6415 107.37C98.0877 107.34 96.5388 107.552 95.0499 107.997C94.8985 108.14 94.8088 108.335 94.8 108.543V108.543Z" fill="white"/>
<path fill-rule="evenodd" clip-rule="evenodd" d="M57.0863 114.789C57.0863 115.471 59.3446 116.026 62.1291 116.026C64.4304 116.026 66.3695 115.647 66.9789 115.13C67.0342 115.091 67.0802 115.04 67.1134 114.981C67.1466 114.922 67.1663 114.856 67.171 114.789C67.1654 114.684 67.1192 114.586 67.042 114.514C66.5342 113.965 64.5284 113.553 62.1282 113.553C60.8762 113.534 59.6266 113.669 58.4076 113.955C58.0869 114.032 57.7774 114.15 57.4871 114.307C57.2281 114.453 57.0863 114.619 57.0863 114.789Z" fill="url(#paint7_linear_114_1872)"/>
<path fill-rule="evenodd" clip-rule="evenodd" d="M58.2036 114.301C58.2036 114.982 60.4619 115.534 63.251 115.534C64.5046 115.554 65.7559 115.418 66.9761 115.13V115.13C67.0314 115.091 67.0774 115.04 67.1106 114.981C67.1438 114.922 67.1636 114.856 67.1683 114.789C67.1628 114.684 67.1165 114.585 67.0393 114.514C66.5315 113.965 64.5257 113.553 62.1255 113.553C60.8735 113.534 59.6239 113.669 58.4049 113.955C58.3481 113.994 58.3005 114.046 58.2657 114.105C58.2309 114.165 58.2098 114.232 58.2036 114.301Z" fill="white"/>
<path d="M265.943 86.0308C203.452 59.3808 140.058 60.5082 97.881 66.1487C52.1698 72.2597 20.8339 84.8375 20.5264 84.9638L20.2858 84.3726C20.5979 84.2454 51.9904 71.6411 97.7776 65.5219C140.038 59.8713 203.565 58.7393 266.193 85.4497L265.943 86.0308Z" fill="#77439F"/>
<path d="M0.134487 98.8955L0 98.2723C0.422753 98.1808 43.4584 89.1655 146.494 89.1655C249.529 89.1655 288.202 98.1826 288.581 98.2742L288.432 98.8946C288.053 98.8031 249.437 89.8034 146.494 89.8034C43.5509 89.8034 0.556325 98.8049 0.134487 98.8955Z" fill="#3C107B"/>
<path d="M32.0331 94.5015L31.5984 94.0357C31.7723 93.8728 49.1674 77.7421 62.216 71.958L62.4741 72.5418C49.5243 78.2811 32.206 94.3413 32.0331 94.5015Z" fill="#77439F"/>
<path d="M261.836 94.9729C241.888 78.5939 212.198 69.3247 211.901 69.2341L212.089 68.6238C212.388 68.7153 242.194 78.0202 262.24 94.4797L261.836 94.9729Z" fill="#77439F"/>
<path d="M162.442 11.574C162.442 11.574 166.227 15.8477 173.587 23.8655L180.559 23.957C180.559 23.957 176.724 17.3959 166.226 11.5776L162.442 11.574Z" fill="white"/>
<path d="M55.2919 68.4277C55.2919 68.4277 97.2341 1.86123 143.206 3.34908C189.178 4.83694 226.763 68.4277 226.763 68.4277C226.763 68.4277 185.521 0.0448658 144.287 2.87439e-05C96.7967 -0.0512136 55.2919 68.4277 55.2919 68.4277Z" fill="white"/>
<path fill-rule="evenodd" clip-rule="evenodd" d="M85.5781 60.8105C85.5781 60.8105 109.983 45.2336 144.553 43.5445C179.123 41.8554 204.131 60.3183 204.131 60.3183C204.131 60.3183 143.367 47.3774 85.5781 60.8105Z" fill="#FF935F"/>
<path d="M63.6793 62.0959C63.6793 62.0959 72.9304 47.9772 84.2587 37.6441L88.2529 36.7153C88.2529 36.7153 76.7086 51.3676 72.729 59.584L63.6793 62.0959Z" fill="white"/>
<path fill-rule="evenodd" clip-rule="evenodd" d="M53.7554 70.9503L55.7439 67.7879C55.7439 67.7879 161.319 36.3105 226.767 68.4284L228.702 71.4819C228.702 71.4819 199.271 59.4803 139.712 59.4803C80.1537 59.4803 53.7554 70.9503 53.7554 70.9503Z" fill="url(#paint8_radial_114_1872)"/>
<g style="mix-blend-mode:soft-light">
<path d="M65.7299 92.611C65.7299 92.611 136.865 85.7289 245.161 93.8691C245.165 93.8691 169.459 88.3349 65.7299 92.611Z" fill="white"/>
</g>
<path fill-rule="evenodd" clip-rule="evenodd" d="M145.309 89.8927C145.393 90.3095 145.346 90.7422 145.174 91.1312C145.002 91.5202 144.715 91.8467 144.35 92.0658C143.986 92.285 143.563 92.3862 143.139 92.3554C142.715 92.3247 142.311 92.1636 141.982 91.8942C141.653 91.6248 141.415 91.2602 141.301 90.8505C141.188 90.4408 141.203 90.0059 141.346 89.6055C141.489 89.2051 141.753 88.8586 142.1 88.6137C142.448 88.3687 142.862 88.2372 143.288 88.2372C143.774 88.1936 144.258 88.3425 144.636 88.652C145.014 88.9616 145.256 89.407 145.309 89.8927Z" fill="url(#paint9_linear_114_1872)"/>
<path fill-rule="evenodd" clip-rule="evenodd" d="M144.882 89.893C144.948 90.2212 144.911 90.5619 144.775 90.8682C144.64 91.1746 144.414 91.4317 144.127 91.6043C143.84 91.7769 143.507 91.8566 143.173 91.8324C142.839 91.8083 142.521 91.6815 142.262 91.4693C142.003 91.2572 141.816 90.9701 141.726 90.6475C141.637 90.3249 141.649 89.9824 141.762 89.6671C141.874 89.3518 142.081 89.079 142.355 88.8862C142.629 88.6933 142.956 88.5898 143.29 88.5899C143.673 88.5555 144.055 88.6727 144.352 88.9163C144.65 89.16 144.84 89.5106 144.882 89.893Z" fill="white"/>
<path style="mix-blend-mode:screen" d="M154.892 86.4143C157.237 91.372 154.231 96.9483 148.177 98.8699C142.124 100.792 135.316 98.3282 132.97 93.3705C130.625 88.4127 133.631 82.8364 139.685 80.9157C145.739 78.995 152.547 81.4565 154.892 86.4143Z" fill="url(#paint10_radial_114_1872)"/>
<path fill-rule="evenodd" clip-rule="evenodd" d="M264.044 94.2689C264.128 94.6857 264.081 95.1182 263.909 95.5071C263.737 95.8961 263.45 96.2225 263.085 96.4417C262.721 96.6608 262.298 96.7619 261.874 96.7312C261.45 96.7005 261.046 96.5394 260.717 96.27C260.388 96.0006 260.15 95.6362 260.036 95.2266C259.923 94.8169 259.938 94.3821 260.081 93.9818C260.224 93.5814 260.488 93.235 260.835 92.9901C261.183 92.7452 261.597 92.6137 262.023 92.6137C262.509 92.57 262.993 92.719 263.371 93.0285C263.749 93.338 263.991 93.7833 264.044 94.2689V94.2689Z" fill="url(#paint11_linear_114_1872)"/>
<path fill-rule="evenodd" clip-rule="evenodd" d="M263.614 94.2688C263.68 94.5972 263.643 94.9379 263.508 95.2444C263.373 95.5508 263.146 95.808 262.859 95.9807C262.572 96.1534 262.239 96.2331 261.905 96.2089C261.571 96.1847 261.253 96.0578 260.994 95.8456C260.735 95.6334 260.548 95.3463 260.458 95.0236C260.369 94.7008 260.381 94.3583 260.494 94.0429C260.606 93.7275 260.814 93.4546 261.087 93.2617C261.361 93.0688 261.688 92.9652 262.023 92.9653C262.406 92.9297 262.788 93.0465 263.086 93.2904C263.383 93.5344 263.573 93.8859 263.614 94.2688Z" fill="white"/>
<path style="mix-blend-mode:screen" d="M273.629 90.792C275.974 95.7505 272.968 101.327 266.914 103.247C260.86 105.168 254.052 102.706 251.707 97.748C249.362 92.7904 252.368 87.2142 258.422 85.2936C264.476 83.373 271.282 85.8344 273.629 90.792Z" fill="url(#paint12_radial_114_1872)"/>
<path fill-rule="evenodd" clip-rule="evenodd" d="M32.4166 94.2687C32.5004 94.6855 32.4532 95.1181 32.2816 95.507C32.1099 95.896 31.8222 96.2224 31.4578 96.4415C31.0934 96.6606 30.6701 96.7617 30.246 96.7309C29.8219 96.7001 29.4177 96.5389 29.0888 96.2695C28.7599 96 28.5224 95.6355 28.4088 95.2258C28.2952 94.8161 28.311 94.3813 28.4541 93.981C28.5973 93.5806 28.8608 93.2344 29.2085 92.9896C29.5561 92.7448 29.971 92.6134 30.3962 92.6136C30.8826 92.5702 31.3665 92.7193 31.7443 93.0287C32.122 93.3382 32.3635 93.7833 32.4166 94.2687V94.2687Z" fill="url(#paint13_linear_114_1872)"/>
<path fill-rule="evenodd" clip-rule="evenodd" d="M31.9865 94.2688C32.0526 94.5972 32.0155 94.938 31.8804 95.2445C31.7453 95.551 31.5187 95.8082 31.2318 95.9808C30.9448 96.1535 30.6115 96.2331 30.2775 96.2089C29.9436 96.1846 29.6253 96.0577 29.3663 95.8454C29.1073 95.6331 28.9202 95.3458 28.8308 95.023C28.7413 94.7002 28.7539 94.3576 28.8666 94.0422C28.9794 93.7268 29.187 93.454 29.4608 93.2612C29.7346 93.0684 30.0613 92.965 30.3961 92.9652C30.7793 92.9298 31.1609 93.0468 31.4585 93.2908C31.7561 93.5347 31.9458 93.886 31.9865 94.2688V94.2688Z" fill="white"/>
<path style="mix-blend-mode:screen" d="M42 90.792C44.3452 95.7505 41.3393 101.327 35.2862 103.247C29.2332 105.168 22.4243 102.706 20.079 97.748C17.7337 92.7904 20.7397 87.2142 26.7928 85.2936C32.8458 83.373 39.651 85.8344 42 90.792Z" fill="url(#paint14_radial_114_1872)"/>
<g style="mix-blend-mode:soft-light">
<g style="mix-blend-mode:soft-light">
<path fill-rule="evenodd" clip-rule="evenodd" d="M137.859 76.3549C138.127 76.5616 138.459 76.6686 138.798 76.6577C139.009 76.6403 139.189 76.5909 139.392 76.5662C139.575 76.5443 139.758 76.5296 139.941 76.5232C140.227 76.5144 140.51 76.4702 140.785 76.3915C140.933 76.3376 140.779 76.2809 140.64 76.2443C140.477 76.1963 140.309 76.1681 140.14 76.1601C139.897 76.1556 139.659 76.1519 139.425 76.1272C139.334 76.1181 139.253 76.0915 139.158 76.0833C139.032 76.0723 138.894 76.0751 138.765 76.0769C138.49 76.0787 137.964 76.1601 137.859 76.3549Z" fill="white"/>
</g>
<g style="mix-blend-mode:soft-light">
<path fill-rule="evenodd" clip-rule="evenodd" d="M141.638 76.8287C141.534 76.8463 141.428 76.8372 141.329 76.8021C141.339 76.6287 142.218 76.5673 142.389 76.7305C142.586 76.9195 141.925 76.9425 141.638 76.8847V76.8287Z" fill="white"/>
</g>
<g style="mix-blend-mode:soft-light">
<path fill-rule="evenodd" clip-rule="evenodd" d="M147.27 80.0308C147.158 79.9392 147.004 79.8641 147.063 79.7634C147.152 79.6584 147.272 79.5849 147.406 79.5537C147.644 79.4864 147.887 79.4429 148.133 79.4236C148.258 79.4008 148.385 79.3922 148.513 79.398C148.907 79.4215 149.279 79.5901 149.557 79.8715C149.65 79.961 149.722 80.0702 149.767 80.1911C149.785 80.2705 149.812 80.3478 149.846 80.4219C149.874 80.486 149.937 80.5446 149.897 80.6105C149.836 80.6724 149.765 80.7225 149.686 80.758C149.378 80.8991 149.041 80.9659 148.702 80.953C148.155 80.9344 147.628 80.742 147.198 80.4035C146.969 80.2286 146.688 79.9456 147.27 80.0308Z" fill="white"/>
</g>
<g style="mix-blend-mode:soft-light">
<path fill-rule="evenodd" clip-rule="evenodd" d="M146.346 79.1961C146.542 79.2218 146.601 79.2438 146.712 79.1824C146.727 79.1774 146.74 79.1685 146.751 79.1566C146.762 79.1447 146.769 79.1301 146.773 79.1145C146.776 79.0988 146.775 79.0825 146.77 79.0673C146.765 79.0521 146.757 79.0384 146.745 79.0276C146.646 78.9581 146.535 78.9096 146.417 78.8853C146.299 78.8611 146.177 78.8615 146.059 78.8865C145.936 78.9223 145.714 79.0047 145.7 79.0633C145.67 79.1769 146.089 79.3207 146.349 79.3069L146.346 79.1961Z" fill="white"/>
</g>
<g style="mix-blend-mode:soft-light">
<path fill-rule="evenodd" clip-rule="evenodd" d="M153.01 75.7153C153.113 75.7268 153.217 75.7313 153.32 75.729L154.115 75.729C154.615 75.729 155.113 75.7564 155.613 75.7573C155.979 75.7573 156.336 75.7335 156.693 75.7125C156.876 75.7015 157.071 75.6869 157.25 75.6704C157.237 75.6531 157.147 75.6503 157.105 75.643C156.967 75.6192 156.813 75.6046 156.681 75.5762C156.383 75.5122 156.071 75.4491 155.762 75.3933C155.703 75.3868 155.644 75.377 155.586 75.364C155.522 75.3457 155.459 75.3174 155.398 75.2963C155.279 75.2558 155.157 75.2252 155.032 75.2049C154.693 75.1612 154.35 75.1462 154.007 75.16C153.892 75.16 153.784 75.1738 153.668 75.1747C153.552 75.1756 153.426 75.1747 153.302 75.1838C153.055 75.2015 152.81 75.2401 152.57 75.2991C152.305 75.3594 151.838 75.428 151.766 75.5607C151.73 75.6256 151.914 75.6521 152.049 75.6595C152.22 75.6723 152.394 75.6723 152.565 75.6814C152.794 75.6924 153.066 75.7235 153.01 75.7153Z" fill="white"/>
</g>
<g style="mix-blend-mode:soft-light">
<path fill-rule="evenodd" clip-rule="evenodd" d="M150.657 75.5757C150.53 75.5464 150.299 75.5061 150.34 75.432C150.381 75.3579 150.646 75.3579 150.792 75.3662C151.138 75.3854 150.776 75.5592 150.55 75.5492L150.657 75.5757Z" fill="white"/>
</g>
<g style="mix-blend-mode:soft-light">
<path fill-rule="evenodd" clip-rule="evenodd" d="M152.832 74.2529C152.966 74.2836 153.103 74.2956 153.241 74.2886C153.454 74.2721 153.539 74.208 153.547 74.1273C153.559 74.0036 153.478 73.9184 153.153 73.8936C152.935 73.8838 152.718 73.9149 152.512 73.9853C152.446 74.0128 152.412 74.0485 152.404 74.087C152.39 74.1631 152.542 74.1997 152.692 74.2364L152.832 74.2529Z" fill="white"/>
</g>
<g style="mix-blend-mode:soft-light">
<path fill-rule="evenodd" clip-rule="evenodd" d="M162.778 71.4685C162.565 71.31 162.382 71.114 162.239 70.8901C162.185 70.7156 162.154 70.5346 162.148 70.3519C162.041 70.0881 161.895 69.8414 161.717 69.6197C161.64 69.5332 161.593 69.4255 161.579 69.311C161.566 69.1965 161.588 69.0807 161.643 68.979C161.839 68.7442 162.118 68.5933 162.422 68.5571C162.686 68.508 162.952 68.4774 163.22 68.4656C163.351 68.4583 163.471 68.4555 163.6 68.4491C163.682 68.4491 163.736 68.4326 163.831 68.4345C163.953 68.4345 163.956 68.4546 163.955 68.5004C163.956 68.5477 163.943 68.5942 163.918 68.6342C163.893 68.6743 163.856 68.706 163.813 68.7255C163.67 68.8201 163.558 68.9556 163.493 69.1145C163.424 69.2399 163.363 69.3695 163.31 69.5026C163.27 69.6316 163.232 69.7607 163.186 69.8897C163.147 70.0004 163.095 70.1112 163.059 70.2219C163.03 70.3306 163.009 70.4414 162.998 70.5533C162.98 70.6448 163.005 70.7363 162.982 70.8279C162.965 70.883 162.956 70.9403 162.955 70.9981C162.956 71.0442 162.946 71.09 162.926 71.1317C162.908 71.1756 162.926 71.2177 162.921 71.2617C162.888 71.3396 162.839 71.41 162.778 71.4685V71.4685Z" fill="white"/>
</g>
<g style="mix-blend-mode:soft-light">
<path fill-rule="evenodd" clip-rule="evenodd" d="M160.712 70.2858C160.775 70.3243 160.845 70.3492 160.918 70.359C160.967 70.3622 161.016 70.3622 161.064 70.359C161.276 70.3408 161.287 70.2035 161.288 70.1358C161.288 69.9528 161.143 69.7369 160.799 69.6006C160.503 69.4921 160.188 69.4448 159.873 69.4616C159.721 69.4589 159.571 69.492 159.435 69.5583C159.298 69.6246 159.179 69.7222 159.088 69.8431C159.001 69.9922 158.981 70.2026 159.284 70.3188C159.41 70.3677 159.544 70.3955 159.679 70.4011C159.796 70.4011 159.91 70.3874 160.028 70.3865C160.177 70.4011 160.327 70.4011 160.477 70.3865C160.562 70.3723 160.643 70.3378 160.712 70.2858V70.2858Z" fill="white"/>
</g>
<g style="mix-blend-mode:soft-light">
<path fill-rule="evenodd" clip-rule="evenodd" d="M160.746 69.1709C160.662 69.1846 160.576 69.1764 160.497 69.1472C160.405 69.1208 160.365 69.0907 160.394 69.046C160.454 69.0022 160.524 68.972 160.597 68.9575C160.67 68.9431 160.746 68.9447 160.819 68.9622C160.857 68.9646 160.893 68.977 160.925 68.9981C160.956 69.0193 160.981 69.0484 160.997 69.0825C161.01 69.1363 160.911 69.1818 160.782 69.1982L160.746 69.1709Z" fill="white"/>
</g>
<g style="mix-blend-mode:soft-light">
<path fill-rule="evenodd" clip-rule="evenodd" d="M150.408 67.7376C150.487 67.8153 150.589 67.8656 150.7 67.8813C150.781 67.9041 150.866 67.9084 150.948 67.894C151.158 67.8634 151.355 67.775 151.518 67.6387C151.532 67.6223 151.543 67.6027 151.549 67.5814C151.555 67.5601 151.556 67.5377 151.552 67.516C151.547 67.4943 151.538 67.4739 151.525 67.4565C151.511 67.439 151.494 67.4249 151.474 67.4154C151.353 67.3544 151.226 67.306 151.096 67.2708C150.981 67.2314 150.861 67.1957 150.736 67.1619C150.509 67.0852 150.266 67.0694 150.031 67.1161C149.812 67.171 149.638 67.2863 149.655 67.3907C149.67 67.474 149.741 67.5243 149.838 67.5957C149.936 67.6671 149.989 67.722 150.408 67.7376Z" fill="white"/>
</g>
<g style="mix-blend-mode:soft-light">
<path fill-rule="evenodd" clip-rule="evenodd" d="M151.477 68.1121C151.494 68.0479 151.534 67.9917 151.588 67.9534C151.653 67.9534 151.688 67.9233 151.763 67.9343C151.87 67.9489 151.838 68.0182 151.835 68.0501C151.832 68.082 151.784 68.134 151.709 68.1622C151.681 68.1723 151.559 68.2188 151.549 68.1823L151.477 68.1121Z" fill="white"/>
</g>
<g style="mix-blend-mode:soft-light">
<path fill-rule="evenodd" clip-rule="evenodd" d="M159.819 73.1388C159.989 73.1911 160.169 73.1955 160.341 73.1516C160.507 73.0948 160.47 72.986 160.389 72.9164C160.336 72.8638 160.265 72.8336 160.19 72.8323C160.08 72.8268 159.958 72.8323 159.846 72.8323C159.578 72.8323 159.388 72.7243 159.13 72.8195C159.025 72.8579 158.939 72.9411 158.968 73.0024C159.02 73.1086 159.304 73.1616 159.533 73.1982L159.819 73.1388Z" fill="white"/>
</g>
<g style="mix-blend-mode:soft-light">
<path fill-rule="evenodd" clip-rule="evenodd" d="M169.694 81.5764C169.803 81.7239 169.956 81.8329 170.131 81.8876H170.25C170.456 81.9203 170.667 81.9182 170.873 81.8812C171.481 81.7567 171.407 81.5095 171.405 81.2844C171.405 81.0436 171.471 80.7351 170.617 80.8468C170.183 80.8753 169.755 80.9634 169.345 81.1086C169.216 81.1836 169.275 81.2212 169.345 81.2917C169.437 81.4132 169.557 81.5111 169.694 81.5773V81.5764Z" fill="white"/>
</g>
<g style="mix-blend-mode:soft-light">
<path fill-rule="evenodd" clip-rule="evenodd" d="M230.357 96.9075C230.466 97.0553 230.619 97.1646 230.794 97.2197H230.912C231.119 97.2524 231.33 97.2502 231.536 97.2132C232.144 97.0887 232.07 96.8406 232.068 96.6154C232.068 96.3746 232.133 96.0661 231.28 96.1787C230.846 96.2072 230.418 96.2953 230.008 96.4405C229.878 96.5156 229.938 96.5531 230.008 96.6236C230.1 96.7454 230.22 96.8431 230.357 96.9084V96.9075Z" fill="white"/>
</g>
<g style="mix-blend-mode:soft-light">
<path fill-rule="evenodd" clip-rule="evenodd" d="M170.657 78.8198C170.489 78.7832 170.167 78.7283 170.14 78.6367C170.118 78.5607 170.231 78.5341 170.334 78.4783C170.469 78.3945 170.621 78.3408 170.779 78.3206C170.936 78.3003 171.097 78.3141 171.249 78.3611C171.425 78.4142 171.543 78.5442 171.503 78.6358C171.435 78.7049 171.353 78.7575 171.261 78.7893C171.17 78.821 171.072 78.8312 170.976 78.8189L170.657 78.8198Z" fill="white"/>
</g>
<g style="mix-blend-mode:soft-light">
<path fill-rule="evenodd" clip-rule="evenodd" d="M116.754 67.2918C117.07 67.377 117.4 67.3924 117.723 67.3366C118.073 67.3187 118.421 67.2619 118.759 67.1673C119.125 67.029 119.033 66.8395 119.132 66.6656C119.207 66.5292 119.231 66.4514 118.995 66.3324C118.703 66.1991 118.398 66.0987 118.084 66.033C116.864 65.8102 115.615 65.7988 114.391 65.9991C113.759 66.0367 113.151 66.2528 112.636 66.6226C112.445 66.8871 112.6 67.1911 113.121 67.3797C113.761 67.5697 114.431 67.6319 115.095 67.5627C115.256 67.5444 115.417 67.5271 115.579 67.5106C115.789 67.5008 115.998 67.499 116.208 67.5051C116.309 67.512 116.41 67.4965 116.505 67.4596C116.599 67.4228 116.684 67.3654 116.754 67.2918V67.2918Z" fill="white"/>
</g>
<g style="mix-blend-mode:soft-light">
<path fill-rule="evenodd" clip-rule="evenodd" d="M57.5154 98.1653C57.8314 98.2501 58.1621 98.2654 58.4846 98.2102C58.8351 98.192 59.1824 98.1349 59.5204 98.0399C59.8864 97.9017 59.7948 97.7132 59.8937 97.5393C59.9687 97.403 59.9925 97.3252 59.7564 97.2062C59.4651 97.0725 59.1597 96.9722 58.8459 96.907C57.6259 96.684 56.3767 96.6722 55.1527 96.8722C54.5205 96.91 53.9119 97.1264 53.3977 97.4963C53.2065 97.7608 53.3611 98.0646 53.8827 98.2523C54.5222 98.4422 55.1929 98.5044 55.8565 98.4353L56.3406 98.3822C56.5504 98.3725 56.76 98.3707 56.9692 98.3768C57.0702 98.384 57.1716 98.3688 57.266 98.3322C57.3605 98.2957 57.4456 98.2387 57.5154 98.1653V98.1653Z" fill="white"/>
</g>
<g style="mix-blend-mode:soft-light">
<path fill-rule="evenodd" clip-rule="evenodd" d="M118.572 67.7921C118.796 67.6538 119.058 67.5925 119.32 67.6174C119.462 67.5947 119.606 67.5861 119.75 67.5918C119.979 67.6119 120.207 67.7427 120.187 67.8369C120.17 67.911 119.81 68.0253 119.666 68.0555C119.481 68.0948 119.289 68.0904 119.107 68.0427L118.572 67.7921Z" fill="white"/>
</g>
<g style="mix-blend-mode:soft-light">
<path fill-rule="evenodd" clip-rule="evenodd" d="M118.465 85.3771C118.837 85.4583 119.224 85.4304 119.58 85.2966C119.763 85.1822 119.58 85.0056 119.379 84.9058C118.916 84.7233 118.426 84.6152 117.929 84.5854C117.434 84.5598 116.907 84.7923 116.851 84.9699C116.736 85.3305 118.202 85.5191 118.892 85.5447L118.465 85.3771Z" fill="white"/>
</g>
<g style="mix-blend-mode:soft-light">
<path fill-rule="evenodd" clip-rule="evenodd" d="M115.866 107.103C116.238 107.183 116.625 107.155 116.981 107.022C117.164 106.907 116.981 106.731 116.78 106.631C116.317 106.448 115.827 106.339 115.33 106.31C114.835 106.284 114.309 106.517 114.252 106.695C114.137 107.056 115.603 107.249 116.295 107.27L115.866 107.103Z" fill="white"/>
</g>
<g style="mix-blend-mode:soft-light">
<path fill-rule="evenodd" clip-rule="evenodd" d="M122.743 85.6276C122.559 85.6775 122.371 85.7081 122.181 85.719C122.116 85.7117 122.105 85.6825 122.055 85.6706C121.872 85.6258 121.703 85.5792 121.666 85.4878C121.589 85.3105 121.757 85.167 122.155 85.0783C122.402 85.0141 122.662 85.023 122.904 85.1039C123.143 85.1953 123.253 85.4009 122.957 85.4969L122.743 85.6276Z" fill="white"/>
</g>
<g style="mix-blend-mode:soft-light">
<path fill-rule="evenodd" clip-rule="evenodd" d="M172.368 69.6309C173.062 69.7375 173.766 69.7553 174.464 69.684C174.898 69.7024 175.329 69.6168 175.722 69.4343C176.196 68.9889 173.742 68.645 172.959 68.5608C172.264 68.4859 171.564 68.4688 170.866 68.5096C170.372 68.5298 169.885 68.6347 169.427 68.8197C169.152 69.0218 169.488 69.2495 169.896 69.3684C170.96 69.5637 172.036 69.678 173.116 69.7105L172.368 69.6309Z" fill="white"/>
</g>
<g style="mix-blend-mode:soft-light">
<path fill-rule="evenodd" clip-rule="evenodd" d="M172.208 69.8608C172.228 69.9073 172.27 70.1101 172.391 70.1796C172.501 70.2534 172.626 70.3017 172.757 70.3211C172.944 70.3334 173.132 70.3021 173.306 70.2298C173.392 70.1942 173.483 70.1238 173.431 70.0718C173.345 70.0251 173.253 69.9918 173.157 69.9731C172.984 69.9272 172.81 69.8906 172.633 69.8635C172.546 69.8446 172.458 69.8303 172.369 69.8206C172.26 69.8202 172.152 69.8346 172.048 69.8635L172.208 69.8608Z" fill="white"/>
</g>
<g style="mix-blend-mode:soft-light">
<path fill-rule="evenodd" clip-rule="evenodd" d="M178.197 70.1114L178.38 69.9606C178.523 69.9493 178.667 69.9648 178.804 70.0063C178.819 70.0165 178.831 70.0295 178.841 70.0446C178.85 70.0598 178.857 70.0767 178.859 70.0943C178.862 70.112 178.861 70.1299 178.856 70.1472C178.852 70.1644 178.844 70.1806 178.833 70.1946C178.729 70.2758 178.598 70.3135 178.467 70.2997C178.264 70.2997 178.18 70.2257 178.146 70.1525L178.197 70.1114Z" fill="white"/>
</g>
<g style="mix-blend-mode:soft-light">
<path fill-rule="evenodd" clip-rule="evenodd" d="M186.271 77.0447C186.432 77.0783 186.599 77.0689 186.755 77.0173C186.977 76.9321 187.023 76.8066 186.834 76.7114C186.425 76.5337 185.98 76.4519 185.535 76.4723C185.25 76.4961 184.92 76.6399 185.092 76.7526C185.193 76.8239 185.301 76.8835 185.416 76.9303C185.676 77.0072 185.946 77.0457 186.218 77.0447H186.271Z" fill="white"/>
</g>
<g style="mix-blend-mode:soft-light">
<path fill-rule="evenodd" clip-rule="evenodd" d="M91.8344 71.5105C91.939 71.5651 92.0542 71.5963 92.172 71.602C92.3593 71.6239 92.5489 71.6165 92.7339 71.58C93.0083 71.5184 93.2489 71.3548 93.4073 71.1224C93.4906 70.9814 93.443 70.8715 93.2289 70.7562C92.9328 70.6069 92.607 70.5262 92.2755 70.52C91.9322 70.4739 91.5828 70.5273 91.269 70.6738C91.0674 70.7637 90.894 70.9067 90.7674 71.0876C90.7134 71.2203 90.8068 71.3109 91.0228 71.4107C91.2709 71.5458 91.561 71.5815 91.8344 71.5105V71.5105Z" fill="white"/>
</g>
<g style="mix-blend-mode:soft-light">
<path fill-rule="evenodd" clip-rule="evenodd" d="M93.1713 70.3386C93.0596 70.3386 92.9296 70.345 92.8967 70.2965C92.8564 70.2341 93.0037 70.1241 93.1126 70.0838C93.2494 70.0409 93.3921 70.0201 93.5354 70.0224C93.6214 70.0292 93.7048 70.0549 93.7797 70.0975C93.8795 70.1507 93.8969 70.214 93.8127 70.2671C93.7213 70.3405 93.6077 70.3803 93.4906 70.3799L93.1713 70.3386Z" fill="white"/>
</g>
<g style="mix-blend-mode:soft-light">
<path fill-rule="evenodd" clip-rule="evenodd" d="M78.998 73.9121C79.1591 73.9208 79.3204 73.9066 79.4775 73.87C79.7025 73.8204 79.9186 73.7365 80.118 73.6212C80.3258 73.495 80.484 73.335 80.4538 73.1813C80.4291 73.0725 80.1144 72.9682 79.8527 72.9517C79.507 72.9366 79.161 72.9711 78.8251 73.0542C78.3319 73.1978 77.9293 73.4548 77.9833 73.7036C78.0437 73.989 79.1316 73.9981 78.998 73.9121Z" fill="white"/>
</g>
<g style="mix-blend-mode:soft-light">
<path fill-rule="evenodd" clip-rule="evenodd" d="M81.5676 72.6801C81.4828 72.7146 81.3933 72.7362 81.3022 72.7444C81.2546 72.7031 81.1347 72.6893 81.0926 72.6443C81.0505 72.5993 81.0826 72.5451 81.1356 72.5065C81.2492 72.4369 81.3807 72.4024 81.5136 72.4073C81.5679 72.3982 81.6235 72.401 81.6766 72.4156C81.7297 72.4302 81.7789 72.4562 81.821 72.4918C81.8787 72.535 81.9025 72.5442 81.8384 72.5919C81.7864 72.6274 81.7312 72.6581 81.6737 72.6838L81.5676 72.6801Z" fill="white"/>
</g>
</g>
<path style="mix-blend-mode:screen" d="M145.309 120.847C158.456 120.847 169.113 114.986 169.113 107.756C169.113 100.526 158.456 94.6643 145.309 94.6643C132.162 94.6643 121.505 100.526 121.505 107.756C121.505 114.986 132.162 120.847 145.309 120.847Z" fill="url(#paint15_radial_114_1872)"/>
<path style="mix-blend-mode:screen" d="M108.197 110.088C108.197 112.686 104.368 114.792 99.6443 114.792C94.9209 114.792 91.0905 112.687 91.0905 110.088C91.0905 107.488 94.9199 105.383 99.6443 105.383C104.369 105.383 108.197 107.489 108.197 110.088Z" fill="url(#paint16_radial_114_1872)"/>
<path style="mix-blend-mode:screen" d="M233.397 114.788C233.397 117.386 229.568 119.492 224.844 119.492C220.121 119.492 216.291 117.388 216.291 114.788C216.291 112.189 220.121 110.084 224.844 110.084C229.568 110.084 233.397 112.19 233.397 114.788Z" fill="url(#paint17_radial_114_1872)"/>
<path style="mix-blend-mode:screen" d="M101.807 121.372L107.528 327.499L180.559 319.75L181.443 121.91C181.443 121.91 123.342 116.822 101.807 121.372Z" fill="url(#paint18_linear_114_1872)"/>
<path style="mix-blend-mode:screen" d="M112.087 329.822L108.198 119.481L133.318 118.37L133.318 327.156L112.087 329.822Z" fill="url(#paint19_linear_114_1872)"/>
<path style="mix-blend-mode:screen" d="M147.156 118.37L147.856 330.583H150.235L150.935 119.123L147.156 118.37Z" fill="url(#paint20_linear_114_1872)"/>
<path style="mix-blend-mode:screen" d="M164.852 120.14L164.852 331.053L172.387 328.164L170.75 121.098L164.852 120.14Z" fill="url(#paint21_linear_114_1872)"/>
<defs>
<linearGradient id="paint0_linear_114_1872" x1="141.844" y1="73.5164" x2="141.844" y2="2.5105" gradientUnits="userSpaceOnUse">
<stop stop-color="#FFFF29"/>
<stop offset="1" stop-color="#FF7E59"/>
</linearGradient>
<radialGradient id="paint1_radial_114_1872" cx="0" cy="0" r="1" gradientUnits="userSpaceOnUse" gradientTransform="translate(144.578 148.237) rotate(-29.3055) scale(111.23 155.853)">
<stop offset="0.022" stop-color="#8343B0"/>
<stop offset="0.398" stop-color="#7836A9"/>
<stop offset="0.994" stop-color="#611B9C"/>
</radialGradient>
<radialGradient id="paint2_radial_114_1872" cx="0" cy="0" r="1" gradientUnits="userSpaceOnUse" gradientTransform="translate(144.578 161.964) rotate(-87.9261) scale(164.36 108.867)">
<stop stop-color="#D4CFFF"/>
<stop offset="1" stop-color="#8D6FC7"/>
</radialGradient>
<linearGradient id="paint3_linear_114_1872" x1="144.28" y1="110.405" x2="144.28" y2="106.208" gradientUnits="userSpaceOnUse">
<stop stop-color="#FFFF29"/>
<stop offset="1" stop-color="#FF7E59"/>
</linearGradient>
<linearGradient id="paint4_linear_114_1872" x1="193.606" y1="111.389" x2="193.606" y2="107.518" gradientUnits="userSpaceOnUse">
<stop stop-color="#FFFF29"/>
<stop offset="1" stop-color="#FF7E59"/>
</linearGradient>
<linearGradient id="paint5_linear_114_1872" x1="225.402" y1="116.271" x2="225.402" y2="113.797" gradientUnits="userSpaceOnUse">
<stop stop-color="#FFFF29"/>
<stop offset="1" stop-color="#FF7E59"/>
</linearGradient>
<linearGradient id="paint6_linear_114_1872" x1="-1392.82" y1="111.238" x2="-1392.82" y2="107.367" gradientUnits="userSpaceOnUse">
<stop stop-color="#FFFF29"/>
<stop offset="1" stop-color="#FF7E59"/>
</linearGradient>
<linearGradient id="paint7_linear_114_1872" x1="-1355.5" y1="116.026" x2="-1355.5" y2="113.551" gradientUnits="userSpaceOnUse">
<stop stop-color="#FFFF29"/>
<stop offset="1" stop-color="#FF7E59"/>
</linearGradient>
<radialGradient id="paint8_radial_114_1872" cx="0" cy="0" r="1" gradientUnits="userSpaceOnUse" gradientTransform="translate(-1179.49 370.166) scale(46.9206 70.7622)">
<stop offset="0.022" stop-color="#725EB0"/>
<stop offset="0.383" stop-color="#6D51AA"/>
<stop offset="0.994" stop-color="#61349C"/>
</radialGradient>
<linearGradient id="paint9_linear_114_1872" x1="143.288" y1="92.3608" x2="143.288" y2="88.2297" gradientUnits="userSpaceOnUse">
<stop stop-color="#8DC7FF"/>
<stop offset="0.316" stop-color="#5C4D86"/>
</linearGradient>
<radialGradient id="paint10_radial_114_1872" cx="0" cy="0" r="1" gradientUnits="userSpaceOnUse" gradientTransform="translate(-87.0927 -615.087) rotate(-28.7019) scale(11.9561 9.54872)">
<stop stop-color="#003CEE"/>
<stop offset="0.056" stop-color="#0035D5"/>
<stop offset="0.198" stop-color="#00279D"/>
<stop offset="0.341" stop-color="#001B6D"/>
<stop offset="0.481" stop-color="#001146"/>
<stop offset="0.619" stop-color="#000927"/>
<stop offset="0.753" stop-color="#000411"/>
<stop offset="0.882" stop-color="#000104"/>
<stop offset="1"/>
</radialGradient>
<linearGradient id="paint11_linear_114_1872" x1="262.023" y1="96.7366" x2="262.023" y2="92.6062" gradientUnits="userSpaceOnUse">
<stop stop-color="#8DC7FF"/>
<stop offset="0.316" stop-color="#5C4D86"/>
</linearGradient>
<radialGradient id="paint12_radial_114_1872" cx="0" cy="0" r="1" gradientUnits="userSpaceOnUse" gradientTransform="translate(2.04297 -660.607) rotate(-28.7009) scale(11.9561 9.54832)">
<stop stop-color="#003CEE"/>
<stop offset="0.056" stop-color="#0035D5"/>
<stop offset="0.198" stop-color="#00279D"/>
<stop offset="0.341" stop-color="#001B6D"/>
<stop offset="0.481" stop-color="#001146"/>
<stop offset="0.619" stop-color="#000927"/>
<stop offset="0.753" stop-color="#000411"/>
<stop offset="0.882" stop-color="#000104"/>
<stop offset="1"/>
</radialGradient>
<linearGradient id="paint13_linear_114_1872" x1="30.3954" y1="96.7363" x2="30.3954" y2="92.6062" gradientUnits="userSpaceOnUse">
<stop stop-color="#8DC7FF"/>
<stop offset="0.316" stop-color="#5C4D86"/>
</linearGradient>
<radialGradient id="paint14_radial_114_1872" cx="0" cy="0" r="1" gradientUnits="userSpaceOnUse" gradientTransform="translate(-169.367 -565.096) rotate(-28.701) scale(11.9556 9.54831)">
<stop stop-color="#003CEE"/>
<stop offset="0.056" stop-color="#0035D5"/>
<stop offset="0.198" stop-color="#00279D"/>
<stop offset="0.341" stop-color="#001B6D"/>
<stop offset="0.481" stop-color="#001146"/>
<stop offset="0.619" stop-color="#000927"/>
<stop offset="0.753" stop-color="#000411"/>
<stop offset="0.882" stop-color="#000104"/>
<stop offset="1"/>
</radialGradient>
<radialGradient id="paint15_radial_114_1872" cx="0" cy="0" r="1" gradientUnits="userSpaceOnUse" gradientTransform="translate(132.797 95.8665) scale(23.8017 13.0901)">
<stop stop-color="#FF9A00"/>
<stop offset="0.091" stop-color="#D58100"/>
<stop offset="0.227" stop-color="#9D5F00"/>
<stop offset="0.365" stop-color="#6D4200"/>
<stop offset="0.5" stop-color="#462A00"/>
<stop offset="0.633" stop-color="#271700"/>
<stop offset="0.762" stop-color="#110A00"/>
<stop offset="0.886" stop-color="#040200"/>
<stop offset="1"/>
</radialGradient>
<radialGradient id="paint16_radial_114_1872" cx="0" cy="0" r="1" gradientUnits="userSpaceOnUse" gradientTransform="translate(-546.777 -131.037) scale(8.55258 4.704)">
<stop stop-color="#FF9A00"/>
<stop offset="0.091" stop-color="#D58100"/>
<stop offset="0.227" stop-color="#9D5F00"/>
<stop offset="0.365" stop-color="#6D4200"/>
<stop offset="0.5" stop-color="#462A00"/>
<stop offset="0.633" stop-color="#271700"/>
<stop offset="0.762" stop-color="#110A00"/>
<stop offset="0.886" stop-color="#040200"/>
<stop offset="1"/>
</radialGradient>
<radialGradient id="paint17_radial_114_1872" cx="0" cy="0" r="1" gradientUnits="userSpaceOnUse" gradientTransform="translate(-479.809 -128.499) scale(8.55218 4.70363)">
<stop stop-color="#FF9A00"/>
<stop offset="0.091" stop-color="#D58100"/>
<stop offset="0.227" stop-color="#9D5F00"/>
<stop offset="0.365" stop-color="#6D4200"/>
<stop offset="0.5" stop-color="#462A00"/>
<stop offset="0.633" stop-color="#271700"/>
<stop offset="0.762" stop-color="#110A00"/>
<stop offset="0.886" stop-color="#040200"/>
<stop offset="1"/>
</radialGradient>
<linearGradient id="paint18_linear_114_1872" x1="141.625" y1="327.499" x2="141.625" y2="119.481" gradientUnits="userSpaceOnUse">
<stop/>
<stop offset="0.155" stop-color="#000304"/>
<stop offset="0.323" stop-color="#010D11"/>
<stop offset="0.499" stop-color="#041D27"/>
<stop offset="0.679" stop-color="#073445"/>
<stop offset="0.86" stop-color="#0C526C"/>
<stop offset="1" stop-color="#106D90"/>
</linearGradient>
<linearGradient id="paint19_linear_114_1872" x1="120.758" y1="329.822" x2="120.758" y2="118.37" gradientUnits="userSpaceOnUse">
<stop/>
<stop offset="0.155" stop-color="#000304"/>
<stop offset="0.323" stop-color="#010D11"/>
<stop offset="0.499" stop-color="#041D27"/>
<stop offset="0.679" stop-color="#073445"/>
<stop offset="0.86" stop-color="#0C526C"/>
<stop offset="1" stop-color="#106D90"/>
</linearGradient>
<linearGradient id="paint20_linear_114_1872" x1="149.045" y1="330.583" x2="149.045" y2="118.37" gradientUnits="userSpaceOnUse">
<stop/>
<stop offset="0.155" stop-color="#000304"/>
<stop offset="0.323" stop-color="#010D11"/>
<stop offset="0.499" stop-color="#041D27"/>
<stop offset="0.679" stop-color="#073445"/>
<stop offset="0.86" stop-color="#0C526C"/>
<stop offset="1" stop-color="#106D90"/>
</linearGradient>
<linearGradient id="paint21_linear_114_1872" x1="168.619" y1="331.053" x2="168.619" y2="120.14" gradientUnits="userSpaceOnUse">
<stop/>
<stop offset="0.155" stop-color="#000304"/>
<stop offset="0.323" stop-color="#010D11"/>
<stop offset="0.499" stop-color="#041D27"/>
<stop offset="0.679" stop-color="#073445"/>
<stop offset="0.86" stop-color="#0C526C"/>
<stop offset="1" stop-color="#106D90"/>
</linearGradient>
</defs>
</svg>
