<svg width="414" height="434" viewBox="0 0 414 434" fill="none" xmlns="http://www.w3.org/2000/svg">
<path d="M17.3139 28.1716C-1.00944 40.4669 -1.24138 411.878 11.2834 425.333C20.0972 434.613 385.405 437.628 400.945 426.493C416.253 415.59 417.877 26.5477 404.656 15.6443C388.652 2.42105 39.1164 13.5564 17.3139 28.1716Z" fill="#70A231"/>
<path d="M11.9697 7.685C-6.35364 19.7483 -1.24068 408.63 11.2842 422.086C20.0979 431.365 385.405 434.381 400.946 423.246C416.254 412.574 417.877 25.388 404.657 14.7167C388.653 1.4934 33.7722 -6.93018 11.9697 7.685Z" fill="#9EDD94"/>
<path d="M14.9697 11.1852C-3.12173 23.2486 -3.56079 403.527 14.0668 419.534C23.3444 427.886 382.158 430.437 398.394 420.694C416.485 409.559 415.093 27.9401 402.105 17.0367C386.101 4.04544 36.5402 -3.19794 14.9697 11.1852Z" fill="url(#paint0_radial_114_1523)"/>
<g style="mix-blend-mode:screen" opacity="0.5">
<path d="M17.9698 13.1849C17.9698 13.1849 32.0223 67.4727 112.97 71.1845C194.149 75.1283 273.841 55.7779 318.606 41.1628C363.37 26.5477 395.61 17.5003 395.61 17.5003C395.61 17.5003 178.47 -7.81499 17.9698 13.1849Z" fill="url(#paint1_linear_114_1523)"/>
</g>
<path d="M13.8551 22.4021C13.8551 22.4021 14.1994 14.9541 17.8025 12.6494C21.4056 10.3447 42.3318 9.77245 43.1214 10.8205C43.9109 11.8686 23.7996 24.9714 13.8551 22.4021Z" fill="white"/>
<path d="M14.8103 27.8608C12.2589 27.1648 11.563 36.4444 13.8825 36.6764C16.4339 37.1404 17.3616 28.5567 14.8103 27.8608Z" fill="white"/>
<g style="mix-blend-mode:screen">
<path d="M31.2304 414.43C31.2304 414.43 196.373 409.094 253.198 397.959C310.024 386.823 393.059 396.335 397.93 417.446C397.93 417.214 180.601 441.109 31.2304 414.43Z" fill="url(#paint2_linear_114_1523)"/>
</g>
<path d="M384.941 419.302C385.173 422.086 396.538 418.142 398.625 415.822C400.713 413.502 402.105 404.686 400.945 403.758C399.785 402.83 384.709 416.518 384.941 419.302Z" fill="white"/>
<defs>
<radialGradient id="paint0_radial_114_1523" cx="0" cy="0" r="1" gradientUnits="userSpaceOnUse" gradientTransform="translate(207.465 219.113) scale(206.027 206.068)">
<stop stop-color="#51851D"/>
<stop offset="1" stop-color="#8FBF45"/>
</radialGradient>
<linearGradient id="paint1_linear_114_1523" x1="25.8824" y1="52.689" x2="395.713" y2="52.689" gradientUnits="userSpaceOnUse">
<stop stop-color="#23786E"/>
<stop offset="0.1832" stop-color="#1E685F"/>
<stop offset="0.5417" stop-color="#123E39"/>
<stop offset="1"/>
</linearGradient>
<linearGradient id="paint2_linear_114_1523" x1="31.2364" y1="410.094" x2="398.041" y2="410.094" gradientUnits="userSpaceOnUse">
<stop/>
<stop offset="0.4583" stop-color="#123E39"/>
<stop offset="0.8168" stop-color="#1E685F"/>
<stop offset="1" stop-color="#23786E"/>
</linearGradient>
</defs>
</svg>
