<svg width="414" height="434" viewBox="0 0 414 434" fill="none" xmlns="http://www.w3.org/2000/svg">
<path d="M17.3139 28.1721C-1.00944 40.4674 -1.24138 411.878 11.2834 425.334C20.0972 434.613 385.405 437.629 400.945 426.494C416.253 415.59 417.877 26.5482 404.656 15.6448C388.652 2.42154 39.1164 13.5569 17.3139 28.1721Z" fill="#ED5572"/>
<path d="M11.9697 7.68416C-6.35364 19.7475 -1.24068 408.631 11.2842 422.086C20.0979 431.365 385.405 434.381 400.946 423.246C416.254 412.574 417.877 25.3873 404.657 14.7158C388.653 1.49254 33.7722 -6.93105 11.9697 7.68416Z" fill="#F1A5B0"/>
<path d="M14.9697 11.1846C-3.1217 23.2479 -3.56076 403.526 14.0668 419.533C23.3444 427.885 382.158 430.437 398.393 420.693C416.485 409.558 415.093 27.9395 402.105 17.0361C386.101 4.04483 36.5403 -3.19855 14.9697 11.1846Z" fill="url(#paint0_radial_114_1365)"/>
<g style="mix-blend-mode:screen" opacity="0.5">
<path d="M17.9697 13.1849C17.9697 13.1849 32.0222 67.4731 112.97 71.1849C194.149 75.1287 273.841 55.7782 318.606 41.163C363.37 26.5478 395.61 17.5004 395.61 17.5004C395.61 17.5004 178.47 -7.81506 17.9697 13.1849Z" fill="url(#paint1_linear_114_1365)"/>
</g>
<path d="M13.8549 22.4017C13.8549 22.4017 14.1993 14.9536 17.8024 12.6489C21.4055 10.3441 42.3317 9.77188 43.1213 10.8199C43.9108 11.868 23.7995 24.9711 13.8549 22.4017Z" fill="white"/>
<path d="M14.8102 27.8605C12.2589 27.1645 11.5631 36.4444 13.8825 36.6764C16.4338 37.1404 17.3616 28.5565 14.8102 27.8605Z" fill="white"/>
<g style="mix-blend-mode:screen">
<path d="M31.2305 414.43C31.2305 414.43 196.373 409.094 253.198 397.958C310.024 386.823 393.059 396.334 397.93 417.445C397.93 417.213 180.601 441.108 31.2305 414.43Z" fill="url(#paint2_linear_114_1365)"/>
</g>
<path d="M384.941 419.302C385.173 422.086 396.538 418.142 398.625 415.822C400.713 413.503 402.105 404.687 400.945 403.759C399.785 402.831 384.709 416.518 384.941 419.302Z" fill="white"/>
<defs>
<radialGradient id="paint0_radial_114_1365" cx="0" cy="0" r="1" gradientUnits="userSpaceOnUse" gradientTransform="translate(207.465 219.112) scale(206.027 206.068)">
<stop stop-color="#D13042"/>
<stop offset="1" stop-color="#EF5977"/>
</radialGradient>
<linearGradient id="paint1_linear_114_1365" x1="25.8823" y1="52.6893" x2="395.713" y2="52.6893" gradientUnits="userSpaceOnUse">
<stop stop-color="#23786E"/>
<stop offset="0.1832" stop-color="#1E685F"/>
<stop offset="0.5417" stop-color="#123E39"/>
<stop offset="1"/>
</linearGradient>
<linearGradient id="paint2_linear_114_1365" x1="31.2365" y1="410.093" x2="398.041" y2="410.093" gradientUnits="userSpaceOnUse">
<stop/>
<stop offset="0.4583" stop-color="#123E39"/>
<stop offset="0.8168" stop-color="#1E685F"/>
<stop offset="1" stop-color="#23786E"/>
</linearGradient>
</defs>
</svg>
