<svg width="414" height="434" viewBox="0 0 414 434" fill="none" xmlns="http://www.w3.org/2000/svg">
<path d="M17.3139 28.1716C-1.00944 40.4669 -1.24138 411.877 11.2834 425.333C20.0972 434.612 385.405 437.628 400.945 426.493C416.253 415.589 417.877 26.5477 404.656 15.6443C388.652 2.42105 39.1164 13.5564 17.3139 28.1716Z" fill="#FDBC42"/>
<path d="M11.9697 7.68463C-6.35364 19.7479 -1.24068 408.63 11.2842 422.085C20.0979 431.365 385.406 434.38 400.946 423.245C416.254 412.574 417.877 25.3877 404.657 14.7163C388.653 1.49303 33.7722 -6.93054 11.9697 7.68463Z" fill="#FFE6B3"/>
<path d="M14.9697 11.1847C-3.12173 23.2481 -3.56079 403.526 14.0668 419.533C23.3444 427.885 382.158 430.437 398.393 420.693C416.485 409.558 415.093 27.9396 402.105 17.0362C386.101 4.04495 36.5402 -3.19843 14.9697 11.1847Z" fill="url(#paint0_radial_114_1418)"/>
<g style="mix-blend-mode:screen" opacity="0.5">
<path d="M17.9697 13.1848C17.9697 13.1848 32.0222 67.4722 112.97 71.1839C194.149 75.1276 273.841 55.7774 318.606 41.1625C363.37 26.5475 395.61 17.5002 395.61 17.5002C395.61 17.5002 178.47 -7.81487 17.9697 13.1848Z" fill="url(#paint1_linear_114_1418)"/>
</g>
<path d="M13.8549 22.4023C13.8549 22.4023 14.1992 14.9542 17.8024 12.6495C21.4055 10.3448 42.3318 9.77257 43.1214 10.8206C43.9109 11.8687 23.7995 24.9716 13.8549 22.4023Z" fill="white"/>
<path d="M14.8103 27.8608C12.2589 27.1648 11.563 36.4444 13.8825 36.6764C16.4339 37.1404 17.3616 28.5567 14.8103 27.8608Z" fill="white"/>
<g style="mix-blend-mode:screen">
<path d="M31.2305 414.429C31.2305 414.429 196.373 409.094 253.198 397.958C310.024 386.823 393.059 396.334 397.93 417.445C397.93 417.213 180.601 441.108 31.2305 414.429Z" fill="url(#paint2_linear_114_1418)"/>
</g>
<path d="M384.941 419.302C385.173 422.086 396.538 418.142 398.625 415.822C400.713 413.502 402.104 404.686 400.945 403.758C399.785 402.83 384.709 416.518 384.941 419.302Z" fill="white"/>
<defs>
<radialGradient id="paint0_radial_114_1418" cx="0" cy="0" r="1" gradientUnits="userSpaceOnUse" gradientTransform="translate(207.465 219.113) scale(206.027 206.068)">
<stop stop-color="#F2A321"/>
<stop offset="1" stop-color="#FFC148"/>
</radialGradient>
<linearGradient id="paint1_linear_114_1418" x1="25.8823" y1="52.6886" x2="395.713" y2="52.6886" gradientUnits="userSpaceOnUse">
<stop stop-color="#23786E"/>
<stop offset="0.1832" stop-color="#1E685F"/>
<stop offset="0.5417" stop-color="#123E39"/>
<stop offset="1"/>
</linearGradient>
<linearGradient id="paint2_linear_114_1418" x1="31.2365" y1="410.093" x2="398.041" y2="410.093" gradientUnits="userSpaceOnUse">
<stop/>
<stop offset="0.4583" stop-color="#123E39"/>
<stop offset="0.8168" stop-color="#1E685F"/>
<stop offset="1" stop-color="#23786E"/>
</linearGradient>
</defs>
</svg>
