<svg width="113" height="44" viewBox="0 0 113 44" fill="none" xmlns="http://www.w3.org/2000/svg">
<path d="M107.879 39.0406C107.775 39.1315 107.662 39.2147 107.54 39.289C97.9842 45.6113 15.1627 45.3891 3.62962 39.7075C3.12657 39.4955 2.70921 39.171 2.4271 38.7725C-1.66475 31.8748 0.554677 11.1163 7.0516 6.62465C14.0247 1.81261 97.3305 -0.364568 105.942 5.75509C112.261 10.2402 115.272 32.7378 107.879 39.0406Z" fill="url(#paint0_linear_337_214)"/>
<path d="M2.44436 37.413C6.38286 44.0688 99.7691 44.6049 107.896 37.6811C115.289 31.3915 112.279 8.88081 105.959 4.38914C97.3478 -1.72398 14.042 0.466278 7.06888 5.26524C0.55582 9.75037 -1.66363 30.5088 2.44436 37.413Z" fill="url(#paint1_linear_337_214)"/>
<path d="M6.24487 35.1441C6.24487 35.1441 18.8594 40.5838 57.6956 40.5838C96.5319 40.5838 102.771 35.1179 102.771 35.1179L6.24487 35.1441Z" fill="white"/>
<g style="mix-blend-mode:multiply">
<path d="M107.54 35.1376V39.2762C97.9845 45.5986 15.1629 45.3763 3.62988 39.6947L3.87199 38.4459L6.24478 35.1245L105.829 31.3782L107.54 35.1376Z" fill="#CED6FF"/>
</g>
<path d="M5.34103 34.3921C8.92442 40.4333 95.6603 42.1332 103.045 35.8501C109.752 30.1423 107.024 9.69771 101.286 5.62447C93.4651 0.0736253 16.3979 3.97033 10.0866 8.34432C4.16271 12.4176 1.63657 28.1613 5.34103 34.3921Z" fill="url(#paint2_radial_337_214)"/>
<path d="M5.67239 33.326C9.23965 39.1515 95.459 39.5699 102.811 33.5091C109.502 28.004 106.847 9.79542 101.157 5.86602C93.3606 0.511323 16.584 4.27073 10.2727 8.48126C4.35688 12.4172 1.93566 27.2848 5.67239 33.326Z" fill="url(#paint3_linear_337_214)"/>
<path d="M6.70499 32.8099C10.1915 38.4654 94.5466 38.8642 101.746 32.9865C108.291 27.6449 105.716 9.97892 100.132 6.18029C92.5047 0.949811 17.3825 4.63076 11.2165 8.71707C5.45403 12.5222 3.08931 26.9453 6.70499 32.8099Z" fill="url(#paint4_linear_337_214)"/>
<path style="mix-blend-mode:screen" d="M10.9905 8.73671C10.9905 8.73671 69.8098 -0.926598 100.325 6.25877C102.206 8.35699 103.538 10.7442 104.239 13.2742C95.5505 15.5051 86.5291 16.7741 77.4204 17.0466C61.7229 17.6285 45.3152 10.4432 32.055 9.37091C18.7949 8.29866 10.9905 8.73671 10.9905 8.73671Z" fill="url(#paint5_linear_337_214)"/>
<path style="mix-blend-mode:screen" d="M100.034 33.0975C100.034 33.0975 60.6809 38.7138 11.1348 33.7513C11.1348 33.7513 43.3208 36.0135 57.6463 33.7513C81.9553 29.92 93.6417 28.8151 100.034 33.0975Z" fill="url(#paint6_linear_337_214)"/>
<path d="M8.78687 11.1624C9.71247 9.7924 11.143 8.69068 12.8787 8.01102C15.7438 6.91262 23.8952 5.81422 24.3553 6.08882C24.8153 6.36342 20.3845 7.66452 18.0924 8.35102C15.8003 9.03752 9.95712 11.7051 8.78687 11.1624Z" fill="white"/>
<path d="M8.52929 11.731C7.94012 11.7963 6.47123 15.5034 6.56001 16.1115C6.64879 16.7195 8.41629 14.8039 8.6907 13.7708C8.84657 13.0906 8.79111 12.3895 8.52929 11.731Z" fill="white"/>
<path style="mix-blend-mode:screen" d="M19.3917 14.2484C19.6356 14.2358 19.8786 14.2821 20.09 14.3815C20.3013 14.4808 20.4715 14.6288 20.579 14.8065C20.6866 14.9843 20.7266 15.1839 20.694 15.3801C20.6614 15.5763 20.5576 15.7603 20.3959 15.9087C20.2342 16.0571 20.0218 16.1633 19.7855 16.2138C19.5492 16.2644 19.2998 16.257 19.0687 16.1927C18.8376 16.1283 18.6353 16.0098 18.4873 15.8523C18.3394 15.6947 18.2525 15.5051 18.2376 15.3075C18.2178 15.0432 18.3281 14.7832 18.5444 14.5847C18.7608 14.3861 19.0655 14.2652 19.3917 14.2484Z" fill="url(#paint7_radial_337_214)"/>
<path d="M19.5214 14.9673C19.6113 14.9673 19.6975 14.9962 19.761 15.0477C19.8246 15.0992 19.8603 15.169 19.8603 15.2419C19.8603 15.3147 19.8246 15.3845 19.761 15.436C19.6975 15.4875 19.6113 15.5165 19.5214 15.5165C19.4315 15.5165 19.3452 15.4875 19.2817 15.436C19.2181 15.3845 19.1824 15.3147 19.1824 15.2419C19.1824 15.169 19.2181 15.0992 19.2817 15.0477C19.3452 14.9962 19.4315 14.9673 19.5214 14.9673Z" fill="#FFFFAB"/>
<path style="mix-blend-mode:screen" d="M21.0475 9.96549C21.2912 9.95423 21.5335 10.0017 21.7439 10.1019C21.9542 10.2021 22.1232 10.3506 22.2295 10.5285C22.3358 10.7065 22.3746 10.906 22.341 11.1018C22.3074 11.2976 22.203 11.481 22.0408 11.6288C21.8787 11.7765 21.6661 11.8821 21.43 11.932C21.1939 11.982 20.9448 11.9742 20.7142 11.9095C20.4835 11.8449 20.2817 11.7263 20.1342 11.5688C19.9867 11.4114 19.9001 11.222 19.8853 11.0247C19.8744 10.8931 19.896 10.761 19.9487 10.6362C20.0014 10.5114 20.0843 10.3964 20.1924 10.2978C20.3006 10.1992 20.4319 10.119 20.5787 10.062C20.7255 10.0049 20.8849 9.97214 21.0475 9.96549Z" fill="url(#paint8_radial_337_214)"/>
<path d="M21.1917 10.6848C21.2362 10.6848 21.2803 10.6919 21.3214 10.7057C21.3626 10.7195 21.3999 10.7397 21.4314 10.7652C21.4629 10.7907 21.4879 10.821 21.5049 10.8543C21.5219 10.8876 21.5307 10.9234 21.5307 10.9594C21.5307 10.9955 21.5219 11.0312 21.5049 11.0645C21.4879 11.0978 21.4629 11.1281 21.4314 11.1536C21.3999 11.1791 21.3626 11.1993 21.3214 11.2131C21.2803 11.2269 21.2362 11.234 21.1917 11.234C21.101 11.2376 21.0121 11.2122 20.9442 11.1633C20.8763 11.1144 20.8348 11.0459 20.8286 10.9725C20.8261 10.9336 20.8339 10.8948 20.8515 10.8586C20.869 10.8224 20.8958 10.7895 20.9301 10.7623C20.9645 10.7351 21.0055 10.7142 21.0506 10.7008C21.0957 10.6874 21.1438 10.682 21.1917 10.6848Z" fill="#FFFFAB"/>
<path style="mix-blend-mode:screen" d="M20.0539 22.2769C20.2981 22.2643 20.5415 22.3107 20.7531 22.4103C20.9647 22.5099 21.135 22.6582 21.2424 22.8363C21.3498 23.0145 21.3894 23.2145 21.3562 23.4109C21.323 23.6073 21.2185 23.7913 21.056 23.9395C20.8935 24.0877 20.6803 24.1935 20.4434 24.2434C20.2065 24.2932 19.9567 24.285 19.7257 24.2196C19.4946 24.1543 19.2928 24.0348 19.1457 23.8763C18.9987 23.7178 18.9131 23.5275 18.8998 23.3296C18.8821 23.0663 18.9934 22.8081 19.2095 22.6109C19.4256 22.4138 19.7291 22.2938 20.0539 22.2769Z" fill="url(#paint9_radial_337_214)"/>
<path d="M20.2 22.9701C20.2687 22.9663 20.3374 22.9792 20.3971 23.0071C20.4568 23.0349 20.5049 23.0766 20.5353 23.1267C20.5657 23.1768 20.5769 23.2332 20.5676 23.2885C20.5584 23.3438 20.5289 23.3957 20.4831 23.4374C20.4373 23.4791 20.3772 23.5089 20.3105 23.5228C20.2438 23.5368 20.1734 23.5343 20.1084 23.5158C20.0434 23.4972 19.9867 23.4634 19.9455 23.4186C19.9043 23.3738 19.8805 23.3201 19.8771 23.2644C19.8727 23.1909 19.904 23.1189 19.9644 23.0638C20.0247 23.0088 20.1093 22.9752 20.2 22.9701Z" fill="#FFFFAB"/>
<path style="mix-blend-mode:screen" d="M14.2595 7.77578C14.9399 7.74187 15.6175 7.8722 16.2065 8.15031C16.7955 8.42842 17.2694 8.8418 17.5683 9.33816C17.8672 9.83451 17.9777 10.3915 17.8858 10.9388C17.7938 11.486 17.5036 11.9989 17.0518 12.4124C16.6 12.826 16.007 13.1217 15.3476 13.2622C14.6883 13.4027 13.9924 13.3816 13.3479 13.2016C12.7034 13.0216 12.1393 12.6908 11.7269 12.251C11.3145 11.8112 11.0724 11.2823 11.0312 10.731C10.976 9.99239 11.285 9.26625 11.8903 8.71212C12.4957 8.15799 13.3478 7.82121 14.2595 7.77578Z" fill="url(#paint10_radial_337_214)"/>
<path d="M14.6711 9.77593C14.859 9.76717 15.0459 9.80372 15.2082 9.88094C15.3705 9.95817 15.5009 10.0726 15.5829 10.2098C15.665 10.347 15.695 10.5009 15.6692 10.6519C15.6434 10.8029 15.5629 10.9444 15.4379 11.0584C15.313 11.1724 15.1491 11.2539 14.967 11.2925C14.7849 11.3311 14.5928 11.3251 14.4149 11.2754C14.237 11.2256 14.0813 11.1342 13.9675 11.0128C13.8536 10.8914 13.7867 10.7454 13.7753 10.5932C13.762 10.3889 13.8485 10.1886 14.0162 10.0357C14.1839 9.8827 14.4191 9.7894 14.6711 9.77593Z" fill="#FFFFAB"/>
<path style="mix-blend-mode:screen" d="M84.9988 27.9975C85.6792 27.9635 86.3568 28.0939 86.9458 28.372C87.5348 28.6501 88.0087 29.0635 88.3076 29.5598C88.6066 30.0562 88.717 30.6132 88.6251 31.1605C88.5332 31.7077 88.2429 32.2205 87.7911 32.6341C87.3393 33.0477 86.7463 33.3434 86.0869 33.4839C85.4276 33.6244 84.7317 33.6033 84.0872 33.4233C83.4427 33.2433 82.8785 32.9125 82.4661 32.4727C82.0538 32.0329 81.8117 31.5039 81.7705 30.9527C81.7153 30.2141 82.0243 29.4879 82.6296 28.9338C83.2349 28.3797 84.0871 28.0429 84.9988 27.9975Z" fill="url(#paint11_radial_337_214)"/>
<path d="M85.4184 29.9988C85.6063 29.9901 85.7932 30.0266 85.9554 30.1038C86.1177 30.1811 86.2481 30.2955 86.3302 30.4327C86.4122 30.57 86.4422 30.7238 86.4164 30.8748C86.3906 31.0259 86.3102 31.1673 86.1852 31.2813C86.0602 31.3953 85.8963 31.4768 85.7143 31.5154C85.5322 31.554 85.3401 31.548 85.1622 31.4983C84.9843 31.4485 84.8286 31.3571 84.7147 31.2357C84.6009 31.1143 84.534 30.9683 84.5225 30.8161C84.5149 30.7147 84.532 30.6132 84.5729 30.5172C84.6138 30.4212 84.6778 30.3327 84.761 30.2568C84.8442 30.1809 84.9451 30.119 85.0579 30.0747C85.1707 30.0305 85.2932 30.0047 85.4184 29.9988Z" fill="#FFFFAB"/>
<path style="mix-blend-mode:screen" d="M102.787 26.6576C103.103 26.6469 103.416 26.7118 103.687 26.8442C103.958 26.9765 104.176 27.1706 104.312 27.4021C104.448 27.6337 104.497 27.8925 104.453 28.1464C104.408 28.4004 104.273 28.6382 104.063 28.8303C103.854 29.0224 103.579 29.1603 103.273 29.2269C102.967 29.2935 102.644 29.2858 102.344 29.2047C102.044 29.1237 101.779 28.9729 101.584 28.7711C101.389 28.5693 101.271 28.3254 101.245 28.0698C101.221 27.7174 101.369 27.3715 101.658 27.1071C101.946 26.8427 102.352 26.6812 102.787 26.6576Z" fill="url(#paint12_radial_337_214)"/>
<path d="M102.989 27.6189C103.048 27.6153 103.108 27.6216 103.165 27.6372C103.221 27.6529 103.273 27.6776 103.318 27.71C103.362 27.7423 103.398 27.7816 103.423 27.8255C103.449 27.8694 103.463 27.917 103.465 27.9654C103.468 28.0135 103.459 28.0616 103.44 28.107C103.42 28.1524 103.389 28.1942 103.349 28.23C103.31 28.2658 103.262 28.295 103.208 28.3158C103.154 28.3365 103.096 28.3486 103.037 28.3511C102.978 28.3537 102.918 28.3468 102.862 28.3308C102.806 28.3147 102.754 28.2899 102.71 28.2578C102.666 28.2256 102.63 28.1867 102.604 28.1432C102.579 28.0998 102.564 28.0527 102.561 28.0046C102.556 27.9563 102.564 27.9078 102.583 27.862C102.603 27.8162 102.633 27.774 102.673 27.738C102.713 27.7019 102.762 27.6728 102.816 27.6524C102.87 27.6319 102.929 27.6205 102.989 27.6189Z" fill="#FFFFAB"/>
<path style="mix-blend-mode:screen" d="M24.0895 29.09C24.4058 29.0793 24.719 29.1442 24.9901 29.2765C25.2612 29.4089 25.4783 29.603 25.6144 29.8345C25.7504 30.066 25.7994 30.3249 25.7553 30.5788C25.7111 30.8327 25.5758 31.0706 25.3661 31.2627C25.1564 31.4548 24.8816 31.5927 24.5759 31.6593C24.2702 31.7258 23.9471 31.7181 23.6468 31.6371C23.3464 31.556 23.0821 31.4052 22.8868 31.2034C22.6914 31.0017 22.5736 30.7578 22.548 30.5022C22.5304 30.3268 22.5568 30.1502 22.6254 29.9832C22.6941 29.8162 22.8037 29.6622 22.9477 29.5303C23.0916 29.3984 23.267 29.2914 23.4632 29.2158C23.6594 29.1401 23.8724 29.0974 24.0895 29.09Z" fill="url(#paint13_radial_337_214)"/>
<path d="M24.2905 30.044C24.4113 30.0386 24.5298 30.072 24.6204 30.1368C24.711 30.2017 24.7665 30.2928 24.7748 30.3905C24.7794 30.4879 24.7375 30.583 24.6578 30.6561C24.5782 30.7291 24.4669 30.7745 24.347 30.7828C24.287 30.7864 24.2267 30.7802 24.1697 30.7646C24.1126 30.749 24.06 30.7244 24.0149 30.6921C23.9698 30.6598 23.9331 30.6206 23.907 30.5766C23.8809 30.5327 23.8658 30.485 23.8628 30.4363C23.8561 30.3385 23.8973 30.2425 23.9773 30.1691C24.0574 30.0957 24.1699 30.0507 24.2905 30.044Z" fill="#FFFFAB"/>
<path style="mix-blend-mode:screen" d="M71.3519 24.1077C71.5087 24.1081 71.6619 24.1455 71.7929 24.2153C71.9238 24.285 72.0269 24.3842 72.0894 24.5007C72.152 24.6171 72.1713 24.7458 72.145 24.871C72.1187 24.9962 72.048 25.1125 71.9415 25.2057C71.835 25.2989 71.6973 25.3649 71.5452 25.3957C71.3932 25.4266 71.2333 25.4209 71.0852 25.3793C70.937 25.3377 70.8071 25.2621 70.7111 25.1617C70.6151 25.0613 70.5574 24.9404 70.5448 24.8138C70.5359 24.7236 70.5502 24.633 70.5867 24.5475C70.6232 24.462 70.6813 24.3836 70.7571 24.3173C70.833 24.2509 70.925 24.198 71.0274 24.1619C71.1298 24.1259 71.2403 24.1074 71.3519 24.1077Z" fill="url(#paint14_radial_337_214)"/>
<path d="M71.4475 24.5854C71.4778 24.5837 71.5082 24.5869 71.5369 24.5948C71.5657 24.6028 71.5921 24.6154 71.6147 24.6319C71.6372 24.6483 71.6555 24.6683 71.6683 24.6906C71.6811 24.7129 71.6882 24.7371 71.6892 24.7617C71.6916 24.8098 71.6712 24.8568 71.6323 24.8932C71.5934 24.9296 71.5388 24.9526 71.4797 24.9575C71.4494 24.9593 71.419 24.9561 71.3903 24.9481C71.3616 24.9401 71.3351 24.9275 71.3126 24.9111C71.29 24.8946 71.2717 24.8746 71.2589 24.8523C71.2461 24.83 71.239 24.8058 71.238 24.7813C71.2356 24.7332 71.256 24.6861 71.2949 24.6498C71.3338 24.6134 71.3884 24.5904 71.4475 24.5854Z" fill="#FFFFAB"/>
<path style="mix-blend-mode:screen" d="M9.4719 32.614C9.62904 32.6143 9.78264 32.6518 9.91387 32.7218C10.0451 32.7918 10.1482 32.8914 10.2106 33.0082C10.273 33.125 10.292 33.2541 10.2652 33.3795C10.2383 33.5049 10.1669 33.6213 10.0596 33.7143C9.95229 33.8073 9.81382 33.8729 9.66116 33.903C9.5085 33.9332 9.34828 33.9266 9.20018 33.8841C9.05208 33.8415 8.92256 33.7649 8.82745 33.6635C8.73235 33.5622 8.67582 33.4406 8.66482 33.3136C8.65706 33.224 8.67219 33.134 8.70925 33.0493C8.74632 32.9646 8.80455 32.8871 8.88029 32.8214C8.95602 32.7558 9.04763 32.7035 9.14942 32.6678C9.25121 32.6321 9.36099 32.6138 9.4719 32.614Z" fill="url(#paint15_radial_337_214)"/>
<path d="M9.56898 33.0917C9.61345 33.0893 9.65784 33.0975 9.69653 33.1154C9.73522 33.1334 9.76648 33.1602 9.78638 33.1925C9.80628 33.2248 9.8139 33.2611 9.80831 33.297C9.80273 33.3328 9.78417 33.3665 9.75498 33.3938C9.72579 33.421 9.68728 33.4407 9.6443 33.4503C9.60132 33.4599 9.55582 33.4589 9.51351 33.4475C9.4712 33.4362 9.43397 33.4149 9.40657 33.3864C9.37916 33.358 9.36279 33.3236 9.3595 33.2875C9.35731 33.2635 9.36099 33.2394 9.37035 33.2166C9.3797 33.1937 9.39453 33.1726 9.41399 33.1544C9.43346 33.1362 9.45718 33.1213 9.48378 33.1105C9.51038 33.0998 9.53933 33.0934 9.56898 33.0917Z" fill="#FFFFAB"/>
<path style="mix-blend-mode:screen" d="M32.6034 21.1658C32.7601 21.1662 32.9134 21.2036 33.0443 21.2734C33.1753 21.3432 33.2783 21.4423 33.3409 21.5588C33.4034 21.6752 33.4227 21.8039 33.3965 21.9291C33.3702 22.0543 33.2995 22.1706 33.193 22.2638C33.0865 22.357 32.9488 22.423 32.7967 22.4538C32.6446 22.4847 32.4848 22.479 32.3367 22.4374C32.1885 22.3958 32.0585 22.3202 31.9626 22.2198C31.8666 22.1194 31.8088 21.9985 31.7963 21.8719C31.7874 21.7818 31.8016 21.6911 31.8382 21.6056C31.8747 21.5202 31.9327 21.4417 32.0086 21.3754C32.0844 21.309 32.1765 21.2561 32.2788 21.22C32.3812 21.184 32.4917 21.1655 32.6034 21.1658Z" fill="url(#paint16_radial_337_214)"/>
<path d="M32.7005 21.6232C32.745 21.6208 32.7894 21.629 32.8281 21.6469C32.8668 21.6649 32.898 21.6917 32.9179 21.724C32.9378 21.7563 32.9454 21.7926 32.9398 21.8285C32.9343 21.8643 32.9157 21.898 32.8865 21.9252C32.8573 21.9525 32.8188 21.9722 32.7759 21.9818C32.7329 21.9913 32.6874 21.9904 32.6451 21.979C32.6028 21.9677 32.5656 21.9464 32.5382 21.9179C32.5107 21.8895 32.4944 21.855 32.4911 21.819C32.4889 21.795 32.4926 21.7709 32.5019 21.748C32.5113 21.7252 32.5261 21.7041 32.5456 21.6859C32.565 21.6677 32.5888 21.6528 32.6154 21.642C32.6419 21.6313 32.6709 21.6249 32.7005 21.6232Z" fill="#FFFFAB"/>
<path style="mix-blend-mode:screen" d="M21.1838 31.6267C21.3468 31.6212 21.5061 31.6672 21.6281 31.7551C21.7501 31.8429 21.8251 31.9656 21.8376 32.0974C21.8419 32.1627 21.8303 32.228 21.8034 32.2897C21.7766 32.3513 21.735 32.408 21.681 32.4566C21.627 32.5052 21.5617 32.5447 21.4889 32.5728C21.416 32.6009 21.337 32.6171 21.2565 32.6205C21.1763 32.6249 21.0958 32.6163 21.0198 32.5953C20.9437 32.5743 20.8736 32.5412 20.8135 32.498C20.7534 32.4548 20.7045 32.4023 20.6697 32.3437C20.6349 32.285 20.6149 32.2213 20.6108 32.1563C20.6053 32.091 20.6158 32.0255 20.6417 31.9635C20.6675 31.9015 20.7082 31.8442 20.7615 31.795C20.8147 31.7458 20.8794 31.7056 20.9519 31.6767C21.0244 31.6478 21.1032 31.6308 21.1838 31.6267Z" fill="url(#paint17_radial_337_214)"/>
<path d="M21.2561 31.986C21.279 31.9842 21.3022 31.9862 21.3241 31.9919C21.346 31.9976 21.3663 32.0068 21.3836 32.0191C21.401 32.0313 21.4151 32.0463 21.4251 32.0631C21.4351 32.0798 21.4408 32.0981 21.4418 32.1167C21.4402 32.1523 21.4231 32.1863 21.3936 32.2126C21.364 32.239 21.3239 32.256 21.2803 32.2606C21.2578 32.2624 21.2351 32.2604 21.2136 32.2547C21.1921 32.2489 21.1723 32.2396 21.1556 32.2272C21.1389 32.2149 21.1255 32.1999 21.1164 32.1831C21.1073 32.1663 21.1027 32.1482 21.1028 32.1298C21.1005 32.0945 21.1152 32.0597 21.1438 32.0329C21.1723 32.0061 21.2126 31.9893 21.2561 31.986Z" fill="#FFFFAB"/>
<path style="mix-blend-mode:screen" d="M63.8292 32.9603C63.9977 32.9522 64.1666 32.971 64.3261 33.0157C64.4857 33.0604 64.6328 33.1301 64.7591 33.2209C64.8854 33.3117 64.9883 33.4217 65.0621 33.5447C65.1359 33.6677 65.1791 33.8013 65.1891 33.9378C65.1992 34.0743 65.176 34.2111 65.1208 34.3403C65.0656 34.4696 64.9795 34.5888 64.8675 34.6911C64.7555 34.7934 64.6196 34.8768 64.4678 34.9365C64.316 34.9963 64.1511 35.0313 63.9826 35.0394C63.6422 35.0559 63.3077 34.9622 63.0527 34.7789C62.7977 34.5956 62.643 34.3377 62.6227 34.062C62.6023 33.7863 62.718 33.5153 62.9443 33.3087C63.1706 33.1021 63.4889 32.9768 63.8292 32.9603Z" fill="url(#paint18_radial_337_214)"/>
<path d="M63.9824 33.7119C64.0293 33.7084 64.0766 33.7125 64.1214 33.7242C64.1662 33.7359 64.2077 33.7549 64.2431 33.78C64.2786 33.8051 64.3074 33.8357 64.3278 33.8701C64.3482 33.9045 64.3598 33.9419 64.3617 33.98C64.3644 34.0178 64.3578 34.0556 64.3424 34.0913C64.327 34.1271 64.3031 34.16 64.272 34.1882C64.2409 34.2164 64.2032 34.2394 64.1612 34.2559C64.1191 34.2723 64.0734 34.2819 64.0268 34.284C63.9802 34.2862 63.9335 34.2809 63.8894 34.2684C63.8453 34.2559 63.8046 34.2365 63.7698 34.2113C63.7349 34.1861 63.7066 34.1556 63.6863 34.1216C63.666 34.0875 63.6542 34.0505 63.6515 34.0127C63.6471 33.9375 63.6793 33.8638 63.7411 33.8076C63.803 33.7513 63.8896 33.717 63.9824 33.7119Z" fill="#FFFFAB"/>
<path style="mix-blend-mode:screen" d="M36.7355 33.712C36.9884 33.7008 37.2397 33.7505 37.4578 33.8548C37.6759 33.9591 37.851 34.1133 37.9611 34.2981C38.0712 34.4829 38.1114 34.6899 38.0765 34.8931C38.0416 35.0963 37.9334 35.2866 37.7652 35.4401C37.5971 35.5935 37.3767 35.7032 37.1318 35.7554C36.8868 35.8076 36.6283 35.7998 36.3888 35.7332C36.1492 35.6666 35.9394 35.544 35.7856 35.381C35.6319 35.2179 35.5412 35.0217 35.5249 34.8169C35.505 34.5405 35.6213 34.2689 35.8483 34.0617C36.0752 33.8546 36.3943 33.7288 36.7355 33.712Z" fill="url(#paint19_radial_337_214)"/>
<path d="M36.8899 34.4576C36.9365 34.4558 36.9832 34.4615 37.0271 34.4744C37.071 34.4872 37.1113 34.507 37.1458 34.5325C37.1803 34.558 37.2082 34.5888 37.228 34.623C37.2478 34.6573 37.2591 34.6944 37.2612 34.7322C37.2644 34.7696 37.2584 34.8072 37.2434 34.8428C37.2285 34.8783 37.2049 34.9111 37.174 34.9391C37.1432 34.9671 37.1057 34.9899 37.0639 35.006C37.022 35.0221 36.9766 35.0313 36.9303 35.0329C36.8836 35.0356 36.8368 35.0308 36.7924 35.0187C36.7481 35.0067 36.7071 34.9876 36.6718 34.9627C36.6366 34.9378 36.6078 34.9075 36.587 34.8736C36.5663 34.8396 36.554 34.8027 36.5509 34.7649C36.5465 34.6879 36.5795 34.6126 36.6429 34.5551C36.7063 34.4977 36.795 34.4626 36.8899 34.4576Z" fill="#FFFFAB"/>
<path d="M98.9696 34.6993C98.558 34.1043 102.198 31.3975 103.126 31.4302C104.054 31.4629 103.223 33.2151 102.666 33.627C102.109 34.0389 99.1794 34.9804 98.9696 34.6993Z" fill="white"/>
<defs>
<linearGradient id="paint0_linear_337_214" x1="56.291" y1="44.003" x2="56.291" y2="2.0153" gradientUnits="userSpaceOnUse">
<stop stop-color="#8B9AD1"/>
<stop offset="1" stop-color="#CEE0FF"/>
</linearGradient>
<linearGradient id="paint1_linear_337_214" x1="56.2921" y1="42.637" x2="56.2921" y2="0.649345" gradientUnits="userSpaceOnUse">
<stop stop-color="#CADCFF"/>
<stop offset="1" stop-color="white"/>
</linearGradient>
<radialGradient id="paint2_radial_337_214" cx="0" cy="0" r="1" gradientUnits="userSpaceOnUse" gradientTransform="translate(56.9694 37.2035) scale(39.9419 32.357)">
<stop stop-color="#FFBD00"/>
<stop offset="1" stop-color="#FF772C"/>
</radialGradient>
<linearGradient id="paint3_linear_337_214" x1="55.2992" y1="37.8765" x2="55.2992" y2="3.22463" gradientUnits="userSpaceOnUse">
<stop stop-color="#FFF300"/>
<stop offset="1" stop-color="#FF9700"/>
</linearGradient>
<linearGradient id="paint4_linear_337_214" x1="55.2987" y1="37.2232" x2="55.2987" y2="3.59774" gradientUnits="userSpaceOnUse">
<stop stop-color="#FFCC00"/>
<stop offset="1" stop-color="#FF9700"/>
</linearGradient>
<linearGradient id="paint5_linear_337_214" x1="10.9905" y1="10.3516" x2="104.239" y2="10.3516" gradientUnits="userSpaceOnUse">
<stop stop-color="#FF9840"/>
<stop offset="0.1" stop-color="#EF8E3C"/>
<stop offset="0.29" stop-color="#C57531"/>
<stop offset="0.55" stop-color="#814D20"/>
<stop offset="0.88" stop-color="#241609"/>
<stop offset="1"/>
</linearGradient>
<linearGradient id="paint6_linear_337_214" x1="100.026" y1="33.0648" x2="11.1348" y2="33.0648" gradientUnits="userSpaceOnUse">
<stop stop-color="#FF6140"/>
<stop offset="0.1" stop-color="#EF5B3C"/>
<stop offset="0.29" stop-color="#C54B31"/>
<stop offset="0.55" stop-color="#813120"/>
<stop offset="0.88" stop-color="#240E09"/>
<stop offset="1"/>
</linearGradient>
<radialGradient id="paint7_radial_337_214" cx="0" cy="0" r="1" gradientUnits="userSpaceOnUse" gradientTransform="translate(1861.63 -592.337) scale(3.77855 3.06103)">
<stop stop-color="#00B359"/>
<stop offset="0.13" stop-color="#009148"/>
<stop offset="0.34" stop-color="#005E2F"/>
<stop offset="0.54" stop-color="#00351A"/>
<stop offset="0.73" stop-color="#00180C"/>
<stop offset="0.89" stop-color="#000603"/>
<stop offset="1"/>
</radialGradient>
<radialGradient id="paint8_radial_337_214" cx="0" cy="0" r="1" gradientUnits="userSpaceOnUse" gradientTransform="translate(1879.52 -591.69) scale(3.77935 3.06099)">
<stop stop-color="#00B359"/>
<stop offset="0.13" stop-color="#009148"/>
<stop offset="0.34" stop-color="#005E2F"/>
<stop offset="0.54" stop-color="#00351A"/>
<stop offset="0.73" stop-color="#00180C"/>
<stop offset="0.89" stop-color="#000603"/>
<stop offset="1"/>
</radialGradient>
<radialGradient id="paint9_radial_337_214" cx="0" cy="0" r="1" gradientUnits="userSpaceOnUse" gradientTransform="translate(1831.99 -584.061) scale(3.77855 3.06099)">
<stop stop-color="#00B359"/>
<stop offset="0.13" stop-color="#009148"/>
<stop offset="0.34" stop-color="#005E2F"/>
<stop offset="0.54" stop-color="#00351A"/>
<stop offset="0.73" stop-color="#00180C"/>
<stop offset="0.89" stop-color="#000603"/>
<stop offset="1"/>
</radialGradient>
<radialGradient id="paint10_radial_337_214" cx="0" cy="0" r="1" gradientUnits="userSpaceOnUse" gradientTransform="translate(5207.45 -1717.1) scale(29.4304 23.8417)">
<stop stop-color="#00B359"/>
<stop offset="0.13" stop-color="#009148"/>
<stop offset="0.34" stop-color="#005E2F"/>
<stop offset="0.54" stop-color="#00351A"/>
<stop offset="0.73" stop-color="#00180C"/>
<stop offset="0.89" stop-color="#000603"/>
<stop offset="1"/>
</radialGradient>
<radialGradient id="paint11_radial_337_214" cx="0" cy="0" r="1" gradientUnits="userSpaceOnUse" gradientTransform="translate(5029.42 -1218.59) scale(29.4306 23.8417)">
<stop stop-color="#00B359"/>
<stop offset="0.13" stop-color="#009148"/>
<stop offset="0.34" stop-color="#005E2F"/>
<stop offset="0.54" stop-color="#00351A"/>
<stop offset="0.73" stop-color="#00180C"/>
<stop offset="0.89" stop-color="#000603"/>
<stop offset="1"/>
</radialGradient>
<radialGradient id="paint12_radial_337_214" cx="0" cy="0" r="1" gradientUnits="userSpaceOnUse" gradientTransform="translate(2426.27 -499.371) scale(6.58027 5.33507)">
<stop stop-color="#00B359"/>
<stop offset="0.13" stop-color="#009148"/>
<stop offset="0.34" stop-color="#005E2F"/>
<stop offset="0.54" stop-color="#00351A"/>
<stop offset="0.73" stop-color="#00180C"/>
<stop offset="0.89" stop-color="#000603"/>
<stop offset="1"/>
</radialGradient>
<radialGradient id="paint13_radial_337_214" cx="0" cy="0" r="1" gradientUnits="userSpaceOnUse" gradientTransform="translate(2356.3 -752.08) scale(6.58578 5.33507)">
<stop stop-color="#00B359"/>
<stop offset="0.13" stop-color="#009148"/>
<stop offset="0.34" stop-color="#005E2F"/>
<stop offset="0.54" stop-color="#00351A"/>
<stop offset="0.73" stop-color="#00180C"/>
<stop offset="0.89" stop-color="#000603"/>
<stop offset="1"/>
</radialGradient>
<radialGradient id="paint14_radial_337_214" cx="0" cy="0" r="1" gradientUnits="userSpaceOnUse" gradientTransform="translate(1245.73 -289.451) scale(1.64646 1.33379)">
<stop stop-color="#00B359"/>
<stop offset="0.13" stop-color="#009148"/>
<stop offset="0.34" stop-color="#005E2F"/>
<stop offset="0.54" stop-color="#00351A"/>
<stop offset="0.73" stop-color="#00180C"/>
<stop offset="0.89" stop-color="#000603"/>
<stop offset="1"/>
</radialGradient>
<radialGradient id="paint15_radial_337_214" cx="0" cy="0" r="1" gradientUnits="userSpaceOnUse" gradientTransform="translate(1170.27 -382.038) scale(1.64646 1.33379)">
<stop stop-color="#00B359"/>
<stop offset="0.13" stop-color="#009148"/>
<stop offset="0.34" stop-color="#005E2F"/>
<stop offset="0.54" stop-color="#00351A"/>
<stop offset="0.73" stop-color="#00180C"/>
<stop offset="0.89" stop-color="#000603"/>
<stop offset="1"/>
</radialGradient>
<radialGradient id="paint16_radial_337_214" cx="0" cy="0" r="1" gradientUnits="userSpaceOnUse" gradientTransform="translate(1218.86 -354.715) scale(1.64646 1.33379)">
<stop stop-color="#00B359"/>
<stop offset="0.13" stop-color="#009148"/>
<stop offset="0.34" stop-color="#005E2F"/>
<stop offset="0.54" stop-color="#00351A"/>
<stop offset="0.73" stop-color="#00180C"/>
<stop offset="0.89" stop-color="#000603"/>
<stop offset="1"/>
</radialGradient>
<radialGradient id="paint17_radial_337_214" cx="0" cy="0" r="1" gradientUnits="userSpaceOnUse" gradientTransform="translate(906.183 -269.51) scale(0.934098 0.756499)">
<stop stop-color="#00B359"/>
<stop offset="0.13" stop-color="#009148"/>
<stop offset="0.34" stop-color="#005E2F"/>
<stop offset="0.54" stop-color="#00351A"/>
<stop offset="0.73" stop-color="#00180C"/>
<stop offset="0.89" stop-color="#000603"/>
<stop offset="1"/>
</radialGradient>
<radialGradient id="paint18_radial_337_214" cx="0" cy="0" r="1" gradientUnits="userSpaceOnUse" gradientTransform="translate(1899.65 -487.534) scale(4.08799 3.31166)">
<stop stop-color="#00B359"/>
<stop offset="0.13" stop-color="#009148"/>
<stop offset="0.34" stop-color="#005E2F"/>
<stop offset="0.54" stop-color="#00351A"/>
<stop offset="0.73" stop-color="#00180C"/>
<stop offset="0.89" stop-color="#000603"/>
<stop offset="1"/>
</radialGradient>
<radialGradient id="paint19_radial_337_214" cx="0" cy="0" r="1" gradientUnits="userSpaceOnUse" gradientTransform="translate(1871.15 -555.699) scale(4.07998 3.3058)">
<stop stop-color="#00B359"/>
<stop offset="0.13" stop-color="#009148"/>
<stop offset="0.34" stop-color="#005E2F"/>
<stop offset="0.54" stop-color="#00351A"/>
<stop offset="0.73" stop-color="#00180C"/>
<stop offset="0.89" stop-color="#000603"/>
<stop offset="1"/>
</radialGradient>
</defs>
</svg>
