<svg width="26" height="23" viewBox="0 0 26 23" fill="none" xmlns="http://www.w3.org/2000/svg">
<path d="M24.6039 19.5464L24.6027 19.549C24.4342 19.9003 24.0283 20.2889 23.2931 20.6642C22.5711 21.0327 21.6139 21.3462 20.4775 21.5945C18.2077 22.0905 15.3368 22.3022 12.478 22.2392C9.61835 22.1761 6.81833 21.8392 4.68867 21.2625C3.62108 20.9733 2.75753 20.6333 2.14565 20.2604C1.51755 19.8777 1.26534 19.5295 1.2018 19.2693L0.474201 19.447L1.20196 19.2699C0.682022 17.1326 0.632656 13.7506 0.941667 10.4981C1.09516 8.88253 1.33477 7.32381 1.63881 5.99679C1.94604 4.65581 2.30653 3.60854 2.67764 2.97464C2.80155 2.76888 3.11103 2.4955 3.7039 2.20785C4.27998 1.92835 5.04041 1.67516 5.94417 1.46114C7.74924 1.03367 10.0349 0.783594 12.35 0.75315C14.6664 0.722689 16.9723 0.91266 18.8221 1.34453C19.7473 1.56054 20.5344 1.83161 21.1444 2.15077C21.7602 2.47302 22.1409 2.8156 22.3337 3.14642C23.1209 4.50504 24.1734 7.65438 24.7773 11.013C25.0771 12.68 25.2601 14.366 25.2496 15.8733C25.2389 17.3955 25.0307 18.6649 24.6039 19.5464Z" stroke="white" stroke-width="1.5"/>
</svg>
