<svg width="116" height="53" viewBox="0 0 116 53" fill="none" xmlns="http://www.w3.org/2000/svg">
<path d="M111.42 46.2444C111.314 46.3522 111.197 46.4507 111.071 46.5388C101.224 54.0329 15.8795 53.7694 3.99504 47.0348C3.47666 46.7836 3.04659 46.399 2.75588 45.9266C-1.46063 37.7506 0.826415 13.145 7.52127 7.82092C14.7068 2.11708 100.551 -0.463586 109.424 6.79021C115.936 12.1066 119.038 38.7736 111.42 46.2444Z" fill="url(#paint0_linear_103_96)"/>
<path d="M2.77372 44.3147C6.83222 52.2039 103.064 52.8394 111.438 44.6324C119.056 37.1771 115.954 10.4946 109.442 5.17054C100.569 -2.0755 14.7247 0.52067 7.53914 6.20901C0.827643 11.5254 -1.45943 36.1309 2.77372 44.3147Z" fill="url(#paint1_linear_103_96)"/>
<path d="M6.68994 41.626C6.68994 41.626 19.6888 48.0738 59.7082 48.0738C99.7277 48.0738 106.156 41.595 106.156 41.595L6.68994 41.626Z" fill="white"/>
<g style="mix-blend-mode:multiply">
<path d="M111.071 41.6175V46.5231C101.225 54.0172 15.8798 53.7537 3.99536 47.0191L4.24485 45.5389L6.68993 41.602L109.308 37.1614L111.071 41.6175Z" fill="#CED6FF"/>
</g>
<path d="M5.75839 40.7342C9.45096 47.895 98.8294 49.91 106.439 42.4624C113.35 35.6969 110.539 11.4633 104.626 6.63517C96.5673 0.0556033 17.1521 4.67448 10.6486 9.85908C4.54417 14.6872 1.94108 33.3487 5.75839 40.7342Z" fill="url(#paint2_radial_103_96)"/>
<path d="M6.10026 39.4711C9.7762 46.3762 98.6224 46.8722 106.199 39.6881C113.093 33.1628 110.357 11.5797 104.494 6.92205C96.4601 0.574984 17.3443 5.03111 10.8407 10.022C4.74467 14.6873 2.24968 32.3103 6.10026 39.4711Z" fill="url(#paint3_linear_103_96)"/>
<path d="M7.16385 38.8584C10.7566 45.5619 97.6817 46.0347 105.1 39.0676C111.845 32.7361 109.192 11.7962 103.437 7.29355C95.5776 1.09372 18.1667 5.45685 11.8128 10.3005C5.87478 14.8108 3.43802 31.9068 7.16385 38.8584Z" fill="url(#paint4_linear_103_96)"/>
<path style="mix-blend-mode:screen" d="M11.5798 10.3244C11.5798 10.3244 72.1912 -1.1298 103.636 7.38721C105.574 9.87428 106.947 12.7039 107.67 15.7027C98.7161 18.3471 89.4199 19.8513 80.0337 20.1743C63.8579 20.8641 46.9503 12.3471 33.2861 11.0761C19.622 9.80515 11.5798 10.3244 11.5798 10.3244Z" fill="url(#paint5_linear_103_96)"/>
<path style="mix-blend-mode:screen" d="M103.336 39.1997C103.336 39.1997 62.7846 45.8567 11.729 39.9746C11.729 39.9746 44.8956 42.6561 59.6576 39.9746C84.7072 35.4333 96.7496 34.1236 103.336 39.1997Z" fill="url(#paint6_linear_103_96)"/>
<path d="M9.30957 13.1994C10.2634 11.5755 11.7375 10.2697 13.5261 9.46404C16.4785 8.16207 24.8783 6.86011 25.3523 7.1856C25.8263 7.51109 21.2606 9.05331 18.8986 9.86704C16.5367 10.6808 10.5155 13.8427 9.30957 13.1994Z" fill="white"/>
<path d="M9.04376 13.8735C8.43663 13.951 6.92298 18.3452 7.01447 19.0659C7.10595 19.7866 8.92731 17.5159 9.21007 16.2915C9.37069 15.4851 9.31355 14.6542 9.04376 13.8735Z" fill="white"/>
<path style="mix-blend-mode:screen" d="M20.2373 16.8571C20.4886 16.8422 20.739 16.8971 20.9568 17.0149C21.1746 17.1327 21.3499 17.308 21.4607 17.5188C21.5715 17.7295 21.6128 17.9661 21.5792 18.1986C21.5456 18.4312 21.4387 18.6492 21.272 18.8251C21.1054 19.0011 20.8865 19.127 20.643 19.1869C20.3996 19.2468 20.1425 19.238 19.9044 19.1618C19.6662 19.0855 19.4578 18.945 19.3053 18.7583C19.1529 18.5715 19.0633 18.3468 19.048 18.1126C19.0275 17.7993 19.1412 17.4911 19.3642 17.2558C19.5871 17.0204 19.9011 16.8771 20.2373 16.8571Z" fill="url(#paint7_radial_103_96)"/>
<path d="M20.371 17.7095C20.4637 17.7095 20.5525 17.7438 20.618 17.8048C20.6835 17.8658 20.7203 17.9486 20.7203 18.0349C20.7203 18.1213 20.6835 18.2041 20.618 18.2651C20.5525 18.3261 20.4637 18.3604 20.371 18.3604C20.2784 18.3604 20.1895 18.3261 20.124 18.2651C20.0585 18.2041 20.0217 18.1213 20.0217 18.0349C20.0217 17.9486 20.0585 17.8658 20.124 17.8048C20.1895 17.7438 20.2784 17.7095 20.371 17.7095Z" fill="#FFFFAB"/>
<path style="mix-blend-mode:screen" d="M21.9434 11.7812C22.1944 11.7679 22.4441 11.8241 22.6609 11.9429C22.8777 12.0617 23.0518 12.2377 23.1613 12.4486C23.2709 12.6596 23.3108 12.896 23.2762 13.1281C23.2416 13.3602 23.134 13.5776 22.9669 13.7527C22.7999 13.9279 22.5808 14.053 22.3375 14.1122C22.0942 14.1714 21.8375 14.1622 21.5999 14.0856C21.3622 14.0089 21.1542 13.8684 21.0022 13.6817C20.8502 13.495 20.761 13.2706 20.7458 13.0367C20.7345 12.8807 20.7567 12.7242 20.811 12.5762C20.8654 12.4283 20.9508 12.2919 21.0622 12.1751C21.1737 12.0582 21.309 11.9632 21.4603 11.8956C21.6116 11.828 21.7758 11.7891 21.9434 11.7812Z" fill="url(#paint8_radial_103_96)"/>
<path d="M22.0929 12.6337C22.1388 12.6337 22.1842 12.6421 22.2266 12.6585C22.269 12.6748 22.3075 12.6988 22.3399 12.729C22.3723 12.7592 22.3981 12.7951 22.4156 12.8346C22.4332 12.8741 22.4422 12.9164 22.4422 12.9592C22.4422 13.0019 22.4332 13.0443 22.4156 13.0838C22.3981 13.1232 22.3723 13.1591 22.3399 13.1894C22.3075 13.2196 22.269 13.2436 22.2266 13.2599C22.1842 13.2763 22.1388 13.2847 22.0929 13.2847C21.9994 13.2889 21.9079 13.2589 21.8379 13.2009C21.7679 13.1429 21.7251 13.0617 21.7187 12.9747C21.7162 12.9286 21.7243 12.8826 21.7423 12.8397C21.7603 12.7967 21.788 12.7578 21.8234 12.7256C21.8588 12.6933 21.9011 12.6685 21.9475 12.6526C21.994 12.6368 22.0436 12.6303 22.0929 12.6337Z" fill="#FFFFAB"/>
<path style="mix-blend-mode:screen" d="M20.9202 26.374C21.1718 26.359 21.4226 26.414 21.6406 26.5321C21.8587 26.6501 22.0342 26.8259 22.1449 27.037C22.2555 27.2482 22.2963 27.4853 22.2621 27.7181C22.2279 27.9509 22.1203 28.169 21.9528 28.3447C21.7853 28.5204 21.5656 28.6458 21.3215 28.7049C21.0775 28.764 20.82 28.7542 20.582 28.6767C20.3439 28.5993 20.1359 28.4576 19.9843 28.2698C19.8328 28.0819 19.7446 27.8564 19.7309 27.6217C19.7127 27.3097 19.8274 27.0035 20.0501 26.7699C20.2728 26.5362 20.5855 26.394 20.9202 26.374Z" fill="url(#paint9_radial_103_96)"/>
<path d="M21.0704 27.1956C21.1413 27.1911 21.212 27.2063 21.2735 27.2394C21.3351 27.2724 21.3846 27.3218 21.4159 27.3812C21.4472 27.4406 21.4589 27.5074 21.4493 27.573C21.4397 27.6385 21.4094 27.7 21.3622 27.7495C21.315 27.7989 21.2531 27.8342 21.1843 27.8507C21.1155 27.8673 21.043 27.8644 20.976 27.8424C20.909 27.8204 20.8506 27.7803 20.8082 27.7272C20.7657 27.6741 20.7412 27.6105 20.7377 27.5444C20.7332 27.4572 20.7654 27.3719 20.8276 27.3067C20.8898 27.2415 20.977 27.2016 21.0704 27.1956Z" fill="#FFFFAB"/>
<path style="mix-blend-mode:screen" d="M14.9488 9.18496C15.65 9.14476 16.3482 9.29925 16.9551 9.6289C17.5621 9.95855 18.0505 10.4485 18.3585 11.0369C18.6665 11.6252 18.7804 12.2855 18.6856 12.9341C18.5909 13.5828 18.2918 14.1907 17.8263 14.6809C17.3607 15.1711 16.7496 15.5217 16.0702 15.6882C15.3908 15.8547 14.6736 15.8297 14.0095 15.6163C13.3454 15.403 12.764 15.0109 12.3391 14.4896C11.9141 13.9683 11.6647 13.3413 11.6222 12.6879C11.5653 11.8124 11.8838 10.9517 12.5075 10.2948C13.1313 9.638 14.0094 9.23881 14.9488 9.18496Z" fill="url(#paint10_radial_103_96)"/>
<path d="M15.3727 11.5562C15.5664 11.5458 15.759 11.5891 15.9262 11.6807C16.0934 11.7722 16.2278 11.9078 16.3124 12.0705C16.3969 12.2332 16.4278 12.4155 16.4012 12.5945C16.3746 12.7735 16.2917 12.9412 16.1629 13.0763C16.0342 13.2115 15.8653 13.308 15.6777 13.3538C15.49 13.3996 15.2921 13.3925 15.1088 13.3335C14.9254 13.2745 14.765 13.1662 14.6477 13.0223C14.5304 12.8784 14.4614 12.7053 14.4496 12.5249C14.4359 12.2828 14.5251 12.0454 14.6979 11.8641C14.8707 11.6828 15.1131 11.5722 15.3727 11.5562Z" fill="#FFFFAB"/>
<path style="mix-blend-mode:screen" d="M87.8434 33.1547C88.5446 33.1145 89.2428 33.269 89.8498 33.5986C90.4567 33.9283 90.9451 34.4183 91.2531 35.0066C91.5611 35.5949 91.675 36.2552 91.5802 36.9039C91.4855 37.5525 91.1864 38.1604 90.7209 38.6506C90.2553 39.1408 89.6441 39.4914 88.9647 39.6579C88.2853 39.8244 87.5682 39.7994 86.9041 39.5861C86.2399 39.3727 85.6586 38.9806 85.2336 38.4593C84.8087 37.938 84.5592 37.311 84.5168 36.6576C84.4599 35.7821 84.7783 34.9214 85.4021 34.2646C86.0258 33.6077 86.9039 33.2085 87.8434 33.1547Z" fill="url(#paint11_radial_103_96)"/>
<path d="M88.276 35.5264C88.4697 35.516 88.6622 35.5593 88.8295 35.6509C88.9967 35.7424 89.1311 35.8781 89.2156 36.0407C89.3002 36.2034 89.3311 36.3857 89.3045 36.5648C89.2779 36.7438 89.195 36.9114 89.0662 37.0466C88.9374 37.1817 88.7686 37.2783 88.5809 37.324C88.3933 37.3698 88.1954 37.3627 88.0121 37.3037C87.8287 37.2447 87.6683 37.1364 87.5509 36.9925C87.4336 36.8486 87.3647 36.6755 87.3529 36.4951C87.345 36.375 87.3627 36.2546 87.4048 36.1408C87.447 36.0271 87.5129 35.9222 87.5986 35.8322C87.6844 35.7422 87.7884 35.6688 87.9046 35.6164C88.0209 35.5639 88.1471 35.5333 88.276 35.5264Z" fill="#FFFFAB"/>
<path style="mix-blend-mode:screen" d="M106.173 31.5668C106.499 31.5541 106.822 31.631 107.101 31.7879C107.381 31.9448 107.605 32.1748 107.745 32.4492C107.885 32.7237 107.935 33.0305 107.89 33.3315C107.844 33.6325 107.705 33.9144 107.489 34.1421C107.273 34.3698 106.99 34.5333 106.675 34.6122C106.36 34.6911 106.027 34.682 105.717 34.5859C105.408 34.4898 105.135 34.3111 104.934 34.0719C104.733 33.8328 104.611 33.5437 104.585 33.2407C104.56 32.823 104.713 32.4129 105.01 32.0995C105.307 31.7861 105.725 31.5947 106.173 31.5668Z" fill="url(#paint12_radial_103_96)"/>
<path d="M106.381 32.7055C106.442 32.7013 106.504 32.7087 106.562 32.7272C106.621 32.7458 106.674 32.7751 106.72 32.8135C106.766 32.8518 106.803 32.8984 106.829 32.9504C106.855 33.0025 106.87 33.0589 106.872 33.1162C106.875 33.1732 106.866 33.2302 106.846 33.2841C106.825 33.3379 106.794 33.3874 106.753 33.4299C106.712 33.4723 106.662 33.5069 106.607 33.5315C106.552 33.5561 106.492 33.5704 106.431 33.5734C106.37 33.5765 106.309 33.5683 106.251 33.5493C106.193 33.5303 106.14 33.5009 106.094 33.4628C106.049 33.4246 106.012 33.3785 105.985 33.327C105.959 33.2755 105.943 33.2197 105.94 33.1627C105.936 33.1055 105.944 33.048 105.964 32.9936C105.983 32.9393 106.015 32.8893 106.056 32.8466C106.097 32.8039 106.147 32.7694 106.203 32.7452C106.259 32.7209 106.319 32.7074 106.381 32.7055Z" fill="#FFFFAB"/>
<path style="mix-blend-mode:screen" d="M25.0783 34.4493C25.4042 34.4367 25.727 34.5135 26.0063 34.6705C26.2857 34.8274 26.5094 35.0574 26.6496 35.3318C26.7898 35.6063 26.8403 35.9131 26.7948 36.2141C26.7493 36.5151 26.6098 36.797 26.3938 37.0247C26.1777 37.2524 25.8945 37.4159 25.5795 37.4948C25.2645 37.5737 24.9315 37.5645 24.6221 37.4685C24.3126 37.3724 24.0402 37.1936 23.8389 36.9545C23.6376 36.7153 23.5162 36.4262 23.4898 36.1233C23.4717 35.9153 23.4989 35.7061 23.5696 35.5081C23.6404 35.3101 23.7533 35.1275 23.9016 34.9712C24.05 34.8149 24.2307 34.6881 24.4329 34.5984C24.6351 34.5088 24.8546 34.4581 25.0783 34.4493Z" fill="url(#paint13_radial_103_96)"/>
<path d="M25.2855 35.5805C25.4099 35.5741 25.532 35.6136 25.6254 35.6905C25.7188 35.7674 25.776 35.8754 25.7845 35.9913C25.7893 36.1067 25.7461 36.2194 25.664 36.306C25.5819 36.3926 25.4673 36.4464 25.3437 36.4563C25.2819 36.4605 25.2197 36.4531 25.161 36.4346C25.1022 36.4161 25.048 36.3869 25.0015 36.3487C24.955 36.3104 24.9172 36.2639 24.8903 36.2118C24.8634 36.1598 24.8479 36.1032 24.8447 36.0455C24.8379 35.9296 24.8803 35.8158 24.9628 35.7287C25.0453 35.6417 25.1612 35.5885 25.2855 35.5805Z" fill="#FFFFAB"/>
<path style="mix-blend-mode:screen" d="M73.7806 28.5437C73.9422 28.5442 74.1001 28.5885 74.235 28.6712C74.37 28.754 74.4762 28.8715 74.5406 29.0096C74.605 29.1476 74.625 29.3001 74.5979 29.4485C74.5708 29.5969 74.498 29.7348 74.3882 29.8452C74.2785 29.9557 74.1366 30.034 73.9798 30.0705C73.8231 30.107 73.6584 30.1003 73.5058 30.051C73.3531 30.0017 73.2192 29.9121 73.1203 29.7931C73.0214 29.674 72.9619 29.5307 72.949 29.3807C72.9397 29.2738 72.9544 29.1664 72.9921 29.0651C73.0298 28.9638 73.0895 28.8708 73.1677 28.7922C73.2459 28.7135 73.3407 28.6508 73.4462 28.608C73.5517 28.5653 73.6656 28.5434 73.7806 28.5437Z" fill="url(#paint14_radial_103_96)"/>
<path d="M73.8798 29.1099C73.911 29.1078 73.9424 29.1116 73.9721 29.1211C74.0017 29.1306 74.029 29.1456 74.0523 29.1651C74.0756 29.1846 74.0945 29.2083 74.1077 29.2348C74.1209 29.2613 74.1282 29.29 74.1293 29.3192C74.1317 29.3763 74.1107 29.4321 74.0705 29.4753C74.0304 29.5185 73.9741 29.5458 73.9131 29.5517C73.8818 29.5538 73.8504 29.55 73.8207 29.5405C73.7911 29.531 73.7638 29.5161 73.7405 29.4965C73.7172 29.477 73.6984 29.4533 73.6851 29.4268C73.6719 29.4003 73.6646 29.3716 73.6635 29.3424C73.6611 29.2853 73.6821 29.2295 73.7223 29.1863C73.7624 29.1431 73.8188 29.1158 73.8798 29.1099Z" fill="#FFFFAB"/>
<path style="mix-blend-mode:screen" d="M10.0154 38.6267C10.1773 38.6271 10.3356 38.6715 10.4708 38.7545C10.606 38.8375 10.7123 38.9555 10.7766 39.0939C10.8409 39.2324 10.8604 39.3854 10.8328 39.534C10.8051 39.6827 10.7315 39.8206 10.6209 39.9309C10.5104 40.0411 10.3677 40.1189 10.2104 40.1546C10.0531 40.1904 9.88796 40.1826 9.73535 40.1321C9.58274 40.0817 9.44927 39.9909 9.35127 39.8707C9.25327 39.7506 9.19502 39.6065 9.18368 39.456C9.17568 39.3497 9.19127 39.2431 9.22947 39.1427C9.26767 39.0423 9.32767 38.9503 9.40571 38.8725C9.48375 38.7947 9.57815 38.7327 9.68304 38.6905C9.78794 38.6482 9.90106 38.6265 10.0154 38.6267Z" fill="url(#paint15_radial_103_96)"/>
<path d="M10.1155 39.1922C10.1614 39.1892 10.2073 39.199 10.2472 39.2203C10.2871 39.2416 10.3194 39.2734 10.3399 39.3118C10.3605 39.3501 10.3683 39.3933 10.3626 39.4358C10.3568 39.4784 10.3377 39.5183 10.3075 39.5507C10.2774 39.5831 10.2376 39.6065 10.1933 39.6179C10.1489 39.6292 10.1019 39.6281 10.0583 39.6146C10.0146 39.6011 9.97619 39.5759 9.9479 39.5421C9.91961 39.5083 9.90271 39.4674 9.89932 39.4246C9.89705 39.3961 9.90086 39.3675 9.91051 39.3404C9.92016 39.3132 9.93547 39.2881 9.95556 39.2665C9.97566 39.2449 10.0001 39.2272 10.0276 39.2145C10.055 39.2017 10.0849 39.1941 10.1155 39.1922Z" fill="#FFFFAB"/>
<path style="mix-blend-mode:screen" d="M33.8517 25.0566C34.0132 25.0571 34.1711 25.1014 34.3061 25.1842C34.441 25.2669 34.5472 25.3845 34.6117 25.5225C34.6761 25.6605 34.696 25.8131 34.6689 25.9615C34.6419 26.1099 34.569 26.2477 34.4593 26.3582C34.3495 26.4686 34.2076 26.5469 34.0509 26.5834C33.8942 26.62 33.7295 26.6132 33.5768 26.5639C33.4242 26.5147 33.2902 26.425 33.1913 26.306C33.0925 26.187 33.0329 26.0437 33.02 25.8936C33.0108 25.7868 33.0255 25.6793 33.0631 25.578C33.1008 25.4767 33.1606 25.3838 33.2388 25.3051C33.3169 25.2264 33.4118 25.1637 33.5173 25.121C33.6228 25.0782 33.7366 25.0563 33.8517 25.0566Z" fill="url(#paint16_radial_103_96)"/>
<path d="M33.9524 25.5987C33.9983 25.5957 34.0441 25.6055 34.0841 25.6268C34.124 25.6481 34.1563 25.6799 34.1768 25.7183C34.1973 25.7566 34.2052 25.7998 34.1994 25.8423C34.1937 25.8849 34.1745 25.9248 34.1444 25.9572C34.1143 25.9896 34.0745 26.013 34.0302 26.0244C33.9858 26.0357 33.9388 26.0346 33.8951 26.0211C33.8515 26.0076 33.8131 25.9824 33.7848 25.9486C33.7565 25.9148 33.7396 25.8739 33.7362 25.8311C33.734 25.8026 33.7378 25.774 33.7474 25.7468C33.7571 25.7197 33.7724 25.6946 33.7925 25.673C33.8126 25.6514 33.837 25.6337 33.8645 25.621C33.8919 25.6082 33.9218 25.6006 33.9524 25.5987Z" fill="#FFFFAB"/>
<path style="mix-blend-mode:screen" d="M22.0839 37.4566C22.2519 37.4501 22.416 37.5047 22.5417 37.6088C22.6674 37.7129 22.7448 37.8583 22.7575 38.0146C22.762 38.0919 22.7501 38.1694 22.7224 38.2424C22.6947 38.3155 22.6518 38.3828 22.5962 38.4404C22.5406 38.498 22.4733 38.5448 22.3982 38.5781C22.3232 38.6114 22.2418 38.6306 22.1587 38.6346C22.0761 38.6398 21.9932 38.6297 21.9148 38.6048C21.8365 38.5798 21.7642 38.5406 21.7023 38.4894C21.6404 38.4382 21.59 38.376 21.5541 38.3064C21.5183 38.2369 21.4976 38.1614 21.4934 38.0843C21.4878 38.0069 21.4986 37.9293 21.5252 37.8558C21.5519 37.7823 21.5938 37.7145 21.6487 37.6561C21.7035 37.5978 21.7702 37.5502 21.8449 37.5159C21.9196 37.4817 22.0008 37.4615 22.0839 37.4566Z" fill="url(#paint17_radial_103_96)"/>
<path d="M22.1583 37.8823C22.1819 37.8802 22.2057 37.8826 22.2283 37.8893C22.2509 37.8961 22.2718 37.907 22.2897 37.9215C22.3076 37.936 22.3221 37.9538 22.3324 37.9737C22.3427 37.9936 22.3485 38.0153 22.3496 38.0373C22.348 38.0795 22.3304 38.1198 22.2999 38.151C22.2695 38.1822 22.2281 38.2024 22.1832 38.2078C22.16 38.21 22.1366 38.2076 22.1144 38.2008C22.0923 38.194 22.0719 38.1829 22.0547 38.1683C22.0374 38.1537 22.0237 38.1359 22.0143 38.116C22.0049 38.0961 22.0001 38.0746 22.0002 38.0529C21.9979 38.0109 22.013 37.9698 22.0425 37.938C22.0719 37.9062 22.1134 37.8863 22.1583 37.8823Z" fill="#FFFFAB"/>
<path style="mix-blend-mode:screen" d="M66.0291 39.0371C66.2028 39.0274 66.3768 39.0497 66.5412 39.1027C66.7056 39.1557 66.8572 39.2384 66.9873 39.346C67.1174 39.4535 67.2236 39.584 67.2996 39.7298C67.3756 39.8756 67.4201 40.0339 67.4305 40.1957C67.4409 40.3575 67.4169 40.5196 67.3601 40.6728C67.3032 40.826 67.2145 40.9673 67.099 41.0886C66.9836 41.2098 66.8436 41.3087 66.6872 41.3796C66.5307 41.4504 66.3608 41.4918 66.1872 41.5015C65.8364 41.521 65.4918 41.4099 65.229 41.1927C64.9662 40.9754 64.8068 40.6697 64.7858 40.3429C64.7649 40.0161 64.8841 39.695 65.1172 39.4501C65.3504 39.2052 65.6784 39.0566 66.0291 39.0371Z" fill="url(#paint18_radial_103_96)"/>
<path d="M66.1864 39.928C66.2347 39.9237 66.2834 39.9287 66.3296 39.9426C66.3758 39.9564 66.4185 39.9789 66.455 40.0086C66.4916 40.0384 66.5213 40.0747 66.5423 40.1155C66.5633 40.1563 66.5752 40.2006 66.5772 40.2457C66.58 40.2905 66.5732 40.3354 66.5573 40.3777C66.5415 40.4201 66.5168 40.4591 66.4847 40.4925C66.4527 40.526 66.4139 40.5532 66.3705 40.5727C66.3272 40.5922 66.2801 40.6036 66.2321 40.6061C66.184 40.6087 66.1359 40.6024 66.0905 40.5876C66.045 40.5728 66.0032 40.5498 65.9673 40.5199C65.9314 40.4901 65.9021 40.4539 65.8812 40.4135C65.8603 40.3731 65.8481 40.3293 65.8454 40.2845C65.8408 40.1953 65.874 40.108 65.9377 40.0413C66.0015 39.9747 66.0908 39.934 66.1864 39.928Z" fill="#FFFFAB"/>
<path style="mix-blend-mode:screen" d="M38.1099 39.9281C38.3704 39.9148 38.6294 39.9737 38.8542 40.0974C39.0789 40.221 39.2594 40.4038 39.3728 40.6228C39.4863 40.8418 39.5276 41.0872 39.4917 41.3281C39.4558 41.569 39.3442 41.7946 39.171 41.9764C38.9977 42.1583 38.7706 42.2884 38.5182 42.3502C38.2658 42.412 37.9994 42.4029 37.7526 42.3239C37.5057 42.2449 37.2895 42.0997 37.1311 41.9064C36.9727 41.7131 36.8792 41.4805 36.8624 41.2378C36.8419 40.9101 36.9617 40.5882 37.1956 40.3427C37.4294 40.0972 37.7582 39.9481 38.1099 39.9281Z" fill="url(#paint19_radial_103_96)"/>
<path d="M38.2681 40.8119C38.3162 40.8098 38.3643 40.8166 38.4095 40.8318C38.4548 40.847 38.4963 40.8705 38.5319 40.9007C38.5674 40.9309 38.5962 40.9674 38.6166 41.008C38.637 41.0486 38.6486 41.0926 38.6507 41.1374C38.6541 41.1818 38.6479 41.2263 38.6325 41.2685C38.6171 41.3106 38.5927 41.3494 38.561 41.3827C38.5292 41.4159 38.4906 41.4429 38.4474 41.462C38.4043 41.4811 38.3575 41.4919 38.3097 41.4939C38.2617 41.497 38.2134 41.4913 38.1677 41.477C38.122 41.4627 38.0798 41.4402 38.0435 41.4107C38.0071 41.3811 37.9774 41.3452 37.956 41.305C37.9347 41.2647 37.922 41.2209 37.9189 41.1761C37.9143 41.0849 37.9483 40.9956 38.0136 40.9275C38.079 40.8594 38.1703 40.8179 38.2681 40.8119Z" fill="#FFFFAB"/>
<path d="M102.24 41.0984C101.816 40.3931 105.566 37.1847 106.523 37.2235C107.479 37.2622 106.623 39.3392 106.049 39.8274C105.475 40.3156 102.456 41.4316 102.24 41.0984Z" fill="white"/>
<defs>
<linearGradient id="paint0_linear_103_96" x1="58.2608" y1="52.1264" x2="58.2608" y2="2.35733" gradientUnits="userSpaceOnUse">
<stop stop-color="#8B9AD1"/>
<stop offset="1" stop-color="#CEE0FF"/>
</linearGradient>
<linearGradient id="paint1_linear_103_96" x1="58.2621" y1="50.5067" x2="58.2621" y2="0.737665" gradientUnits="userSpaceOnUse">
<stop stop-color="#CADCFF"/>
<stop offset="1" stop-color="white"/>
</linearGradient>
<radialGradient id="paint2_radial_103_96" cx="0" cy="0" r="1" gradientUnits="userSpaceOnUse" gradientTransform="translate(58.9597 44.0666) scale(41.1588 38.3537)">
<stop stop-color="#FFBD00"/>
<stop offset="1" stop-color="#FF772C"/>
</radialGradient>
<linearGradient id="paint3_linear_103_96" x1="57.239" y1="44.865" x2="57.239" y2="3.79114" gradientUnits="userSpaceOnUse">
<stop stop-color="#FFF300"/>
<stop offset="1" stop-color="#FF9700"/>
</linearGradient>
<linearGradient id="paint4_linear_103_96" x1="57.2381" y1="44.0895" x2="57.2381" y2="4.23239" gradientUnits="userSpaceOnUse">
<stop stop-color="#FFCC00"/>
<stop offset="1" stop-color="#FF9700"/>
</linearGradient>
<linearGradient id="paint5_linear_103_96" x1="11.5798" y1="12.2386" x2="107.67" y2="12.2386" gradientUnits="userSpaceOnUse">
<stop stop-color="#FF9840"/>
<stop offset="0.1" stop-color="#EF8E3C"/>
<stop offset="0.29" stop-color="#C57531"/>
<stop offset="0.55" stop-color="#814D20"/>
<stop offset="0.88" stop-color="#241609"/>
<stop offset="1"/>
</linearGradient>
<linearGradient id="paint6_linear_103_96" x1="103.328" y1="39.1609" x2="11.729" y2="39.1609" gradientUnits="userSpaceOnUse">
<stop stop-color="#FF6140"/>
<stop offset="0.1" stop-color="#EF5B3C"/>
<stop offset="0.29" stop-color="#C54B31"/>
<stop offset="0.55" stop-color="#813120"/>
<stop offset="0.88" stop-color="#240E09"/>
<stop offset="1"/>
</linearGradient>
<radialGradient id="paint7_radial_103_96" cx="0" cy="0" r="1" gradientUnits="userSpaceOnUse" gradientTransform="translate(1918.6 -702.145) scale(3.89367 3.62832)">
<stop stop-color="#00B359"/>
<stop offset="0.13" stop-color="#009148"/>
<stop offset="0.34" stop-color="#005E2F"/>
<stop offset="0.54" stop-color="#00351A"/>
<stop offset="0.73" stop-color="#00180C"/>
<stop offset="0.89" stop-color="#000603"/>
<stop offset="1"/>
</radialGradient>
<radialGradient id="paint8_radial_103_96" cx="0" cy="0" r="1" gradientUnits="userSpaceOnUse" gradientTransform="translate(1937.04 -701.378) scale(3.8945 3.62827)">
<stop stop-color="#00B359"/>
<stop offset="0.13" stop-color="#009148"/>
<stop offset="0.34" stop-color="#005E2F"/>
<stop offset="0.54" stop-color="#00351A"/>
<stop offset="0.73" stop-color="#00180C"/>
<stop offset="0.89" stop-color="#000603"/>
<stop offset="1"/>
</radialGradient>
<radialGradient id="paint9_radial_103_96" cx="0" cy="0" r="1" gradientUnits="userSpaceOnUse" gradientTransform="translate(1888.06 -692.334) scale(3.89367 3.62827)">
<stop stop-color="#00B359"/>
<stop offset="0.13" stop-color="#009148"/>
<stop offset="0.34" stop-color="#005E2F"/>
<stop offset="0.54" stop-color="#00351A"/>
<stop offset="0.73" stop-color="#00180C"/>
<stop offset="0.89" stop-color="#000603"/>
<stop offset="1"/>
</radialGradient>
<radialGradient id="paint10_radial_103_96" cx="0" cy="0" r="1" gradientUnits="userSpaceOnUse" gradientTransform="translate(5366.35 -2035.35) scale(30.327 28.2602)">
<stop stop-color="#00B359"/>
<stop offset="0.13" stop-color="#009148"/>
<stop offset="0.34" stop-color="#005E2F"/>
<stop offset="0.54" stop-color="#00351A"/>
<stop offset="0.73" stop-color="#00180C"/>
<stop offset="0.89" stop-color="#000603"/>
<stop offset="1"/>
</radialGradient>
<radialGradient id="paint11_radial_103_96" cx="0" cy="0" r="1" gradientUnits="userSpaceOnUse" gradientTransform="translate(5182.9 -1444.46) scale(30.3273 28.2602)">
<stop stop-color="#00B359"/>
<stop offset="0.13" stop-color="#009148"/>
<stop offset="0.34" stop-color="#005E2F"/>
<stop offset="0.54" stop-color="#00351A"/>
<stop offset="0.73" stop-color="#00180C"/>
<stop offset="0.89" stop-color="#000603"/>
<stop offset="1"/>
</radialGradient>
<radialGradient id="paint12_radial_103_96" cx="0" cy="0" r="1" gradientUnits="userSpaceOnUse" gradientTransform="translate(2500.45 -591.949) scale(6.78074 6.3238)">
<stop stop-color="#00B359"/>
<stop offset="0.13" stop-color="#009148"/>
<stop offset="0.34" stop-color="#005E2F"/>
<stop offset="0.54" stop-color="#00351A"/>
<stop offset="0.73" stop-color="#00180C"/>
<stop offset="0.89" stop-color="#000603"/>
<stop offset="1"/>
</radialGradient>
<radialGradient id="paint13_radial_103_96" cx="0" cy="0" r="1" gradientUnits="userSpaceOnUse" gradientTransform="translate(2428.34 -891.493) scale(6.78643 6.3238)">
<stop stop-color="#00B359"/>
<stop offset="0.13" stop-color="#009148"/>
<stop offset="0.34" stop-color="#005E2F"/>
<stop offset="0.54" stop-color="#00351A"/>
<stop offset="0.73" stop-color="#00180C"/>
<stop offset="0.89" stop-color="#000603"/>
<stop offset="1"/>
</radialGradient>
<radialGradient id="paint14_radial_103_96" cx="0" cy="0" r="1" gradientUnits="userSpaceOnUse" gradientTransform="translate(1283.94 -343.126) scale(1.69662 1.58098)">
<stop stop-color="#00B359"/>
<stop offset="0.13" stop-color="#009148"/>
<stop offset="0.34" stop-color="#005E2F"/>
<stop offset="0.54" stop-color="#00351A"/>
<stop offset="0.73" stop-color="#00180C"/>
<stop offset="0.89" stop-color="#000603"/>
<stop offset="1"/>
</radialGradient>
<radialGradient id="paint15_radial_103_96" cx="0" cy="0" r="1" gradientUnits="userSpaceOnUse" gradientTransform="translate(1206.18 -452.872) scale(1.69662 1.58098)">
<stop stop-color="#00B359"/>
<stop offset="0.13" stop-color="#009148"/>
<stop offset="0.34" stop-color="#005E2F"/>
<stop offset="0.54" stop-color="#00351A"/>
<stop offset="0.73" stop-color="#00180C"/>
<stop offset="0.89" stop-color="#000603"/>
<stop offset="1"/>
</radialGradient>
<radialGradient id="paint16_radial_103_96" cx="0" cy="0" r="1" gradientUnits="userSpaceOnUse" gradientTransform="translate(1256.25 -420.485) scale(1.69662 1.58098)">
<stop stop-color="#00B359"/>
<stop offset="0.13" stop-color="#009148"/>
<stop offset="0.34" stop-color="#005E2F"/>
<stop offset="0.54" stop-color="#00351A"/>
<stop offset="0.73" stop-color="#00180C"/>
<stop offset="0.89" stop-color="#000603"/>
<stop offset="1"/>
</radialGradient>
<radialGradient id="paint17_radial_103_96" cx="0" cy="0" r="1" gradientUnits="userSpaceOnUse" gradientTransform="translate(934.046 -319.489) scale(0.962556 0.896699)">
<stop stop-color="#00B359"/>
<stop offset="0.13" stop-color="#009148"/>
<stop offset="0.34" stop-color="#005E2F"/>
<stop offset="0.54" stop-color="#00351A"/>
<stop offset="0.73" stop-color="#00180C"/>
<stop offset="0.89" stop-color="#000603"/>
<stop offset="1"/>
</radialGradient>
<radialGradient id="paint18_radial_103_96" cx="0" cy="0" r="1" gradientUnits="userSpaceOnUse" gradientTransform="translate(1957.78 -577.919) scale(4.21254 3.9254)">
<stop stop-color="#00B359"/>
<stop offset="0.13" stop-color="#009148"/>
<stop offset="0.34" stop-color="#005E2F"/>
<stop offset="0.54" stop-color="#00351A"/>
<stop offset="0.73" stop-color="#00180C"/>
<stop offset="0.89" stop-color="#000603"/>
<stop offset="1"/>
</radialGradient>
<radialGradient id="paint19_radial_103_96" cx="0" cy="0" r="1" gradientUnits="userSpaceOnUse" gradientTransform="translate(1928.42 -658.716) scale(4.20428 3.91845)">
<stop stop-color="#00B359"/>
<stop offset="0.13" stop-color="#009148"/>
<stop offset="0.34" stop-color="#005E2F"/>
<stop offset="0.54" stop-color="#00351A"/>
<stop offset="0.73" stop-color="#00180C"/>
<stop offset="0.89" stop-color="#000603"/>
<stop offset="1"/>
</radialGradient>
</defs>
</svg>
